<svg xmlns="http://www.w3.org/2000/svg" width="22" height="24">
    <path fill-rule="evenodd" d="M21.012 24H.988C.442 24 0 23.54 0 22.971V7.885c0-.568.442-1.028.988-1.028h20.024c.546 0 .988.46.988 1.028v15.086c0 .569-.442 1.029-.988 1.029zm-.988-15.086H1.976v13.029h18.048V8.914zm-.659-3.428H2.635c-.546 0-.988-.461-.988-1.029 0-.568.442-1.029.988-1.029h16.73c.546 0 .988.461.988 1.029 0 .568-.442 1.029-.988 1.029zm-1.647-3.429H4.281c-.545 0-.988-.46-.988-1.028C3.293.46 3.736 0 4.281 0h13.437c.546 0 .988.46.988 1.029 0 .568-.442 1.028-.988 1.028z"/>
</svg>
