<svg xmlns="http://www.w3.org/2000/svg" width="28" height="28">
    <path fill-rule="evenodd" d="M14 28C6.28 28 0 21.719 0 14 0 6.28 6.28 0 14 0c7.719 0 14 6.28 14 14 0 7.719-6.281 14-14 14zm0-25.6C7.604 2.4 2.4 7.603 2.4 14c0 6.396 5.204 11.6 11.6 11.6S25.6 20.396 25.6 14c0-6.397-5.204-11.6-11.6-11.6zm5.417 17.018a1.192 1.192 0 0 1-.848.352c-.308 0-.615-.117-.849-.352L14 15.698l-3.721 3.72a1.192 1.192 0 0 1-.848.352 1.2 1.2 0 0 1-.848-2.049l3.72-3.72-3.72-3.721a1.2 1.2 0 1 1 1.696-1.697L14 12.304l3.72-3.721a1.2 1.2 0 1 1 1.697 1.697l-3.72 3.721 3.72 3.72a1.2 1.2 0 0 1 0 1.697z"/>
</svg>
