<svg xmlns="http://www.w3.org/2000/svg" width="28" height="25">
    <path fill-rule="evenodd" d="M26.548 24.625H1.452a.95.95 0 0 1-.825-.484.979.979 0 0 1 0-.966L13.174 1.108a.95.95 0 0 1 .825-.483c.34 0 .654.184.824.483l12.515 22.01c.102.154.162.34.162.54a.96.96 0 0 1-.952.967zm-12.549-21.1L3.101 22.692h21.795L13.999 3.525zm0 15.328c.654 0 1.184.538 1.184 1.202 0 .664-.53 1.202-1.184 1.202a1.193 1.193 0 0 1-1.184-1.202c0-.664.53-1.202 1.184-1.202zm0-.866a.96.96 0 0 1-.952-.967V8.787a.96.96 0 0 1 .952-.967.96.96 0 0 1 .952.967v8.233a.96.96 0 0 1-.952.967z"/>
</svg>
