<svg xmlns="http://www.w3.org/2000/svg" width="507" height="494">
    <path fill="#298EED" fill-rule="evenodd" d="M504.925 424.019a2.072 2.072 0 0 1-2.076-2.069c0-1.145.929-2.071 2.076-2.071 1.146 0 2.075.926 2.075 2.071a2.072 2.072 0 0 1-2.075 2.069zm0-46.654a2.072 2.072 0 0 1-2.076-2.07c0-1.141.929-2.07 2.076-2.07 1.146 0 2.075.929 2.075 2.07 0 1.144-.929 2.07-2.075 2.07zm0-46.654a2.071 2.071 0 0 1-2.076-2.069c0-1.143.929-2.07 2.076-2.07 1.146 0 2.075.927 2.075 2.07a2.071 2.071 0 0 1-2.075 2.069zm0-46.652a2.073 2.073 0 0 1-2.076-2.07c0-1.143.929-2.07 2.076-2.07 1.146 0 2.075.927 2.075 2.07 0 1.143-.929 2.07-2.075 2.07zm0-46.653a2.074 2.074 0 0 1-2.076-2.07c0-1.143.929-2.07 2.076-2.07 1.146 0 2.075.927 2.075 2.07 0 1.142-.929 2.07-2.075 2.07zm0-46.653a2.073 2.073 0 0 1-2.076-2.071c0-1.144.929-2.069 2.076-2.069a2.071 2.071 0 1 1 0 4.14zm0-46.655a2.072 2.072 0 0 1-2.076-2.07c0-1.142.929-2.068 2.076-2.068 1.146 0 2.075.926 2.075 2.068 0 1.144-.929 2.07-2.075 2.07zm0-46.652a2.072 2.072 0 0 1-2.076-2.071c0-1.143.929-2.07 2.076-2.07 1.146 0 2.075.927 2.075 2.07a2.072 2.072 0 0 1-2.075 2.071zm0-46.654a2.073 2.073 0 0 1-2.076-2.07c0-1.143.929-2.07 2.076-2.07 1.146 0 2.075.927 2.075 2.07 0 1.143-.929 2.07-2.075 2.07zm0-46.652a2.074 2.074 0 0 1-2.076-2.071c0-1.143.929-2.069 2.076-2.069C506.071 0 507 .926 507 2.069a2.073 2.073 0 0 1-2.075 2.071zm-11.694 489.858a2.074 2.074 0 0 1-2.077-2.07c0-1.141.931-2.07 2.077-2.07 1.147 0 2.076.929 2.076 2.07 0 1.144-.929 2.07-2.076 2.07zm0-46.653a2.073 2.073 0 0 1-2.077-2.07c0-1.143.931-2.069 2.077-2.069 1.147 0 2.076.926 2.076 2.069 0 1.145-.929 2.07-2.076 2.07zm0-46.653a2.074 2.074 0 0 1-2.077-2.07c0-1.142.931-2.07 2.077-2.07 1.147 0 2.076.928 2.076 2.07 0 1.143-.929 2.07-2.076 2.07zm0-46.653a2.074 2.074 0 0 1-2.077-2.069c0-1.144.931-2.071 2.077-2.071 1.147 0 2.076.927 2.076 2.071a2.073 2.073 0 0 1-2.076 2.069zm0-46.653a2.074 2.074 0 0 1-2.077-2.07c0-1.145.931-2.07 2.077-2.07 1.147 0 2.076.925 2.076 2.07 0 1.143-.929 2.07-2.076 2.07zm0-46.655a2.074 2.074 0 0 1-2.077-2.07c0-1.141.931-2.068 2.077-2.068 1.147 0 2.076.927 2.076 2.068 0 1.144-.929 2.07-2.076 2.07zm0-46.653a2.073 2.073 0 0 1-2.077-2.069c0-1.143.931-2.07 2.077-2.07 1.147 0 2.076.927 2.076 2.07a2.071 2.071 0 0 1-2.076 2.069zm0-46.653a2.074 2.074 0 0 1-2.077-2.069c0-1.143.931-2.071 2.077-2.071 1.147 0 2.076.928 2.076 2.071a2.072 2.072 0 0 1-2.076 2.069zm0-46.652a2.075 2.075 0 0 1-2.077-2.07c0-1.143.931-2.07 2.077-2.07 1.147 0 2.076.927 2.076 2.07 0 1.142-.929 2.07-2.076 2.07zm0-46.654a2.074 2.074 0 0 1-2.077-2.07c0-1.144.931-2.069 2.077-2.069 1.147 0 2.076.925 2.076 2.069s-.929 2.07-2.076 2.07zm0-46.654a2.074 2.074 0 0 1-2.077-2.068c0-1.144.931-2.07 2.077-2.07 1.147 0 2.076.926 2.076 2.07a2.072 2.072 0 0 1-2.076 2.068zm-11.695 443.207a2.072 2.072 0 0 1-2.074-2.069c0-1.144.929-2.07 2.074-2.07 1.147 0 2.077.926 2.077 2.07 0 1.143-.93 2.069-2.077 2.069zm0-46.653a2.072 2.072 0 0 1-2.074-2.069c0-1.145.929-2.071 2.074-2.071 1.147 0 2.077.926 2.077 2.071 0 1.143-.93 2.069-2.077 2.069zm0-46.654a2.072 2.072 0 0 1-2.074-2.07 2.075 2.075 0 1 1 4.151 0c0 1.144-.93 2.07-2.077 2.07zm0-46.654a2.07 2.07 0 0 1-2.074-2.069c0-1.143.929-2.07 2.074-2.07 1.147 0 2.077.927 2.077 2.07 0 1.144-.93 2.069-2.077 2.069zm0-46.652a2.072 2.072 0 0 1-2.074-2.07c0-1.143.929-2.07 2.074-2.07 1.147 0 2.077.927 2.077 2.07 0 1.143-.93 2.07-2.077 2.07zm0-46.653a2.073 2.073 0 0 1-2.074-2.07c0-1.143.929-2.07 2.074-2.07 1.147 0 2.077.927 2.077 2.07 0 1.142-.93 2.07-2.077 2.07zm0-46.653a2.07 2.07 0 0 1 0-4.14c1.147 0 2.077.925 2.077 2.069s-.93 2.071-2.077 2.071zm0-46.655a2.072 2.072 0 0 1-2.074-2.07c0-1.142.929-2.068 2.074-2.068 1.147 0 2.077.926 2.077 2.068 0 1.144-.93 2.07-2.077 2.07zm0-46.652a2.072 2.072 0 0 1-2.074-2.071c0-1.143.929-2.07 2.074-2.07 1.147 0 2.077.927 2.077 2.07 0 1.145-.93 2.071-2.077 2.071zm0-46.654a2.072 2.072 0 0 1-2.074-2.07c0-1.143.929-2.07 2.074-2.07 1.147 0 2.077.927 2.077 2.07 0 1.143-.93 2.07-2.077 2.07zm0-46.652a2.073 2.073 0 0 1-2.074-2.071c0-1.143.929-2.069 2.074-2.069 1.147 0 2.077.926 2.077 2.069 0 1.143-.93 2.071-2.077 2.071zm-11.694 489.858a2.073 2.073 0 0 1-2.075-2.07 2.075 2.075 0 0 1 4.151 0c0 1.144-.928 2.07-2.076 2.07zm0-46.653a2.073 2.073 0 0 1-2.075-2.07c0-1.143.931-2.069 2.075-2.069 1.148 0 2.076.926 2.076 2.069a2.07 2.07 0 0 1-2.076 2.07zm0-46.653a2.074 2.074 0 0 1-2.075-2.07c0-1.142.931-2.07 2.075-2.07 1.148 0 2.076.928 2.076 2.07 0 1.143-.928 2.07-2.076 2.07zm0-46.653a2.074 2.074 0 0 1-2.075-2.069c0-1.144.931-2.071 2.075-2.071 1.148 0 2.076.927 2.076 2.071a2.072 2.072 0 0 1-2.076 2.069zm0-46.653a2.074 2.074 0 0 1-2.075-2.07c0-1.145.931-2.07 2.075-2.07a2.07 2.07 0 1 1 0 4.14zm0-46.655a2.073 2.073 0 0 1-2.075-2.07c0-1.141.931-2.068 2.075-2.068 1.148 0 2.076.927 2.076 2.068 0 1.144-.928 2.07-2.076 2.07zm0-46.653a2.072 2.072 0 0 1-2.075-2.069c0-1.143.931-2.07 2.075-2.07 1.148 0 2.076.927 2.076 2.07a2.07 2.07 0 0 1-2.076 2.069zm0-46.653a2.073 2.073 0 0 1-2.075-2.069c0-1.143.931-2.071 2.075-2.071 1.148 0 2.076.928 2.076 2.071a2.071 2.071 0 0 1-2.076 2.069zm0-46.652a2.075 2.075 0 0 1-2.075-2.07c0-1.143.931-2.07 2.075-2.07 1.148 0 2.076.927 2.076 2.07 0 1.142-.928 2.07-2.076 2.07zm0-46.654a2.073 2.073 0 0 1-2.075-2.07c0-1.144.931-2.069 2.075-2.069a2.07 2.07 0 0 1 2.076 2.069c0 1.144-.928 2.07-2.076 2.07zm0-46.654a2.074 2.074 0 0 1-2.075-2.068c0-1.144.931-2.07 2.075-2.07 1.148 0 2.076.926 2.076 2.07a2.072 2.072 0 0 1-2.076 2.068zm-11.694 443.207a2.072 2.072 0 0 1-2.075-2.069c0-1.144.929-2.07 2.075-2.07 1.146 0 2.075.926 2.075 2.07a2.072 2.072 0 0 1-2.075 2.069zm0-46.653a2.072 2.072 0 0 1-2.075-2.069c0-1.145.929-2.071 2.075-2.071 1.146 0 2.075.926 2.075 2.071a2.072 2.072 0 0 1-2.075 2.069zm0-46.654a2.072 2.072 0 0 1-2.075-2.07c0-1.141.929-2.07 2.075-2.07 1.146 0 2.075.929 2.075 2.07 0 1.144-.929 2.07-2.075 2.07zm0-46.654a2.071 2.071 0 0 1-2.075-2.069c0-1.143.929-2.07 2.075-2.07 1.146 0 2.075.927 2.075 2.07a2.071 2.071 0 0 1-2.075 2.069zm0-46.652a2.073 2.073 0 0 1-2.075-2.07c0-1.143.929-2.07 2.075-2.07 1.146 0 2.075.927 2.075 2.07 0 1.143-.929 2.07-2.075 2.07zm0-46.653a2.073 2.073 0 0 1-2.075-2.07c0-1.143.929-2.07 2.075-2.07 1.146 0 2.075.927 2.075 2.07 0 1.142-.929 2.07-2.075 2.07zm0-46.653a2.071 2.071 0 0 1 0-4.14 2.071 2.071 0 1 1 0 4.14zm0-46.655a2.072 2.072 0 0 1-2.075-2.07c0-1.142.929-2.068 2.075-2.068 1.146 0 2.075.926 2.075 2.068 0 1.144-.929 2.07-2.075 2.07zm0-46.652a2.072 2.072 0 0 1-2.075-2.071c0-1.143.929-2.07 2.075-2.07 1.146 0 2.075.927 2.075 2.07a2.072 2.072 0 0 1-2.075 2.071zm0-46.654a2.073 2.073 0 0 1-2.075-2.07c0-1.143.929-2.07 2.075-2.07 1.146 0 2.075.927 2.075 2.07 0 1.143-.929 2.07-2.075 2.07zm0-46.652a2.073 2.073 0 0 1-2.075-2.071c0-1.143.929-2.069 2.075-2.069 1.146 0 2.075.926 2.075 2.069a2.073 2.073 0 0 1-2.075 2.071zm-11.694 489.858a2.072 2.072 0 0 1-2.076-2.07c0-1.141.929-2.07 2.076-2.07 1.145 0 2.076.929 2.076 2.07 0 1.144-.931 2.07-2.076 2.07zm0-46.653a2.072 2.072 0 0 1-2.076-2.07c0-1.143.929-2.069 2.076-2.069 1.145 0 2.076.926 2.076 2.069 0 1.145-.931 2.07-2.076 2.07zm0-46.653a2.073 2.073 0 0 1-2.076-2.07c0-1.142.929-2.07 2.076-2.07 1.145 0 2.076.928 2.076 2.07 0 1.143-.931 2.07-2.076 2.07zm0-46.653a2.073 2.073 0 0 1-2.076-2.069c0-1.144.929-2.071 2.076-2.071 1.145 0 2.076.927 2.076 2.071a2.074 2.074 0 0 1-2.076 2.069zm0-46.653a2.073 2.073 0 0 1-2.076-2.07c0-1.145.929-2.07 2.076-2.07 1.145 0 2.076.925 2.076 2.07 0 1.143-.931 2.07-2.076 2.07zm0-46.655a2.072 2.072 0 0 1-2.076-2.07c0-1.141.929-2.068 2.076-2.068 1.145 0 2.076.927 2.076 2.068 0 1.144-.931 2.07-2.076 2.07zm0-46.653a2.071 2.071 0 0 1-2.076-2.069c0-1.143.929-2.07 2.076-2.07 1.145 0 2.076.927 2.076 2.07a2.073 2.073 0 0 1-2.076 2.069zm0-46.653a2.072 2.072 0 0 1-2.076-2.069c0-1.143.929-2.071 2.076-2.071 1.145 0 2.076.928 2.076 2.071a2.073 2.073 0 0 1-2.076 2.069zm0-46.652a2.074 2.074 0 0 1-2.076-2.07c0-1.143.929-2.07 2.076-2.07 1.145 0 2.076.927 2.076 2.07 0 1.142-.931 2.07-2.076 2.07zm0-46.654a2.072 2.072 0 0 1-2.076-2.07c0-1.144.929-2.069 2.076-2.069 1.145 0 2.076.925 2.076 2.069s-.931 2.07-2.076 2.07zm0-46.654a2.072 2.072 0 0 1-2.076-2.068c0-1.144.929-2.07 2.076-2.07 1.145 0 2.076.926 2.076 2.07a2.074 2.074 0 0 1-2.076 2.068zM434.76 470.672a2.073 2.073 0 0 1-2.077-2.069c0-1.144.93-2.07 2.077-2.07 1.147 0 2.076.926 2.076 2.07a2.072 2.072 0 0 1-2.076 2.069zm0-46.653a2.073 2.073 0 0 1-2.077-2.069c0-1.145.93-2.071 2.077-2.071 1.147 0 2.076.926 2.076 2.071a2.072 2.072 0 0 1-2.076 2.069zm0-46.654a2.073 2.073 0 0 1-2.077-2.07c0-1.141.93-2.07 2.077-2.07 1.147 0 2.076.929 2.076 2.07 0 1.144-.929 2.07-2.076 2.07zm0-46.654a2.072 2.072 0 0 1-2.077-2.069c0-1.143.93-2.07 2.077-2.07 1.147 0 2.076.927 2.076 2.07a2.071 2.071 0 0 1-2.076 2.069zm0-46.652a2.074 2.074 0 0 1-2.077-2.07c0-1.143.93-2.07 2.077-2.07 1.147 0 2.076.927 2.076 2.07 0 1.143-.929 2.07-2.076 2.07zm0-46.653a2.074 2.074 0 0 1-2.077-2.07c0-1.143.93-2.07 2.077-2.07 1.147 0 2.076.927 2.076 2.07 0 1.142-.929 2.07-2.076 2.07zm0-46.653a2.074 2.074 0 0 1-2.077-2.071c0-1.144.93-2.069 2.077-2.069 1.147 0 2.076.925 2.076 2.069a2.073 2.073 0 0 1-2.076 2.071zm0-46.655a2.073 2.073 0 0 1-2.077-2.07c0-1.142.93-2.068 2.077-2.068 1.147 0 2.076.926 2.076 2.068 0 1.144-.929 2.07-2.076 2.07zm0-46.652a2.073 2.073 0 0 1-2.077-2.071c0-1.143.93-2.07 2.077-2.07 1.147 0 2.076.927 2.076 2.07a2.072 2.072 0 0 1-2.076 2.071zm0-46.654a2.074 2.074 0 0 1-2.077-2.07c0-1.143.93-2.07 2.077-2.07 1.147 0 2.076.927 2.076 2.07 0 1.143-.929 2.07-2.076 2.07zm0-46.652a2.075 2.075 0 0 1-2.077-2.071c0-1.143.93-2.069 2.077-2.069 1.147 0 2.076.926 2.076 2.069a2.074 2.074 0 0 1-2.076 2.071zm-11.695 489.858a2.072 2.072 0 0 1-2.074-2.07 2.076 2.076 0 0 1 4.151 0c0 1.144-.931 2.07-2.077 2.07zm0-46.653a2.071 2.071 0 0 1-2.074-2.07c0-1.143.929-2.069 2.074-2.069 1.146 0 2.077.926 2.077 2.069 0 1.145-.931 2.07-2.077 2.07zm0-46.653a2.072 2.072 0 0 1-2.074-2.07 2.075 2.075 0 1 1 4.151 0c0 1.143-.931 2.07-2.077 2.07zm0-46.653a2.072 2.072 0 0 1-2.074-2.069c0-1.144.929-2.071 2.074-2.071 1.146 0 2.077.927 2.077 2.071a2.074 2.074 0 0 1-2.077 2.069zm0-46.653a2.071 2.071 0 0 1 0-4.14c1.146 0 2.077.925 2.077 2.07 0 1.143-.931 2.07-2.077 2.07zm0-46.655a2.072 2.072 0 0 1-2.074-2.07c0-1.141.929-2.068 2.074-2.068 1.146 0 2.077.927 2.077 2.068 0 1.144-.931 2.07-2.077 2.07zm0-46.653a2.07 2.07 0 0 1-2.074-2.069c0-1.143.929-2.07 2.074-2.07 1.146 0 2.077.927 2.077 2.07a2.073 2.073 0 0 1-2.077 2.069zm0-46.653a2.072 2.072 0 0 1-2.074-2.069 2.075 2.075 0 1 1 4.151 0 2.074 2.074 0 0 1-2.077 2.069zm0-46.652a2.073 2.073 0 0 1-2.074-2.07c0-1.143.929-2.07 2.074-2.07 1.146 0 2.077.927 2.077 2.07 0 1.142-.931 2.07-2.077 2.07zm0-46.654a2.072 2.072 0 0 1-2.074-2.07 2.07 2.07 0 0 1 2.074-2.069c1.146 0 2.077.925 2.077 2.069s-.931 2.07-2.077 2.07zm0-46.654a2.072 2.072 0 0 1-2.074-2.068c0-1.144.929-2.07 2.074-2.07 1.146 0 2.077.926 2.077 2.07a2.074 2.074 0 0 1-2.077 2.068zm-11.693 443.207a2.073 2.073 0 0 1-2.076-2.069c0-1.144.93-2.07 2.076-2.07s2.075.926 2.075 2.07a2.072 2.072 0 0 1-2.075 2.069zm0-46.653a2.073 2.073 0 0 1-2.076-2.069c0-1.145.93-2.071 2.076-2.071s2.075.926 2.075 2.071a2.072 2.072 0 0 1-2.075 2.069zm0-46.654a2.073 2.073 0 0 1-2.076-2.07c0-1.141.93-2.07 2.076-2.07s2.075.929 2.075 2.07c0 1.144-.929 2.07-2.075 2.07zm0-46.654a2.072 2.072 0 0 1-2.076-2.069c0-1.143.93-2.07 2.076-2.07s2.075.927 2.075 2.07a2.071 2.071 0 0 1-2.075 2.069zm0-46.652a2.074 2.074 0 0 1-2.076-2.07c0-1.143.93-2.07 2.076-2.07s2.075.927 2.075 2.07c0 1.143-.929 2.07-2.075 2.07zm0-46.653a2.074 2.074 0 0 1-2.076-2.07c0-1.143.93-2.07 2.076-2.07s2.075.927 2.075 2.07c0 1.142-.929 2.07-2.075 2.07zm0-46.653a2.074 2.074 0 0 1-2.076-2.071c0-1.144.93-2.069 2.076-2.069a2.071 2.071 0 1 1 0 4.14zm0-46.655a2.073 2.073 0 0 1-2.076-2.07c0-1.142.93-2.068 2.076-2.068s2.075.926 2.075 2.068c0 1.144-.929 2.07-2.075 2.07zm0-46.652a2.073 2.073 0 0 1-2.076-2.071c0-1.143.93-2.07 2.076-2.07s2.075.927 2.075 2.07a2.072 2.072 0 0 1-2.075 2.071zm0-46.654a2.074 2.074 0 0 1-2.076-2.07c0-1.143.93-2.07 2.076-2.07s2.075.927 2.075 2.07c0 1.143-.929 2.07-2.075 2.07zm0-46.652a2.074 2.074 0 0 1-2.076-2.071c0-1.143.93-2.069 2.076-2.069s2.075.926 2.075 2.069a2.073 2.073 0 0 1-2.075 2.071zm-11.694 489.858a2.072 2.072 0 0 1-2.076-2.07c0-1.141.929-2.07 2.076-2.07 1.145 0 2.074.929 2.074 2.07 0 1.144-.929 2.07-2.074 2.07zm0-46.653a2.072 2.072 0 0 1-2.076-2.07c0-1.143.929-2.069 2.076-2.069 1.145 0 2.074.926 2.074 2.069 0 1.145-.929 2.07-2.074 2.07zm0-46.653a2.073 2.073 0 0 1-2.076-2.07c0-1.142.929-2.07 2.076-2.07 1.145 0 2.074.928 2.074 2.07 0 1.143-.929 2.07-2.074 2.07zm0-46.653a2.073 2.073 0 0 1-2.076-2.069c0-1.144.929-2.071 2.076-2.071 1.145 0 2.074.927 2.074 2.071a2.072 2.072 0 0 1-2.074 2.069zm0-46.653a2.073 2.073 0 0 1-2.076-2.07c0-1.145.929-2.07 2.076-2.07a2.071 2.071 0 1 1 0 4.14zm0-46.655a2.072 2.072 0 0 1-2.076-2.07c0-1.141.929-2.068 2.076-2.068 1.145 0 2.074.927 2.074 2.068 0 1.144-.929 2.07-2.074 2.07zm0-46.653a2.071 2.071 0 0 1-2.076-2.069c0-1.143.929-2.07 2.076-2.07 1.145 0 2.074.927 2.074 2.07a2.07 2.07 0 0 1-2.074 2.069zm0-46.653a2.072 2.072 0 0 1-2.076-2.069c0-1.143.929-2.071 2.076-2.071 1.145 0 2.074.928 2.074 2.071a2.072 2.072 0 0 1-2.074 2.069zm0-46.652a2.074 2.074 0 0 1-2.076-2.07c0-1.143.929-2.07 2.076-2.07 1.145 0 2.074.927 2.074 2.07 0 1.142-.929 2.07-2.074 2.07zm0-46.654a2.072 2.072 0 0 1-2.076-2.07c0-1.144.929-2.069 2.076-2.069a2.07 2.07 0 0 1 2.074 2.069c0 1.144-.929 2.07-2.074 2.07zm0-46.654a2.072 2.072 0 0 1-2.076-2.068c0-1.144.929-2.07 2.076-2.07 1.145 0 2.074.926 2.074 2.07a2.072 2.072 0 0 1-2.074 2.068zm-11.694 443.207a2.072 2.072 0 0 1-2.077-2.069c0-1.144.929-2.07 2.077-2.07 1.145 0 2.074.926 2.074 2.07a2.072 2.072 0 0 1-2.074 2.069zm0-46.653a2.072 2.072 0 0 1-2.077-2.069c0-1.145.929-2.071 2.077-2.071 1.145 0 2.074.926 2.074 2.071a2.072 2.072 0 0 1-2.074 2.069zm0-46.654a2.072 2.072 0 0 1-2.077-2.07c0-1.141.929-2.07 2.077-2.07 1.145 0 2.074.929 2.074 2.07 0 1.144-.929 2.07-2.074 2.07zm0-46.654a2.072 2.072 0 0 1-2.077-2.069c0-1.143.929-2.07 2.077-2.07 1.145 0 2.074.927 2.074 2.07a2.07 2.07 0 0 1-2.074 2.069zm0-46.652a2.073 2.073 0 0 1-2.077-2.07c0-1.143.929-2.07 2.077-2.07 1.145 0 2.074.927 2.074 2.07 0 1.143-.929 2.07-2.074 2.07zm0-46.653a2.074 2.074 0 0 1-2.077-2.07c0-1.143.929-2.07 2.077-2.07 1.145 0 2.074.927 2.074 2.07 0 1.142-.929 2.07-2.074 2.07zm0-46.653a2.073 2.073 0 0 1-2.077-2.071c0-1.144.929-2.069 2.077-2.069a2.07 2.07 0 1 1 0 4.14zm0-46.655a2.072 2.072 0 0 1-2.077-2.07c0-1.142.929-2.068 2.077-2.068 1.145 0 2.074.926 2.074 2.068 0 1.144-.929 2.07-2.074 2.07zm0-46.652a2.073 2.073 0 0 1-2.077-2.071c0-1.143.929-2.07 2.077-2.07 1.145 0 2.074.927 2.074 2.07a2.072 2.072 0 0 1-2.074 2.071zm0-46.654a2.073 2.073 0 0 1-2.077-2.07c0-1.143.929-2.07 2.077-2.07 1.145 0 2.074.927 2.074 2.07 0 1.143-.929 2.07-2.074 2.07zm0-46.652a2.074 2.074 0 0 1-2.077-2.071c0-1.143.929-2.069 2.077-2.069 1.145 0 2.074.926 2.074 2.069a2.073 2.073 0 0 1-2.074 2.071zm-11.695 489.858a2.074 2.074 0 0 1-2.077-2.07 2.076 2.076 0 0 1 4.152 0c0 1.144-.929 2.07-2.075 2.07zm0-46.653a2.073 2.073 0 0 1-2.077-2.07c0-1.143.931-2.069 2.077-2.069s2.075.926 2.075 2.069c0 1.145-.929 2.07-2.075 2.07zm0-46.653a2.074 2.074 0 0 1-2.077-2.07c0-1.142.931-2.07 2.077-2.07s2.075.928 2.075 2.07c0 1.143-.929 2.07-2.075 2.07zm0-46.653a2.074 2.074 0 0 1-2.077-2.069c0-1.144.931-2.071 2.077-2.071s2.075.927 2.075 2.071a2.072 2.072 0 0 1-2.075 2.069zm0-46.653a2.074 2.074 0 0 1-2.077-2.07c0-1.145.931-2.07 2.077-2.07s2.075.925 2.075 2.07c0 1.143-.929 2.07-2.075 2.07zm0-46.655a2.074 2.074 0 0 1-2.077-2.07c0-1.141.931-2.068 2.077-2.068s2.075.927 2.075 2.068c0 1.144-.929 2.07-2.075 2.07zm0-46.653a2.073 2.073 0 0 1-2.077-2.069c0-1.143.931-2.07 2.077-2.07s2.075.927 2.075 2.07a2.071 2.071 0 0 1-2.075 2.069zm0-46.653a2.074 2.074 0 0 1-2.077-2.069c0-1.143.931-2.071 2.077-2.071s2.075.928 2.075 2.071a2.072 2.072 0 0 1-2.075 2.069zm0-46.652a2.075 2.075 0 0 1-2.077-2.07c0-1.143.931-2.07 2.077-2.07s2.075.927 2.075 2.07c0 1.142-.929 2.07-2.075 2.07zm0-46.654a2.074 2.074 0 0 1-2.077-2.07c0-1.144.931-2.069 2.077-2.069s2.075.925 2.075 2.069-.929 2.07-2.075 2.07zm0-46.654a2.074 2.074 0 0 1-2.077-2.068c0-1.144.931-2.07 2.077-2.07s2.075.926 2.075 2.07a2.072 2.072 0 0 1-2.075 2.068zm-11.695 443.207a2.072 2.072 0 0 1-2.074-2.069c0-1.144.929-2.07 2.074-2.07 1.147 0 2.077.926 2.077 2.07 0 1.143-.93 2.069-2.077 2.069zm0-46.653a2.072 2.072 0 0 1-2.074-2.069c0-1.145.929-2.071 2.074-2.071 1.147 0 2.077.926 2.077 2.071 0 1.143-.93 2.069-2.077 2.069zm0-46.654a2.072 2.072 0 0 1-2.074-2.07 2.075 2.075 0 1 1 4.151 0c0 1.144-.93 2.07-2.077 2.07zm0-46.654a2.07 2.07 0 0 1-2.074-2.069c0-1.143.929-2.07 2.074-2.07 1.147 0 2.077.927 2.077 2.07 0 1.144-.93 2.069-2.077 2.069zm0-46.652a2.072 2.072 0 0 1-2.074-2.07c0-1.143.929-2.07 2.074-2.07 1.147 0 2.077.927 2.077 2.07 0 1.143-.93 2.07-2.077 2.07zm0-46.653a2.073 2.073 0 0 1-2.074-2.07c0-1.143.929-2.07 2.074-2.07 1.147 0 2.077.927 2.077 2.07 0 1.142-.93 2.07-2.077 2.07zm0-46.653a2.07 2.07 0 0 1 0-4.14c1.147 0 2.077.925 2.077 2.069s-.93 2.071-2.077 2.071zm0-46.655a2.072 2.072 0 0 1-2.074-2.07c0-1.142.929-2.068 2.074-2.068 1.147 0 2.077.926 2.077 2.068 0 1.144-.93 2.07-2.077 2.07zm0-46.652a2.072 2.072 0 0 1-2.074-2.071c0-1.143.929-2.07 2.074-2.07 1.147 0 2.077.927 2.077 2.07 0 1.145-.93 2.071-2.077 2.071zm0-46.654a2.072 2.072 0 0 1-2.074-2.07c0-1.143.929-2.07 2.074-2.07 1.147 0 2.077.927 2.077 2.07 0 1.143-.93 2.07-2.077 2.07zm0-46.652a2.073 2.073 0 0 1-2.074-2.071c0-1.143.929-2.069 2.074-2.069 1.147 0 2.077.926 2.077 2.069 0 1.143-.93 2.071-2.077 2.071zM352.9 493.998a2.073 2.073 0 0 1-2.075-2.07c0-1.141.93-2.07 2.075-2.07 1.147 0 2.076.929 2.076 2.07 0 1.144-.929 2.07-2.076 2.07zm0-46.653a2.072 2.072 0 0 1-2.075-2.07c0-1.143.93-2.069 2.075-2.069 1.147 0 2.076.926 2.076 2.069 0 1.145-.929 2.07-2.076 2.07zm0-46.653a2.073 2.073 0 0 1-2.075-2.07c0-1.142.93-2.07 2.075-2.07 1.147 0 2.076.928 2.076 2.07 0 1.143-.929 2.07-2.076 2.07zm0-46.653a2.073 2.073 0 0 1-2.075-2.069c0-1.144.93-2.071 2.075-2.071 1.147 0 2.076.927 2.076 2.071a2.073 2.073 0 0 1-2.076 2.069zm0-46.653a2.073 2.073 0 0 1-2.075-2.07c0-1.145.93-2.07 2.075-2.07 1.147 0 2.076.925 2.076 2.07 0 1.143-.929 2.07-2.076 2.07zm0-46.655a2.073 2.073 0 0 1-2.075-2.07c0-1.141.93-2.068 2.075-2.068 1.147 0 2.076.927 2.076 2.068 0 1.144-.929 2.07-2.076 2.07zm0-46.653a2.072 2.072 0 0 1-2.075-2.069c0-1.143.93-2.07 2.075-2.07 1.147 0 2.076.927 2.076 2.07a2.071 2.071 0 0 1-2.076 2.069zm0-46.653a2.072 2.072 0 0 1-2.075-2.069c0-1.143.93-2.071 2.075-2.071 1.147 0 2.076.928 2.076 2.071a2.072 2.072 0 0 1-2.076 2.069zm0-46.652a2.074 2.074 0 0 1-2.075-2.07c0-1.143.93-2.07 2.075-2.07 1.147 0 2.076.927 2.076 2.07 0 1.142-.929 2.07-2.076 2.07zm0-46.654a2.073 2.073 0 0 1-2.075-2.07c0-1.144.93-2.069 2.075-2.069 1.147 0 2.076.925 2.076 2.069s-.929 2.07-2.076 2.07zm0-46.654a2.073 2.073 0 0 1-2.075-2.068c0-1.144.93-2.07 2.075-2.07 1.147 0 2.076.926 2.076 2.07a2.072 2.072 0 0 1-2.076 2.068zm-11.694 443.207a2.072 2.072 0 0 1-2.075-2.069c0-1.144.929-2.07 2.075-2.07 1.146 0 2.075.926 2.075 2.07a2.072 2.072 0 0 1-2.075 2.069zm0-46.653a2.072 2.072 0 0 1-2.075-2.069c0-1.145.929-2.071 2.075-2.071 1.146 0 2.075.926 2.075 2.071a2.072 2.072 0 0 1-2.075 2.069zm0-46.654a2.072 2.072 0 0 1-2.075-2.07c0-1.141.929-2.07 2.075-2.07 1.146 0 2.075.929 2.075 2.07 0 1.144-.929 2.07-2.075 2.07zm0-46.654a2.071 2.071 0 0 1-2.075-2.069c0-1.143.929-2.07 2.075-2.07 1.146 0 2.075.927 2.075 2.07a2.071 2.071 0 0 1-2.075 2.069zm0-46.652a2.073 2.073 0 0 1-2.075-2.07c0-1.143.929-2.07 2.075-2.07 1.146 0 2.075.927 2.075 2.07 0 1.143-.929 2.07-2.075 2.07zm0-46.653a2.073 2.073 0 0 1-2.075-2.07c0-1.143.929-2.07 2.075-2.07 1.146 0 2.075.927 2.075 2.07 0 1.142-.929 2.07-2.075 2.07zm0-46.653a2.071 2.071 0 0 1 0-4.14 2.071 2.071 0 1 1 0 4.14zm0-46.655a2.072 2.072 0 0 1-2.075-2.07c0-1.142.929-2.068 2.075-2.068 1.146 0 2.075.926 2.075 2.068 0 1.144-.929 2.07-2.075 2.07zm0-46.652a2.072 2.072 0 0 1-2.075-2.071c0-1.143.929-2.07 2.075-2.07 1.146 0 2.075.927 2.075 2.07a2.072 2.072 0 0 1-2.075 2.071zm0-46.654a2.073 2.073 0 0 1-2.075-2.07c0-1.143.929-2.07 2.075-2.07 1.146 0 2.075.927 2.075 2.07 0 1.143-.929 2.07-2.075 2.07zm0-46.652a2.073 2.073 0 0 1-2.075-2.071c0-1.143.929-2.069 2.075-2.069 1.146 0 2.075.926 2.075 2.069a2.073 2.073 0 0 1-2.075 2.071zm-11.693 489.858a2.072 2.072 0 0 1-2.077-2.07c0-1.141.929-2.07 2.077-2.07 1.145 0 2.074.929 2.074 2.07 0 1.144-.929 2.07-2.074 2.07zm0-46.653a2.072 2.072 0 0 1-2.077-2.07c0-1.143.929-2.069 2.077-2.069 1.145 0 2.074.926 2.074 2.069 0 1.145-.929 2.07-2.074 2.07zm0-46.653a2.073 2.073 0 0 1-2.077-2.07c0-1.142.929-2.07 2.077-2.07 1.145 0 2.074.928 2.074 2.07 0 1.143-.929 2.07-2.074 2.07zm0-46.653a2.073 2.073 0 0 1-2.077-2.069c0-1.144.929-2.071 2.077-2.071 1.145 0 2.074.927 2.074 2.071a2.072 2.072 0 0 1-2.074 2.069zm0-46.653a2.073 2.073 0 0 1-2.077-2.07c0-1.145.929-2.07 2.077-2.07a2.071 2.071 0 1 1 0 4.14zm0-46.655a2.072 2.072 0 0 1-2.077-2.07c0-1.141.929-2.068 2.077-2.068 1.145 0 2.074.927 2.074 2.068 0 1.144-.929 2.07-2.074 2.07zm0-46.653a2.072 2.072 0 0 1-2.077-2.069c0-1.143.929-2.07 2.077-2.07 1.145 0 2.074.927 2.074 2.07a2.07 2.07 0 0 1-2.074 2.069zm0-46.653a2.072 2.072 0 0 1-2.077-2.069c0-1.143.929-2.071 2.077-2.071 1.145 0 2.074.928 2.074 2.071a2.072 2.072 0 0 1-2.074 2.069zm0-46.652a2.074 2.074 0 0 1-2.077-2.07c0-1.143.929-2.07 2.077-2.07 1.145 0 2.074.927 2.074 2.07 0 1.142-.929 2.07-2.074 2.07zm0-46.654a2.072 2.072 0 0 1-2.077-2.07c0-1.144.929-2.069 2.077-2.069a2.07 2.07 0 0 1 2.074 2.069c0 1.144-.929 2.07-2.074 2.07zm0-46.654a2.073 2.073 0 0 1-2.077-2.068c0-1.144.929-2.07 2.077-2.07 1.145 0 2.074.926 2.074 2.07a2.072 2.072 0 0 1-2.074 2.068zm-11.695 443.207a2.073 2.073 0 0 1-2.077-2.069c0-1.144.93-2.07 2.077-2.07 1.147 0 2.076.926 2.076 2.07a2.072 2.072 0 0 1-2.076 2.069zm0-46.653a2.073 2.073 0 0 1-2.077-2.069c0-1.145.93-2.071 2.077-2.071 1.147 0 2.076.926 2.076 2.071a2.072 2.072 0 0 1-2.076 2.069zm0-46.654a2.073 2.073 0 0 1-2.077-2.07c0-1.141.93-2.07 2.077-2.07 1.147 0 2.076.929 2.076 2.07 0 1.144-.929 2.07-2.076 2.07zm0-46.654a2.072 2.072 0 0 1-2.077-2.069c0-1.143.93-2.07 2.077-2.07 1.147 0 2.076.927 2.076 2.07a2.071 2.071 0 0 1-2.076 2.069zm0-46.652a2.074 2.074 0 0 1-2.077-2.07c0-1.143.93-2.07 2.077-2.07 1.147 0 2.076.927 2.076 2.07 0 1.143-.929 2.07-2.076 2.07zm0-46.653a2.074 2.074 0 0 1-2.077-2.07c0-1.143.93-2.07 2.077-2.07 1.147 0 2.076.927 2.076 2.07 0 1.142-.929 2.07-2.076 2.07zm0-46.653a2.074 2.074 0 0 1-2.077-2.071c0-1.144.93-2.069 2.077-2.069 1.147 0 2.076.925 2.076 2.069a2.073 2.073 0 0 1-2.076 2.071zm0-46.655a2.073 2.073 0 0 1-2.077-2.07c0-1.142.93-2.068 2.077-2.068 1.147 0 2.076.926 2.076 2.068 0 1.144-.929 2.07-2.076 2.07zm0-46.652a2.073 2.073 0 0 1-2.077-2.071c0-1.143.93-2.07 2.077-2.07 1.147 0 2.076.927 2.076 2.07a2.072 2.072 0 0 1-2.076 2.071zm0-46.654a2.074 2.074 0 0 1-2.077-2.07c0-1.143.93-2.07 2.077-2.07 1.147 0 2.076.927 2.076 2.07 0 1.143-.929 2.07-2.076 2.07zm0-46.652a2.075 2.075 0 0 1-2.077-2.071c0-1.143.93-2.069 2.077-2.069 1.147 0 2.076.926 2.076 2.069a2.074 2.074 0 0 1-2.076 2.071zm-11.695 489.858a2.073 2.073 0 0 1-2.075-2.07 2.076 2.076 0 1 1 4.152 0c0 1.144-.931 2.07-2.077 2.07zm0-46.653a2.072 2.072 0 0 1-2.075-2.07c0-1.143.93-2.069 2.075-2.069 1.146 0 2.077.926 2.077 2.069 0 1.145-.931 2.07-2.077 2.07zm0-46.653a2.073 2.073 0 0 1-2.075-2.07c0-1.142.93-2.07 2.075-2.07 1.146 0 2.077.928 2.077 2.07 0 1.143-.931 2.07-2.077 2.07zm0-46.653a2.073 2.073 0 0 1-2.075-2.069c0-1.144.93-2.071 2.075-2.071 1.146 0 2.077.927 2.077 2.071a2.074 2.074 0 0 1-2.077 2.069zm0-46.653a2.073 2.073 0 0 1-2.075-2.07c0-1.145.93-2.07 2.075-2.07 1.146 0 2.077.925 2.077 2.07 0 1.143-.931 2.07-2.077 2.07zm0-46.655a2.073 2.073 0 0 1-2.075-2.07c0-1.141.93-2.068 2.075-2.068 1.146 0 2.077.927 2.077 2.068 0 1.144-.931 2.07-2.077 2.07zm0-46.653a2.072 2.072 0 0 1-2.075-2.069c0-1.143.93-2.07 2.075-2.07 1.146 0 2.077.927 2.077 2.07a2.073 2.073 0 0 1-2.077 2.069zm0-46.653a2.072 2.072 0 0 1-2.075-2.069c0-1.143.93-2.071 2.075-2.071 1.146 0 2.077.928 2.077 2.071a2.074 2.074 0 0 1-2.077 2.069zm0-46.652a2.074 2.074 0 0 1-2.075-2.07c0-1.143.93-2.07 2.075-2.07 1.146 0 2.077.927 2.077 2.07 0 1.142-.931 2.07-2.077 2.07zm0-46.654a2.073 2.073 0 0 1-2.075-2.07c0-1.144.93-2.069 2.075-2.069 1.146 0 2.077.925 2.077 2.069s-.931 2.07-2.077 2.07zm0-46.654a2.073 2.073 0 0 1-2.075-2.068c0-1.144.93-2.07 2.075-2.07 1.146 0 2.077.926 2.077 2.07a2.074 2.074 0 0 1-2.077 2.068zm-11.694 443.207a2.072 2.072 0 0 1-2.075-2.069c0-1.144.93-2.07 2.075-2.07 1.147 0 2.076.926 2.076 2.07a2.072 2.072 0 0 1-2.076 2.069zm0-46.653a2.072 2.072 0 0 1-2.075-2.069c0-1.145.93-2.071 2.075-2.071 1.147 0 2.076.926 2.076 2.071a2.072 2.072 0 0 1-2.076 2.069zm0-46.654a2.073 2.073 0 0 1-2.075-2.07c0-1.141.93-2.07 2.075-2.07 1.147 0 2.076.929 2.076 2.07 0 1.144-.929 2.07-2.076 2.07zm0-46.654a2.072 2.072 0 0 1-2.075-2.069c0-1.143.93-2.07 2.075-2.07 1.147 0 2.076.927 2.076 2.07a2.071 2.071 0 0 1-2.076 2.069zm0-46.652a2.073 2.073 0 0 1-2.075-2.07c0-1.143.93-2.07 2.075-2.07 1.147 0 2.076.927 2.076 2.07 0 1.143-.929 2.07-2.076 2.07zm0-46.653a2.074 2.074 0 0 1-2.075-2.07c0-1.143.93-2.07 2.075-2.07 1.147 0 2.076.927 2.076 2.07 0 1.142-.929 2.07-2.076 2.07zm0-46.653a2.073 2.073 0 0 1-2.075-2.071c0-1.144.93-2.069 2.075-2.069 1.147 0 2.076.925 2.076 2.069a2.073 2.073 0 0 1-2.076 2.071zm0-46.655a2.073 2.073 0 0 1-2.075-2.07c0-1.142.93-2.068 2.075-2.068 1.147 0 2.076.926 2.076 2.068 0 1.144-.929 2.07-2.076 2.07zm0-46.652a2.073 2.073 0 0 1-2.075-2.071c0-1.143.93-2.07 2.075-2.07 1.147 0 2.076.927 2.076 2.07a2.072 2.072 0 0 1-2.076 2.071zm0-46.654a2.073 2.073 0 0 1-2.075-2.07c0-1.143.93-2.07 2.075-2.07 1.147 0 2.076.927 2.076 2.07 0 1.143-.929 2.07-2.076 2.07zm0-46.652a2.074 2.074 0 0 1-2.075-2.071c0-1.143.93-2.069 2.075-2.069 1.147 0 2.076.926 2.076 2.069a2.074 2.074 0 0 1-2.076 2.071zm-11.693 489.858a2.072 2.072 0 0 1-2.076-2.07c0-1.141.929-2.07 2.076-2.07 1.145 0 2.074.929 2.074 2.07 0 1.144-.929 2.07-2.074 2.07zm0-46.653a2.072 2.072 0 0 1-2.076-2.07c0-1.143.929-2.069 2.076-2.069 1.145 0 2.074.926 2.074 2.069 0 1.145-.929 2.07-2.074 2.07zm0-46.653a2.073 2.073 0 0 1-2.076-2.07c0-1.142.929-2.07 2.076-2.07 1.145 0 2.074.928 2.074 2.07 0 1.143-.929 2.07-2.074 2.07zm0-46.653a2.073 2.073 0 0 1-2.076-2.069c0-1.144.929-2.071 2.076-2.071 1.145 0 2.074.927 2.074 2.071a2.072 2.072 0 0 1-2.074 2.069zm0-46.653a2.073 2.073 0 0 1-2.076-2.07c0-1.145.929-2.07 2.076-2.07a2.071 2.071 0 1 1 0 4.14zm0-46.655a2.072 2.072 0 0 1-2.076-2.07c0-1.141.929-2.068 2.076-2.068 1.145 0 2.074.927 2.074 2.068 0 1.144-.929 2.07-2.074 2.07zm0-46.653a2.071 2.071 0 0 1-2.076-2.069c0-1.143.929-2.07 2.076-2.07 1.145 0 2.074.927 2.074 2.07a2.07 2.07 0 0 1-2.074 2.069zm0-46.653a2.072 2.072 0 0 1-2.076-2.069c0-1.143.929-2.071 2.076-2.071 1.145 0 2.074.928 2.074 2.071a2.072 2.072 0 0 1-2.074 2.069zm0-46.652a2.074 2.074 0 0 1-2.076-2.07c0-1.143.929-2.07 2.076-2.07 1.145 0 2.074.927 2.074 2.07 0 1.142-.929 2.07-2.074 2.07zm0-46.654a2.072 2.072 0 0 1-2.076-2.07c0-1.144.929-2.069 2.076-2.069a2.07 2.07 0 0 1 2.074 2.069c0 1.144-.929 2.07-2.074 2.07zm0-46.654a2.072 2.072 0 0 1-2.076-2.068c0-1.144.929-2.07 2.076-2.07 1.145 0 2.074.926 2.074 2.07a2.072 2.072 0 0 1-2.074 2.068zm-11.694 443.207a2.072 2.072 0 0 1-2.077-2.069c0-1.144.929-2.07 2.077-2.07 1.145 0 2.074.926 2.074 2.07a2.072 2.072 0 0 1-2.074 2.069zm0-46.653a2.072 2.072 0 0 1-2.077-2.069c0-1.145.929-2.071 2.077-2.071 1.145 0 2.074.926 2.074 2.071a2.072 2.072 0 0 1-2.074 2.069zm0-46.654a2.072 2.072 0 0 1-2.077-2.07c0-1.141.929-2.07 2.077-2.07 1.145 0 2.074.929 2.074 2.07 0 1.144-.929 2.07-2.074 2.07zm0-46.654a2.072 2.072 0 0 1-2.077-2.069c0-1.143.929-2.07 2.077-2.07 1.145 0 2.074.927 2.074 2.07a2.07 2.07 0 0 1-2.074 2.069zm0-46.652a2.073 2.073 0 0 1-2.077-2.07c0-1.143.929-2.07 2.077-2.07 1.145 0 2.074.927 2.074 2.07 0 1.143-.929 2.07-2.074 2.07zm0-46.653a2.074 2.074 0 0 1-2.077-2.07c0-1.143.929-2.07 2.077-2.07 1.145 0 2.074.927 2.074 2.07 0 1.142-.929 2.07-2.074 2.07zm0-46.653a2.073 2.073 0 0 1-2.077-2.071c0-1.144.929-2.069 2.077-2.069a2.07 2.07 0 1 1 0 4.14zm0-46.655a2.072 2.072 0 0 1-2.077-2.07c0-1.142.929-2.068 2.077-2.068 1.145 0 2.074.926 2.074 2.068 0 1.144-.929 2.07-2.074 2.07zm0-46.652a2.073 2.073 0 0 1-2.077-2.071c0-1.143.929-2.07 2.077-2.07 1.145 0 2.074.927 2.074 2.07a2.072 2.072 0 0 1-2.074 2.071zm0-46.654a2.073 2.073 0 0 1-2.077-2.07c0-1.143.929-2.07 2.077-2.07 1.145 0 2.074.927 2.074 2.07 0 1.143-.929 2.07-2.074 2.07zm0-46.652a2.074 2.074 0 0 1-2.077-2.071c0-1.143.929-2.069 2.077-2.069 1.145 0 2.074.926 2.074 2.069a2.073 2.073 0 0 1-2.074 2.071zm-11.695 489.858a2.072 2.072 0 0 1-2.076-2.07c0-1.141.929-2.07 2.076-2.07 1.146 0 2.075.929 2.075 2.07 0 1.144-.929 2.07-2.075 2.07zm0-46.653a2.072 2.072 0 0 1-2.076-2.07c0-1.143.929-2.069 2.076-2.069 1.146 0 2.075.926 2.075 2.069 0 1.145-.929 2.07-2.075 2.07zm0-46.653a2.073 2.073 0 0 1-2.076-2.07c0-1.142.929-2.07 2.076-2.07 1.146 0 2.075.928 2.075 2.07 0 1.143-.929 2.07-2.075 2.07zm0-46.653a2.073 2.073 0 0 1-2.076-2.069c0-1.144.929-2.071 2.076-2.071 1.146 0 2.075.927 2.075 2.071a2.072 2.072 0 0 1-2.075 2.069zm0-46.653a2.073 2.073 0 0 1-2.076-2.07c0-1.145.929-2.07 2.076-2.07 1.146 0 2.075.925 2.075 2.07 0 1.143-.929 2.07-2.075 2.07zm0-46.655a2.072 2.072 0 0 1-2.076-2.07c0-1.141.929-2.068 2.076-2.068 1.146 0 2.075.927 2.075 2.068 0 1.144-.929 2.07-2.075 2.07zm0-46.653a2.071 2.071 0 0 1-2.076-2.069c0-1.143.929-2.07 2.076-2.07 1.146 0 2.075.927 2.075 2.07a2.071 2.071 0 0 1-2.075 2.069zm0-46.653a2.072 2.072 0 0 1-2.076-2.069c0-1.143.929-2.071 2.076-2.071 1.146 0 2.075.928 2.075 2.071a2.072 2.072 0 0 1-2.075 2.069zm0-46.652a2.074 2.074 0 0 1-2.076-2.07c0-1.143.929-2.07 2.076-2.07 1.146 0 2.075.927 2.075 2.07 0 1.142-.929 2.07-2.075 2.07zm0-46.654a2.072 2.072 0 0 1-2.076-2.07c0-1.144.929-2.069 2.076-2.069 1.146 0 2.075.925 2.075 2.069s-.929 2.07-2.075 2.07zm0-46.654a2.072 2.072 0 0 1-2.076-2.068c0-1.144.929-2.07 2.076-2.07 1.146 0 2.075.926 2.075 2.07a2.072 2.072 0 0 1-2.075 2.068zm-11.695 443.207a2.072 2.072 0 0 1-2.074-2.069c0-1.144.929-2.07 2.074-2.07 1.147 0 2.076.926 2.076 2.07a2.072 2.072 0 0 1-2.076 2.069zm0-46.653a2.072 2.072 0 0 1-2.074-2.069c0-1.145.929-2.071 2.074-2.071 1.147 0 2.076.926 2.076 2.071a2.072 2.072 0 0 1-2.076 2.069zm0-46.654a2.072 2.072 0 0 1-2.074-2.07c0-1.141.929-2.07 2.074-2.07 1.147 0 2.076.929 2.076 2.07 0 1.144-.929 2.07-2.076 2.07zm0-46.654a2.07 2.07 0 0 1-2.074-2.069c0-1.143.929-2.07 2.074-2.07 1.147 0 2.076.927 2.076 2.07a2.071 2.071 0 0 1-2.076 2.069zm0-46.652a2.072 2.072 0 0 1-2.074-2.07c0-1.143.929-2.07 2.074-2.07 1.147 0 2.076.927 2.076 2.07 0 1.143-.929 2.07-2.076 2.07zm0-46.653a2.073 2.073 0 0 1-2.074-2.07c0-1.143.929-2.07 2.074-2.07 1.147 0 2.076.927 2.076 2.07 0 1.142-.929 2.07-2.076 2.07zm0-46.653a2.07 2.07 0 0 1 0-4.14c1.147 0 2.076.925 2.076 2.069a2.073 2.073 0 0 1-2.076 2.071zm0-46.655a2.072 2.072 0 0 1-2.074-2.07c0-1.142.929-2.068 2.074-2.068 1.147 0 2.076.926 2.076 2.068 0 1.144-.929 2.07-2.076 2.07zm0-46.652a2.072 2.072 0 0 1-2.074-2.071c0-1.143.929-2.07 2.074-2.07 1.147 0 2.076.927 2.076 2.07a2.072 2.072 0 0 1-2.076 2.071zm0-46.654a2.072 2.072 0 0 1-2.074-2.07c0-1.143.929-2.07 2.074-2.07 1.147 0 2.076.927 2.076 2.07 0 1.143-.929 2.07-2.076 2.07zm0-46.652a2.073 2.073 0 0 1-2.074-2.071c0-1.143.929-2.069 2.074-2.069 1.147 0 2.076.926 2.076 2.069a2.074 2.074 0 0 1-2.076 2.071zm-11.694 489.858a2.074 2.074 0 0 1-2.076-2.07 2.075 2.075 0 0 1 4.151 0c0 1.144-.928 2.07-2.075 2.07zm0-46.653a2.073 2.073 0 0 1-2.076-2.07c0-1.143.931-2.069 2.076-2.069a2.07 2.07 0 0 1 0 4.139zm0-46.653a2.074 2.074 0 0 1-2.076-2.07c0-1.142.931-2.07 2.076-2.07 1.147 0 2.075.928 2.075 2.07 0 1.143-.928 2.07-2.075 2.07zm0-46.653a2.074 2.074 0 0 1-2.076-2.069c0-1.144.931-2.071 2.076-2.071 1.147 0 2.075.927 2.075 2.071a2.072 2.072 0 0 1-2.075 2.069zm0-46.653a2.074 2.074 0 0 1-2.076-2.07c0-1.145.931-2.07 2.076-2.07a2.07 2.07 0 1 1 0 4.14zm0-46.655a2.074 2.074 0 0 1-2.076-2.07c0-1.141.931-2.068 2.076-2.068 1.147 0 2.075.927 2.075 2.068 0 1.144-.928 2.07-2.075 2.07zm0-46.653a2.073 2.073 0 0 1-2.076-2.069c0-1.143.931-2.07 2.076-2.07a2.07 2.07 0 0 1 0 4.139zm0-46.653a2.073 2.073 0 0 1-2.076-2.069 2.075 2.075 0 0 1 4.151 0 2.071 2.071 0 0 1-2.075 2.069zm0-46.652a2.075 2.075 0 0 1-2.076-2.07c0-1.143.931-2.07 2.076-2.07 1.147 0 2.075.927 2.075 2.07 0 1.142-.928 2.07-2.075 2.07zm0-46.654a2.074 2.074 0 0 1-2.076-2.07c0-1.144.931-2.069 2.076-2.069a2.07 2.07 0 1 1 0 4.139zm0-46.654a2.074 2.074 0 0 1-2.076-2.068c0-1.144.931-2.07 2.076-2.07 1.147 0 2.075.926 2.075 2.07a2.072 2.072 0 0 1-2.075 2.068zm-11.694 443.207a2.072 2.072 0 0 1-2.075-2.069c0-1.144.929-2.07 2.075-2.07 1.146 0 2.076.926 2.076 2.07 0 1.143-.93 2.069-2.076 2.069zm0-46.653a2.072 2.072 0 0 1-2.075-2.069c0-1.145.929-2.071 2.075-2.071 1.146 0 2.076.926 2.076 2.071 0 1.143-.93 2.069-2.076 2.069zm0-46.654a2.072 2.072 0 0 1-2.075-2.07c0-1.141.929-2.07 2.075-2.07 1.146 0 2.076.929 2.076 2.07 0 1.144-.93 2.07-2.076 2.07zm0-46.654a2.071 2.071 0 0 1-2.075-2.069c0-1.143.929-2.07 2.075-2.07 1.146 0 2.076.927 2.076 2.07 0 1.144-.93 2.069-2.076 2.069zm0-46.652a2.073 2.073 0 0 1-2.075-2.07c0-1.143.929-2.07 2.075-2.07 1.146 0 2.076.927 2.076 2.07 0 1.143-.93 2.07-2.076 2.07zm0-46.653a2.073 2.073 0 0 1-2.075-2.07c0-1.143.929-2.07 2.075-2.07 1.146 0 2.076.927 2.076 2.07 0 1.142-.93 2.07-2.076 2.07zm0-46.653a2.071 2.071 0 0 1 0-4.14c1.146 0 2.076.925 2.076 2.069s-.93 2.071-2.076 2.071zm0-46.655a2.072 2.072 0 0 1-2.075-2.07c0-1.142.929-2.068 2.075-2.068 1.146 0 2.076.926 2.076 2.068 0 1.144-.93 2.07-2.076 2.07zm0-46.652a2.072 2.072 0 0 1-2.075-2.071c0-1.143.929-2.07 2.075-2.07 1.146 0 2.076.927 2.076 2.07 0 1.145-.93 2.071-2.076 2.071zm0-46.654a2.073 2.073 0 0 1-2.075-2.07c0-1.143.929-2.07 2.075-2.07 1.146 0 2.076.927 2.076 2.07 0 1.143-.93 2.07-2.076 2.07zm0-46.652a2.073 2.073 0 0 1-2.075-2.071c0-1.143.929-2.069 2.075-2.069 1.146 0 2.076.926 2.076 2.069 0 1.143-.93 2.071-2.076 2.071zm-11.693 489.858a2.072 2.072 0 0 1-2.077-2.07c0-1.141.929-2.07 2.077-2.07 1.145 0 2.074.929 2.074 2.07 0 1.144-.929 2.07-2.074 2.07zm0-46.653a2.072 2.072 0 0 1-2.077-2.07c0-1.143.929-2.069 2.077-2.069 1.145 0 2.074.926 2.074 2.069 0 1.145-.929 2.07-2.074 2.07zm0-46.653a2.073 2.073 0 0 1-2.077-2.07c0-1.142.929-2.07 2.077-2.07 1.145 0 2.074.928 2.074 2.07 0 1.143-.929 2.07-2.074 2.07zm0-46.653a2.073 2.073 0 0 1-2.077-2.069c0-1.144.929-2.071 2.077-2.071 1.145 0 2.074.927 2.074 2.071a2.072 2.072 0 0 1-2.074 2.069zm0-46.653a2.073 2.073 0 0 1-2.077-2.07c0-1.145.929-2.07 2.077-2.07a2.071 2.071 0 1 1 0 4.14zm0-46.655a2.072 2.072 0 0 1-2.077-2.07c0-1.141.929-2.068 2.077-2.068 1.145 0 2.074.927 2.074 2.068 0 1.144-.929 2.07-2.074 2.07zm0-46.653a2.072 2.072 0 0 1-2.077-2.069c0-1.143.929-2.07 2.077-2.07 1.145 0 2.074.927 2.074 2.07a2.07 2.07 0 0 1-2.074 2.069zm0-46.653a2.072 2.072 0 0 1-2.077-2.069c0-1.143.929-2.071 2.077-2.071 1.145 0 2.074.928 2.074 2.071a2.072 2.072 0 0 1-2.074 2.069zm0-46.652a2.074 2.074 0 0 1-2.077-2.07c0-1.143.929-2.07 2.077-2.07 1.145 0 2.074.927 2.074 2.07 0 1.142-.929 2.07-2.074 2.07zm0-46.654a2.072 2.072 0 0 1-2.077-2.07c0-1.144.929-2.069 2.077-2.069a2.07 2.07 0 0 1 2.074 2.069c0 1.144-.929 2.07-2.074 2.07zm0-46.654a2.073 2.073 0 0 1-2.077-2.068c0-1.144.929-2.07 2.077-2.07 1.145 0 2.074.926 2.074 2.07a2.072 2.072 0 0 1-2.074 2.068zm-11.695 443.207a2.072 2.072 0 0 1-2.076-2.069c0-1.144.929-2.07 2.076-2.07 1.146 0 2.075.926 2.075 2.07a2.072 2.072 0 0 1-2.075 2.069zm0-46.653a2.072 2.072 0 0 1-2.076-2.069c0-1.145.929-2.071 2.076-2.071 1.146 0 2.075.926 2.075 2.071a2.072 2.072 0 0 1-2.075 2.069zm0-46.654a2.072 2.072 0 0 1-2.076-2.07c0-1.141.929-2.07 2.076-2.07 1.146 0 2.075.929 2.075 2.07 0 1.144-.929 2.07-2.075 2.07zm0-46.654a2.071 2.071 0 0 1-2.076-2.069c0-1.143.929-2.07 2.076-2.07 1.146 0 2.075.927 2.075 2.07a2.071 2.071 0 0 1-2.075 2.069zm0-46.652a2.073 2.073 0 0 1-2.076-2.07c0-1.143.929-2.07 2.076-2.07 1.146 0 2.075.927 2.075 2.07 0 1.143-.929 2.07-2.075 2.07zm0-46.653a2.074 2.074 0 0 1-2.076-2.07c0-1.143.929-2.07 2.076-2.07 1.146 0 2.075.927 2.075 2.07 0 1.142-.929 2.07-2.075 2.07zm0-46.653a2.073 2.073 0 0 1-2.076-2.071c0-1.144.929-2.069 2.076-2.069a2.071 2.071 0 1 1 0 4.14zm0-46.655a2.072 2.072 0 0 1-2.076-2.07c0-1.142.929-2.068 2.076-2.068 1.146 0 2.075.926 2.075 2.068 0 1.144-.929 2.07-2.075 2.07zm0-46.652a2.072 2.072 0 0 1-2.076-2.071c0-1.143.929-2.07 2.076-2.07 1.146 0 2.075.927 2.075 2.07a2.072 2.072 0 0 1-2.075 2.071zm0-46.654a2.073 2.073 0 0 1-2.076-2.07c0-1.143.929-2.07 2.076-2.07 1.146 0 2.075.927 2.075 2.07 0 1.143-.929 2.07-2.075 2.07zm0-46.652a2.074 2.074 0 0 1-2.076-2.071c0-1.143.929-2.069 2.076-2.069 1.146 0 2.075.926 2.075 2.069a2.073 2.073 0 0 1-2.075 2.071zm-11.695 489.858a2.072 2.072 0 0 1-2.075-2.07c0-1.141.929-2.07 2.075-2.07 1.148 0 2.077.929 2.077 2.07 0 1.144-.929 2.07-2.077 2.07zm0-46.653a2.071 2.071 0 0 1-2.075-2.07c0-1.143.929-2.069 2.075-2.069 1.148 0 2.077.926 2.077 2.069 0 1.145-.929 2.07-2.077 2.07zm0-46.653a2.073 2.073 0 0 1-2.075-2.07c0-1.142.929-2.07 2.075-2.07 1.148 0 2.077.928 2.077 2.07 0 1.143-.929 2.07-2.077 2.07zm0-46.653a2.072 2.072 0 0 1-2.075-2.069c0-1.144.929-2.071 2.075-2.071 1.148 0 2.077.927 2.077 2.071a2.073 2.073 0 0 1-2.077 2.069zm0-46.653a2.073 2.073 0 0 1-2.075-2.07c0-1.145.929-2.07 2.075-2.07 1.148 0 2.077.925 2.077 2.07 0 1.143-.929 2.07-2.077 2.07zm0-46.655a2.072 2.072 0 0 1-2.075-2.07c0-1.141.929-2.068 2.075-2.068 1.148 0 2.077.927 2.077 2.068 0 1.144-.929 2.07-2.077 2.07zm0-46.653a2.071 2.071 0 0 1-2.075-2.069c0-1.143.929-2.07 2.075-2.07 1.148 0 2.077.927 2.077 2.07a2.072 2.072 0 0 1-2.077 2.069zm0-46.653a2.072 2.072 0 0 1-2.075-2.069c0-1.143.929-2.071 2.075-2.071 1.148 0 2.077.928 2.077 2.071a2.072 2.072 0 0 1-2.077 2.069zm0-46.652a2.073 2.073 0 0 1-2.075-2.07c0-1.143.929-2.07 2.075-2.07 1.148 0 2.077.927 2.077 2.07 0 1.142-.929 2.07-2.077 2.07zm0-46.654a2.072 2.072 0 0 1-2.075-2.07c0-1.144.929-2.069 2.075-2.069 1.148 0 2.077.925 2.077 2.069s-.929 2.07-2.077 2.07zm0-46.654a2.072 2.072 0 0 1-2.075-2.068c0-1.144.929-2.07 2.075-2.07 1.148 0 2.077.926 2.077 2.07a2.073 2.073 0 0 1-2.077 2.068zm-11.694 443.207a2.072 2.072 0 0 1-2.075-2.069c0-1.144.93-2.07 2.075-2.07 1.146 0 2.076.926 2.076 2.07 0 1.143-.93 2.069-2.076 2.069zm0-46.653a2.072 2.072 0 0 1-2.075-2.069c0-1.145.93-2.071 2.075-2.071 1.146 0 2.076.926 2.076 2.071 0 1.143-.93 2.069-2.076 2.069zm0-46.654a2.073 2.073 0 0 1-2.075-2.07 2.075 2.075 0 1 1 4.151 0c0 1.144-.93 2.07-2.076 2.07zm0-46.654a2.072 2.072 0 0 1-2.075-2.069c0-1.143.93-2.07 2.075-2.07 1.146 0 2.076.927 2.076 2.07 0 1.144-.93 2.069-2.076 2.069zm0-46.652a2.073 2.073 0 0 1-2.075-2.07c0-1.143.93-2.07 2.075-2.07 1.146 0 2.076.927 2.076 2.07 0 1.143-.93 2.07-2.076 2.07zm0-46.653a2.074 2.074 0 0 1-2.075-2.07c0-1.143.93-2.07 2.075-2.07 1.146 0 2.076.927 2.076 2.07 0 1.142-.93 2.07-2.076 2.07zm0-46.653a2.073 2.073 0 0 1-2.075-2.071c0-1.144.93-2.069 2.075-2.069 1.146 0 2.076.925 2.076 2.069s-.93 2.071-2.076 2.071zm0-46.655a2.073 2.073 0 0 1-2.075-2.07c0-1.142.93-2.068 2.075-2.068 1.146 0 2.076.926 2.076 2.068 0 1.144-.93 2.07-2.076 2.07zm0-46.652a2.073 2.073 0 0 1-2.075-2.071c0-1.143.93-2.07 2.075-2.07 1.146 0 2.076.927 2.076 2.07 0 1.145-.93 2.071-2.076 2.071zm0-46.654a2.073 2.073 0 0 1-2.075-2.07c0-1.143.93-2.07 2.075-2.07 1.146 0 2.076.927 2.076 2.07 0 1.143-.93 2.07-2.076 2.07zm0-46.652a2.074 2.074 0 0 1-2.075-2.071c0-1.143.93-2.069 2.075-2.069 1.146 0 2.076.926 2.076 2.069 0 1.143-.93 2.071-2.076 2.071zm-11.694 489.858a2.072 2.072 0 0 1-2.075-2.07 2.075 2.075 0 1 1 4.151 0c0 1.144-.931 2.07-2.076 2.07zm0-46.653a2.071 2.071 0 0 1-2.075-2.07c0-1.143.929-2.069 2.075-2.069 1.145 0 2.076.926 2.076 2.069 0 1.145-.931 2.07-2.076 2.07zm0-46.653a2.073 2.073 0 0 1-2.075-2.07c0-1.142.929-2.07 2.075-2.07 1.145 0 2.076.928 2.076 2.07 0 1.143-.931 2.07-2.076 2.07zm0-46.653a2.072 2.072 0 0 1-2.075-2.069c0-1.144.929-2.071 2.075-2.071 1.145 0 2.076.927 2.076 2.071a2.074 2.074 0 0 1-2.076 2.069zm0-46.653a2.073 2.073 0 0 1-2.075-2.07c0-1.145.929-2.07 2.075-2.07 1.145 0 2.076.925 2.076 2.07 0 1.143-.931 2.07-2.076 2.07zm0-46.655a2.072 2.072 0 0 1-2.075-2.07c0-1.141.929-2.068 2.075-2.068 1.145 0 2.076.927 2.076 2.068 0 1.144-.931 2.07-2.076 2.07zm0-46.653a2.071 2.071 0 0 1-2.075-2.069c0-1.143.929-2.07 2.075-2.07 1.145 0 2.076.927 2.076 2.07a2.073 2.073 0 0 1-2.076 2.069zm0-46.653a2.072 2.072 0 0 1-2.075-2.069 2.075 2.075 0 1 1 4.151 0 2.073 2.073 0 0 1-2.076 2.069zm0-46.652a2.073 2.073 0 0 1-2.075-2.07c0-1.143.929-2.07 2.075-2.07 1.145 0 2.076.927 2.076 2.07 0 1.142-.931 2.07-2.076 2.07zm0-46.654a2.072 2.072 0 0 1-2.075-2.07c0-1.144.929-2.069 2.075-2.069 1.145 0 2.076.925 2.076 2.069s-.931 2.07-2.076 2.07zm0-46.654a2.072 2.072 0 0 1-2.075-2.068c0-1.144.929-2.07 2.075-2.07 1.145 0 2.076.926 2.076 2.07a2.074 2.074 0 0 1-2.076 2.068zM154.1 470.672a2.072 2.072 0 0 1-2.077-2.069c0-1.144.929-2.07 2.077-2.07 1.145 0 2.074.926 2.074 2.07a2.072 2.072 0 0 1-2.074 2.069zm0-46.653a2.072 2.072 0 0 1-2.077-2.069c0-1.145.929-2.071 2.077-2.071 1.145 0 2.074.926 2.074 2.071a2.072 2.072 0 0 1-2.074 2.069zm0-46.654a2.072 2.072 0 0 1-2.077-2.07c0-1.141.929-2.07 2.077-2.07 1.145 0 2.074.929 2.074 2.07 0 1.144-.929 2.07-2.074 2.07zm0-46.654a2.072 2.072 0 0 1-2.077-2.069c0-1.143.929-2.07 2.077-2.07 1.145 0 2.074.927 2.074 2.07a2.07 2.07 0 0 1-2.074 2.069zm0-46.652a2.073 2.073 0 0 1-2.077-2.07c0-1.143.929-2.07 2.077-2.07 1.145 0 2.074.927 2.074 2.07 0 1.143-.929 2.07-2.074 2.07zm0-46.653a2.074 2.074 0 0 1-2.077-2.07c0-1.143.929-2.07 2.077-2.07 1.145 0 2.074.927 2.074 2.07 0 1.142-.929 2.07-2.074 2.07zm0-46.653a2.073 2.073 0 0 1-2.077-2.071c0-1.144.929-2.069 2.077-2.069a2.07 2.07 0 1 1 0 4.14zm0-46.655a2.072 2.072 0 0 1-2.077-2.07c0-1.142.929-2.068 2.077-2.068 1.145 0 2.074.926 2.074 2.068 0 1.144-.929 2.07-2.074 2.07zm0-46.652a2.073 2.073 0 0 1-2.077-2.071c0-1.143.929-2.07 2.077-2.07 1.145 0 2.074.927 2.074 2.07a2.072 2.072 0 0 1-2.074 2.071zm0-46.654a2.073 2.073 0 0 1-2.077-2.07c0-1.143.929-2.07 2.077-2.07 1.145 0 2.074.927 2.074 2.07 0 1.143-.929 2.07-2.074 2.07zm0-46.652a2.074 2.074 0 0 1-2.077-2.071c0-1.143.929-2.069 2.077-2.069 1.145 0 2.074.926 2.074 2.069A2.073 2.073 0 0 1 154.1 4.14zm-11.695 489.858a2.072 2.072 0 0 1-2.076-2.07c0-1.141.929-2.07 2.076-2.07 1.146 0 2.075.929 2.075 2.07 0 1.144-.929 2.07-2.075 2.07zm0-46.653a2.072 2.072 0 0 1-2.076-2.07c0-1.143.929-2.069 2.076-2.069 1.146 0 2.075.926 2.075 2.069 0 1.145-.929 2.07-2.075 2.07zm0-46.653a2.073 2.073 0 0 1-2.076-2.07c0-1.142.929-2.07 2.076-2.07 1.146 0 2.075.928 2.075 2.07 0 1.143-.929 2.07-2.075 2.07zm0-46.653a2.073 2.073 0 0 1-2.076-2.069c0-1.144.929-2.071 2.076-2.071 1.146 0 2.075.927 2.075 2.071a2.072 2.072 0 0 1-2.075 2.069zm0-46.653a2.073 2.073 0 0 1-2.076-2.07c0-1.145.929-2.07 2.076-2.07 1.146 0 2.075.925 2.075 2.07 0 1.143-.929 2.07-2.075 2.07zm0-46.655a2.072 2.072 0 0 1-2.076-2.07c0-1.141.929-2.068 2.076-2.068 1.146 0 2.075.927 2.075 2.068 0 1.144-.929 2.07-2.075 2.07zm0-46.653a2.071 2.071 0 0 1-2.076-2.069c0-1.143.929-2.07 2.076-2.07 1.146 0 2.075.927 2.075 2.07a2.071 2.071 0 0 1-2.075 2.069zm0-46.653a2.072 2.072 0 0 1-2.076-2.069c0-1.143.929-2.071 2.076-2.071 1.146 0 2.075.928 2.075 2.071a2.072 2.072 0 0 1-2.075 2.069zm0-46.652a2.074 2.074 0 0 1-2.076-2.07c0-1.143.929-2.07 2.076-2.07 1.146 0 2.075.927 2.075 2.07 0 1.142-.929 2.07-2.075 2.07zm0-46.654a2.072 2.072 0 0 1-2.076-2.07c0-1.144.929-2.069 2.076-2.069 1.146 0 2.075.925 2.075 2.069s-.929 2.07-2.075 2.07zm0-46.654a2.072 2.072 0 0 1-2.076-2.068c0-1.144.929-2.07 2.076-2.07 1.146 0 2.075.926 2.075 2.07a2.072 2.072 0 0 1-2.075 2.068zm-11.696 443.207a2.072 2.072 0 0 1-2.074-2.069c0-1.144.93-2.07 2.074-2.07 1.148 0 2.077.926 2.077 2.07a2.072 2.072 0 0 1-2.077 2.069zm0-46.653a2.072 2.072 0 0 1-2.074-2.069c0-1.145.93-2.071 2.074-2.071 1.148 0 2.077.926 2.077 2.071a2.072 2.072 0 0 1-2.077 2.069zm0-46.654a2.072 2.072 0 0 1-2.074-2.07c0-1.141.93-2.07 2.074-2.07 1.148 0 2.077.929 2.077 2.07 0 1.144-.929 2.07-2.077 2.07zm0-46.654a2.072 2.072 0 0 1-2.074-2.069c0-1.143.93-2.07 2.074-2.07 1.148 0 2.077.927 2.077 2.07a2.072 2.072 0 0 1-2.077 2.069zm0-46.652a2.073 2.073 0 0 1-2.074-2.07c0-1.143.93-2.07 2.074-2.07 1.148 0 2.077.927 2.077 2.07 0 1.143-.929 2.07-2.077 2.07zm0-46.653a2.074 2.074 0 0 1-2.074-2.07c0-1.143.93-2.07 2.074-2.07 1.148 0 2.077.927 2.077 2.07 0 1.142-.929 2.07-2.077 2.07zm0-46.653a2.073 2.073 0 0 1-2.074-2.071c0-1.144.93-2.069 2.074-2.069 1.148 0 2.077.925 2.077 2.069a2.073 2.073 0 0 1-2.077 2.071zm0-46.655a2.072 2.072 0 0 1-2.074-2.07c0-1.142.93-2.068 2.074-2.068 1.148 0 2.077.926 2.077 2.068 0 1.144-.929 2.07-2.077 2.07zm0-46.652a2.073 2.073 0 0 1-2.074-2.071c0-1.143.93-2.07 2.074-2.07 1.148 0 2.077.927 2.077 2.07a2.073 2.073 0 0 1-2.077 2.071zm0-46.654a2.073 2.073 0 0 1-2.074-2.07c0-1.143.93-2.07 2.074-2.07 1.148 0 2.077.927 2.077 2.07 0 1.143-.929 2.07-2.077 2.07zm0-46.652a2.074 2.074 0 0 1-2.074-2.071c0-1.143.93-2.069 2.074-2.069 1.148 0 2.077.926 2.077 2.069a2.074 2.074 0 0 1-2.077 2.071zm-11.693 489.858a2.074 2.074 0 0 1-2.076-2.07 2.075 2.075 0 0 1 4.151 0c0 1.144-.928 2.07-2.075 2.07zm0-46.653a2.073 2.073 0 0 1-2.076-2.07c0-1.143.931-2.069 2.076-2.069a2.07 2.07 0 0 1 0 4.139zm0-46.653a2.074 2.074 0 0 1-2.076-2.07c0-1.142.931-2.07 2.076-2.07 1.147 0 2.075.928 2.075 2.07 0 1.143-.928 2.07-2.075 2.07zm0-46.653a2.074 2.074 0 0 1-2.076-2.069c0-1.144.931-2.071 2.076-2.071 1.147 0 2.075.927 2.075 2.071a2.072 2.072 0 0 1-2.075 2.069zm0-46.653a2.074 2.074 0 0 1-2.076-2.07c0-1.145.931-2.07 2.076-2.07a2.07 2.07 0 1 1 0 4.14zm0-46.655a2.074 2.074 0 0 1-2.076-2.07c0-1.141.931-2.068 2.076-2.068 1.147 0 2.075.927 2.075 2.068 0 1.144-.928 2.07-2.075 2.07zm0-46.653a2.073 2.073 0 0 1-2.076-2.069c0-1.143.931-2.07 2.076-2.07a2.07 2.07 0 0 1 0 4.139zm0-46.653a2.073 2.073 0 0 1-2.076-2.069 2.075 2.075 0 0 1 4.151 0 2.071 2.071 0 0 1-2.075 2.069zm0-46.652a2.075 2.075 0 0 1-2.076-2.07c0-1.143.931-2.07 2.076-2.07 1.147 0 2.075.927 2.075 2.07 0 1.142-.928 2.07-2.075 2.07zm0-46.654a2.074 2.074 0 0 1-2.076-2.07c0-1.144.931-2.069 2.076-2.069a2.07 2.07 0 1 1 0 4.139zm0-46.654a2.074 2.074 0 0 1-2.076-2.068c0-1.144.931-2.07 2.076-2.07 1.147 0 2.075.926 2.075 2.07a2.072 2.072 0 0 1-2.075 2.068zm-11.694 443.207a2.072 2.072 0 0 1-2.075-2.069c0-1.144.929-2.07 2.075-2.07 1.146 0 2.076.926 2.076 2.07 0 1.143-.93 2.069-2.076 2.069zm0-46.653a2.072 2.072 0 0 1-2.075-2.069c0-1.145.929-2.071 2.075-2.071 1.146 0 2.076.926 2.076 2.071 0 1.143-.93 2.069-2.076 2.069zm0-46.654a2.072 2.072 0 0 1-2.075-2.07c0-1.141.929-2.07 2.075-2.07 1.146 0 2.076.929 2.076 2.07 0 1.144-.93 2.07-2.076 2.07zm0-46.654a2.071 2.071 0 0 1-2.075-2.069c0-1.143.929-2.07 2.075-2.07 1.146 0 2.076.927 2.076 2.07 0 1.144-.93 2.069-2.076 2.069zm0-46.652a2.073 2.073 0 0 1-2.075-2.07c0-1.143.929-2.07 2.075-2.07 1.146 0 2.076.927 2.076 2.07 0 1.143-.93 2.07-2.076 2.07zm0-46.653a2.073 2.073 0 0 1-2.075-2.07c0-1.143.929-2.07 2.075-2.07 1.146 0 2.076.927 2.076 2.07 0 1.142-.93 2.07-2.076 2.07zm0-46.653a2.071 2.071 0 0 1 0-4.14c1.146 0 2.076.925 2.076 2.069s-.93 2.071-2.076 2.071zm0-46.655a2.072 2.072 0 0 1-2.075-2.07c0-1.142.929-2.068 2.075-2.068 1.146 0 2.076.926 2.076 2.068 0 1.144-.93 2.07-2.076 2.07zm0-46.652a2.072 2.072 0 0 1-2.075-2.071c0-1.143.929-2.07 2.075-2.07 1.146 0 2.076.927 2.076 2.07 0 1.145-.93 2.071-2.076 2.071zm0-46.654a2.073 2.073 0 0 1-2.075-2.07c0-1.143.929-2.07 2.075-2.07 1.146 0 2.076.927 2.076 2.07 0 1.143-.93 2.07-2.076 2.07zm0-46.652a2.073 2.073 0 0 1-2.075-2.071c0-1.143.929-2.069 2.075-2.069 1.146 0 2.076.926 2.076 2.069 0 1.143-.93 2.071-2.076 2.071zM95.628 493.998a2.074 2.074 0 0 1-2.077-2.07 2.076 2.076 0 0 1 4.152 0c0 1.144-.929 2.07-2.075 2.07zm0-46.653a2.073 2.073 0 0 1-2.077-2.07c0-1.143.931-2.069 2.077-2.069s2.075.926 2.075 2.069c0 1.145-.929 2.07-2.075 2.07zm0-46.653a2.074 2.074 0 0 1-2.077-2.07c0-1.142.931-2.07 2.077-2.07s2.075.928 2.075 2.07c0 1.143-.929 2.07-2.075 2.07zm0-46.653a2.074 2.074 0 0 1-2.077-2.069c0-1.144.931-2.071 2.077-2.071s2.075.927 2.075 2.071a2.072 2.072 0 0 1-2.075 2.069zm0-46.653a2.074 2.074 0 0 1-2.077-2.07c0-1.145.931-2.07 2.077-2.07s2.075.925 2.075 2.07c0 1.143-.929 2.07-2.075 2.07zm0-46.655a2.074 2.074 0 0 1-2.077-2.07c0-1.141.931-2.068 2.077-2.068s2.075.927 2.075 2.068c0 1.144-.929 2.07-2.075 2.07zm0-46.653a2.073 2.073 0 0 1-2.077-2.069c0-1.143.931-2.07 2.077-2.07s2.075.927 2.075 2.07a2.071 2.071 0 0 1-2.075 2.069zm0-46.653a2.074 2.074 0 0 1-2.077-2.069c0-1.143.931-2.071 2.077-2.071s2.075.928 2.075 2.071a2.072 2.072 0 0 1-2.075 2.069zm0-46.652a2.075 2.075 0 0 1-2.077-2.07c0-1.143.931-2.07 2.077-2.07s2.075.927 2.075 2.07c0 1.142-.929 2.07-2.075 2.07zm0-46.654a2.074 2.074 0 0 1-2.077-2.07c0-1.144.931-2.069 2.077-2.069s2.075.925 2.075 2.069-.929 2.07-2.075 2.07zm0-46.654a2.074 2.074 0 0 1-2.077-2.068c0-1.144.931-2.07 2.077-2.07s2.075.926 2.075 2.07a2.072 2.072 0 0 1-2.075 2.068zM83.934 470.672a2.072 2.072 0 0 1-2.076-2.069c0-1.144.929-2.07 2.076-2.07 1.146 0 2.076.926 2.076 2.07 0 1.143-.93 2.069-2.076 2.069zm0-46.653a2.072 2.072 0 0 1-2.076-2.069c0-1.145.929-2.071 2.076-2.071 1.146 0 2.076.926 2.076 2.071 0 1.143-.93 2.069-2.076 2.069zm0-46.654a2.072 2.072 0 0 1-2.076-2.07c0-1.141.929-2.07 2.076-2.07 1.146 0 2.076.929 2.076 2.07 0 1.144-.93 2.07-2.076 2.07zm0-46.654a2.071 2.071 0 0 1-2.076-2.069c0-1.143.929-2.07 2.076-2.07 1.146 0 2.076.927 2.076 2.07 0 1.144-.93 2.069-2.076 2.069zm0-46.652a2.073 2.073 0 0 1-2.076-2.07c0-1.143.929-2.07 2.076-2.07 1.146 0 2.076.927 2.076 2.07 0 1.143-.93 2.07-2.076 2.07zm0-46.653a2.074 2.074 0 0 1-2.076-2.07c0-1.143.929-2.07 2.076-2.07 1.146 0 2.076.927 2.076 2.07 0 1.142-.93 2.07-2.076 2.07zm0-46.653a2.073 2.073 0 0 1-2.076-2.071c0-1.144.929-2.069 2.076-2.069 1.146 0 2.076.925 2.076 2.069s-.93 2.071-2.076 2.071zm0-46.655a2.072 2.072 0 0 1-2.076-2.07c0-1.142.929-2.068 2.076-2.068 1.146 0 2.076.926 2.076 2.068 0 1.144-.93 2.07-2.076 2.07zm0-46.652a2.072 2.072 0 0 1-2.076-2.071c0-1.143.929-2.07 2.076-2.07 1.146 0 2.076.927 2.076 2.07 0 1.145-.93 2.071-2.076 2.071zm0-46.654a2.073 2.073 0 0 1-2.076-2.07c0-1.143.929-2.07 2.076-2.07 1.146 0 2.076.927 2.076 2.07 0 1.143-.93 2.07-2.076 2.07zm0-46.652a2.074 2.074 0 0 1-2.076-2.071C81.858.926 82.787 0 83.934 0c1.146 0 2.076.926 2.076 2.069 0 1.143-.93 2.071-2.076 2.071zM72.239 493.998a2.072 2.072 0 0 1-2.075-2.07c0-1.141.929-2.07 2.075-2.07 1.148 0 2.077.929 2.077 2.07 0 1.144-.929 2.07-2.077 2.07zm0-46.653a2.071 2.071 0 0 1-2.075-2.07c0-1.143.929-2.069 2.075-2.069 1.148 0 2.077.926 2.077 2.069 0 1.145-.929 2.07-2.077 2.07zm0-46.653a2.073 2.073 0 0 1-2.075-2.07c0-1.142.929-2.07 2.075-2.07 1.148 0 2.077.928 2.077 2.07 0 1.143-.929 2.07-2.077 2.07zm0-46.653a2.072 2.072 0 0 1-2.075-2.069c0-1.144.929-2.071 2.075-2.071 1.148 0 2.077.927 2.077 2.071a2.073 2.073 0 0 1-2.077 2.069zm0-46.653a2.073 2.073 0 0 1-2.075-2.07c0-1.145.929-2.07 2.075-2.07 1.148 0 2.077.925 2.077 2.07 0 1.143-.929 2.07-2.077 2.07zm0-46.655a2.072 2.072 0 0 1-2.075-2.07c0-1.141.929-2.068 2.075-2.068 1.148 0 2.077.927 2.077 2.068 0 1.144-.929 2.07-2.077 2.07zm0-46.653a2.071 2.071 0 0 1-2.075-2.069c0-1.143.929-2.07 2.075-2.07 1.148 0 2.077.927 2.077 2.07a2.072 2.072 0 0 1-2.077 2.069zm0-46.653a2.072 2.072 0 0 1-2.075-2.069c0-1.143.929-2.071 2.075-2.071 1.148 0 2.077.928 2.077 2.071a2.072 2.072 0 0 1-2.077 2.069zm0-46.652a2.073 2.073 0 0 1-2.075-2.07c0-1.143.929-2.07 2.075-2.07 1.148 0 2.077.927 2.077 2.07 0 1.142-.929 2.07-2.077 2.07zm0-46.654a2.072 2.072 0 0 1-2.075-2.07c0-1.144.929-2.069 2.075-2.069 1.148 0 2.077.925 2.077 2.069s-.929 2.07-2.077 2.07zm0-46.654a2.072 2.072 0 0 1-2.075-2.068c0-1.144.929-2.07 2.075-2.07 1.148 0 2.077.926 2.077 2.07a2.073 2.073 0 0 1-2.077 2.068zM60.545 470.672a2.072 2.072 0 0 1-2.075-2.069c0-1.144.929-2.07 2.075-2.07 1.146 0 2.076.926 2.076 2.07 0 1.143-.93 2.069-2.076 2.069zm0-46.653a2.072 2.072 0 0 1-2.075-2.069c0-1.145.929-2.071 2.075-2.071 1.146 0 2.076.926 2.076 2.071 0 1.143-.93 2.069-2.076 2.069zm0-46.654a2.072 2.072 0 0 1-2.075-2.07c0-1.141.929-2.07 2.075-2.07 1.146 0 2.076.929 2.076 2.07 0 1.144-.93 2.07-2.076 2.07zm0-46.654a2.071 2.071 0 0 1-2.075-2.069c0-1.143.929-2.07 2.075-2.07 1.146 0 2.076.927 2.076 2.07 0 1.144-.93 2.069-2.076 2.069zm0-46.652a2.073 2.073 0 0 1-2.075-2.07c0-1.143.929-2.07 2.075-2.07 1.146 0 2.076.927 2.076 2.07 0 1.143-.93 2.07-2.076 2.07zm0-46.653a2.073 2.073 0 0 1-2.075-2.07c0-1.143.929-2.07 2.075-2.07 1.146 0 2.076.927 2.076 2.07 0 1.142-.93 2.07-2.076 2.07zm0-46.653a2.071 2.071 0 0 1 0-4.14c1.146 0 2.076.925 2.076 2.069s-.93 2.071-2.076 2.071zm0-46.655a2.072 2.072 0 0 1-2.075-2.07c0-1.142.929-2.068 2.075-2.068 1.146 0 2.076.926 2.076 2.068 0 1.144-.93 2.07-2.076 2.07zm0-46.652a2.072 2.072 0 0 1-2.075-2.071c0-1.143.929-2.07 2.075-2.07 1.146 0 2.076.927 2.076 2.07 0 1.145-.93 2.071-2.076 2.071zm0-46.654a2.073 2.073 0 0 1-2.075-2.07c0-1.143.929-2.07 2.075-2.07 1.146 0 2.076.927 2.076 2.07 0 1.143-.93 2.07-2.076 2.07zm0-46.652a2.073 2.073 0 0 1-2.075-2.071C58.47.926 59.399 0 60.545 0c1.146 0 2.076.926 2.076 2.069 0 1.143-.93 2.071-2.076 2.071zM48.851 493.998a2.072 2.072 0 0 1-2.075-2.07 2.075 2.075 0 1 1 4.151 0c0 1.144-.931 2.07-2.076 2.07zm0-46.653a2.071 2.071 0 0 1-2.075-2.07c0-1.143.929-2.069 2.075-2.069 1.145 0 2.076.926 2.076 2.069 0 1.145-.931 2.07-2.076 2.07zm0-46.653a2.073 2.073 0 0 1-2.075-2.07c0-1.142.929-2.07 2.075-2.07 1.145 0 2.076.928 2.076 2.07 0 1.143-.931 2.07-2.076 2.07zm0-46.653a2.072 2.072 0 0 1-2.075-2.069c0-1.144.929-2.071 2.075-2.071 1.145 0 2.076.927 2.076 2.071a2.074 2.074 0 0 1-2.076 2.069zm0-46.653a2.073 2.073 0 0 1-2.075-2.07c0-1.145.929-2.07 2.075-2.07 1.145 0 2.076.925 2.076 2.07 0 1.143-.931 2.07-2.076 2.07zm0-46.655a2.072 2.072 0 0 1-2.075-2.07c0-1.141.929-2.068 2.075-2.068 1.145 0 2.076.927 2.076 2.068 0 1.144-.931 2.07-2.076 2.07zm0-46.653a2.071 2.071 0 0 1-2.075-2.069c0-1.143.929-2.07 2.075-2.07 1.145 0 2.076.927 2.076 2.07a2.073 2.073 0 0 1-2.076 2.069zm0-46.653a2.072 2.072 0 0 1-2.075-2.069 2.075 2.075 0 1 1 4.151 0 2.073 2.073 0 0 1-2.076 2.069zm0-46.652a2.073 2.073 0 0 1-2.075-2.07c0-1.143.929-2.07 2.075-2.07 1.145 0 2.076.927 2.076 2.07 0 1.142-.931 2.07-2.076 2.07zm0-46.654a2.072 2.072 0 0 1-2.075-2.07c0-1.144.929-2.069 2.075-2.069 1.145 0 2.076.925 2.076 2.069s-.931 2.07-2.076 2.07zm0-46.654a2.072 2.072 0 0 1-2.075-2.068c0-1.144.929-2.07 2.075-2.07 1.145 0 2.076.926 2.076 2.07a2.074 2.074 0 0 1-2.076 2.068zM37.158 470.672a2.073 2.073 0 0 1-2.077-2.069c0-1.144.93-2.07 2.077-2.07 1.144 0 2.073.926 2.073 2.07a2.071 2.071 0 0 1-2.073 2.069zm0-46.653a2.073 2.073 0 0 1-2.077-2.069c0-1.145.93-2.071 2.077-2.071 1.144 0 2.073.926 2.073 2.071a2.071 2.071 0 0 1-2.073 2.069zm0-46.654a2.073 2.073 0 0 1-2.077-2.07 2.075 2.075 0 0 1 4.15 0c0 1.144-.929 2.07-2.073 2.07zm0-46.654a2.072 2.072 0 0 1-2.077-2.069c0-1.143.93-2.07 2.077-2.07a2.07 2.07 0 0 1 0 4.139zm0-46.652a2.074 2.074 0 0 1-2.077-2.07c0-1.143.93-2.07 2.077-2.07 1.144 0 2.073.927 2.073 2.07 0 1.143-.929 2.07-2.073 2.07zm0-46.653a2.074 2.074 0 0 1-2.077-2.07c0-1.143.93-2.07 2.077-2.07 1.144 0 2.073.927 2.073 2.07 0 1.142-.929 2.07-2.073 2.07zm0-46.653a2.074 2.074 0 0 1-2.077-2.071c0-1.144.93-2.069 2.077-2.069a2.07 2.07 0 1 1 0 4.14zm0-46.655a2.073 2.073 0 0 1-2.077-2.07c0-1.142.93-2.068 2.077-2.068 1.144 0 2.073.926 2.073 2.068 0 1.144-.929 2.07-2.073 2.07zm0-46.652a2.073 2.073 0 0 1-2.077-2.071c0-1.143.93-2.07 2.077-2.07 1.144 0 2.073.927 2.073 2.07a2.072 2.072 0 0 1-2.073 2.071zm0-46.654a2.074 2.074 0 0 1-2.077-2.07c0-1.143.93-2.07 2.077-2.07 1.144 0 2.073.927 2.073 2.07 0 1.143-.929 2.07-2.073 2.07zm0-46.652a2.075 2.075 0 0 1-2.077-2.071c0-1.143.93-2.069 2.077-2.069 1.144 0 2.073.926 2.073 2.069a2.073 2.073 0 0 1-2.073 2.071zM25.463 493.998a2.072 2.072 0 0 1-2.076-2.07c0-1.141.929-2.07 2.076-2.07 1.146 0 2.076.929 2.076 2.07 0 1.144-.93 2.07-2.076 2.07zm0-46.653a2.072 2.072 0 0 1-2.076-2.07c0-1.143.929-2.069 2.076-2.069 1.146 0 2.076.926 2.076 2.069 0 1.145-.93 2.07-2.076 2.07zm0-46.653a2.073 2.073 0 0 1-2.076-2.07c0-1.142.929-2.07 2.076-2.07 1.146 0 2.076.928 2.076 2.07 0 1.143-.93 2.07-2.076 2.07zm0-46.653a2.073 2.073 0 0 1-2.076-2.069c0-1.144.929-2.071 2.076-2.071 1.146 0 2.076.927 2.076 2.071 0 1.142-.93 2.069-2.076 2.069zm0-46.653a2.073 2.073 0 0 1-2.076-2.07c0-1.145.929-2.07 2.076-2.07 1.146 0 2.076.925 2.076 2.07 0 1.143-.93 2.07-2.076 2.07zm0-46.655a2.072 2.072 0 0 1-2.076-2.07c0-1.141.929-2.068 2.076-2.068 1.146 0 2.076.927 2.076 2.068 0 1.144-.93 2.07-2.076 2.07zm0-46.653a2.071 2.071 0 0 1-2.076-2.069c0-1.143.929-2.07 2.076-2.07 1.146 0 2.076.927 2.076 2.07 0 1.144-.93 2.069-2.076 2.069zm0-46.653a2.072 2.072 0 0 1-2.076-2.069c0-1.143.929-2.071 2.076-2.071 1.146 0 2.076.928 2.076 2.071 0 1.143-.93 2.069-2.076 2.069zm0-46.652a2.074 2.074 0 0 1-2.076-2.07c0-1.143.929-2.07 2.076-2.07 1.146 0 2.076.927 2.076 2.07 0 1.142-.93 2.07-2.076 2.07zm0-46.654a2.072 2.072 0 0 1-2.076-2.07c0-1.144.929-2.069 2.076-2.069 1.146 0 2.076.925 2.076 2.069s-.93 2.07-2.076 2.07zm0-46.654a2.072 2.072 0 0 1-2.076-2.068c0-1.144.929-2.07 2.076-2.07 1.146 0 2.076.926 2.076 2.07 0 1.141-.93 2.068-2.076 2.068zM13.767 470.672a2.072 2.072 0 0 1-2.074-2.069c0-1.144.929-2.07 2.074-2.07 1.148 0 2.077.926 2.077 2.07a2.072 2.072 0 0 1-2.077 2.069zm0-46.653a2.072 2.072 0 0 1-2.074-2.069c0-1.145.929-2.071 2.074-2.071 1.148 0 2.077.926 2.077 2.071a2.072 2.072 0 0 1-2.077 2.069zm0-46.654a2.072 2.072 0 0 1-2.074-2.07c0-1.141.929-2.07 2.074-2.07 1.148 0 2.077.929 2.077 2.07 0 1.144-.929 2.07-2.077 2.07zm0-46.654a2.07 2.07 0 0 1-2.074-2.069c0-1.143.929-2.07 2.074-2.07 1.148 0 2.077.927 2.077 2.07a2.072 2.072 0 0 1-2.077 2.069zm0-46.652a2.072 2.072 0 0 1-2.074-2.07c0-1.143.929-2.07 2.074-2.07 1.148 0 2.077.927 2.077 2.07 0 1.143-.929 2.07-2.077 2.07zm0-46.653a2.073 2.073 0 0 1-2.074-2.07c0-1.143.929-2.07 2.074-2.07 1.148 0 2.077.927 2.077 2.07 0 1.142-.929 2.07-2.077 2.07zm0-46.653a2.07 2.07 0 0 1 0-4.14c1.148 0 2.077.925 2.077 2.069a2.073 2.073 0 0 1-2.077 2.071zm0-46.655a2.072 2.072 0 0 1-2.074-2.07c0-1.142.929-2.068 2.074-2.068 1.148 0 2.077.926 2.077 2.068 0 1.144-.929 2.07-2.077 2.07zm0-46.652a2.072 2.072 0 0 1-2.074-2.071c0-1.143.929-2.07 2.074-2.07 1.148 0 2.077.927 2.077 2.07a2.073 2.073 0 0 1-2.077 2.071zm0-46.654a2.072 2.072 0 0 1-2.074-2.07c0-1.143.929-2.07 2.074-2.07 1.148 0 2.077.927 2.077 2.07 0 1.143-.929 2.07-2.077 2.07zm0-46.652a2.073 2.073 0 0 1-2.074-2.071C11.693.926 12.622 0 13.767 0c1.148 0 2.077.926 2.077 2.069a2.074 2.074 0 0 1-2.077 2.071zM2.073 493.998a2.072 2.072 0 0 1-2.074-2.07 2.074 2.074 0 0 1 4.15 0c0 1.144-.928 2.07-2.076 2.07zm0-46.653a2.072 2.072 0 0 1-2.074-2.07c0-1.143.93-2.069 2.074-2.069 1.148 0 2.076.926 2.076 2.069a2.07 2.07 0 0 1-2.076 2.07zm0-46.653a2.073 2.073 0 0 1-2.074-2.07c0-1.142.93-2.07 2.074-2.07 1.148 0 2.076.928 2.076 2.07 0 1.143-.928 2.07-2.076 2.07zm0-46.653a2.073 2.073 0 0 1-2.074-2.069c0-1.144.93-2.071 2.074-2.071 1.148 0 2.076.927 2.076 2.071a2.072 2.072 0 0 1-2.076 2.069zm0-46.653a2.073 2.073 0 0 1-2.074-2.07c0-1.145.93-2.07 2.074-2.07a2.07 2.07 0 1 1 0 4.14zm0-46.655a2.072 2.072 0 0 1-2.074-2.07c0-1.141.93-2.068 2.074-2.068 1.148 0 2.076.927 2.076 2.068 0 1.144-.928 2.07-2.076 2.07zm0-46.653a2.072 2.072 0 0 1-2.074-2.069c0-1.143.93-2.07 2.074-2.07 1.148 0 2.076.927 2.076 2.07a2.07 2.07 0 0 1-2.076 2.069zm0-46.653a2.072 2.072 0 0 1-2.074-2.069c0-1.143.93-2.071 2.074-2.071 1.148 0 2.076.928 2.076 2.071a2.071 2.071 0 0 1-2.076 2.069zm0-46.652a2.074 2.074 0 0 1-2.074-2.07c0-1.143.93-2.07 2.074-2.07 1.148 0 2.076.927 2.076 2.07 0 1.142-.928 2.07-2.076 2.07zm0-46.654a2.072 2.072 0 0 1-2.074-2.07c0-1.144.93-2.069 2.074-2.069a2.07 2.07 0 0 1 2.076 2.069c0 1.144-.928 2.07-2.076 2.07zm0-46.654a2.073 2.073 0 0 1-2.074-2.068c0-1.144.93-2.07 2.074-2.07 1.148 0 2.076.926 2.076 2.07a2.072 2.072 0 0 1-2.076 2.068zm502.852 439.068c1.146 0 2.075.926 2.075 2.07a2.072 2.072 0 0 1-2.075 2.069 2.072 2.072 0 0 1-2.076-2.069c0-1.144.929-2.07 2.076-2.07z"/>
</svg>
