<svg 
 xmlns="http://www.w3.org/2000/svg"
 xmlns:xlink="http://www.w3.org/1999/xlink"
 width="24px" height="24px">
<path fill-rule="evenodd"  fill="rgb(46, 66, 182)"
 d="M23.137,24.000 L6.734,24.000 C6.257,24.000 5.870,23.599 5.870,23.104 L5.870,17.910 L0.863,17.910 C0.386,17.910 -0.000,17.509 -0.000,17.015 L-0.000,0.895 C-0.000,0.400 0.386,-0.000 0.863,-0.000 L17.266,-0.000 C17.743,-0.000 18.129,0.400 18.129,0.895 L18.129,6.089 L23.137,6.089 C23.613,6.089 24.000,6.490 24.000,6.985 L24.000,23.104 C24.000,23.599 23.614,24.000 23.137,24.000 ZM16.403,1.791 L1.726,1.791 L1.726,16.119 L16.403,16.119 L16.403,1.791 ZM22.273,7.880 L18.129,7.880 L18.129,17.015 C18.129,17.509 17.743,17.910 17.266,17.910 L7.597,17.910 L7.597,22.209 L22.273,22.209 L22.273,7.880 Z"/>
</svg>