<svg xmlns="http://www.w3.org/2000/svg" width="30" height="25">
    <path fill-rule="evenodd" d="M28.945 16.697a.773.773 0 0 1-.084.013l-2.203.246a11.28 11.28 0 0 1-1.056 1.61c.569 1.739.049 3.67-1.362 4.859-1.827 1.592-4.576 1.494-6.382-.237l-.279-.271c-1.425.206-2.93.167-4.402-.115l-.483.456a4.656 4.656 0 0 1-3.225 1.305h-.127c-1.33-.042-2.508-.585-3.347-1.53-1.283-1.427-1.49-3.536-.577-5.229-1.058-1.613-1.614-3.435-1.614-5.307v-.457c0-.021 0-.041.002-.061a8.626 8.626 0 0 1 .495-2.374c-.086.005-.172.025-.259.025a3.97 3.97 0 0 1-2.855-1.213A4.178 4.178 0 0 1 0 5.483C0 4.378.421 3.336 1.187 2.55a.937.937 0 0 1 1.35 0 1 1 0 0 1 0 1.387 2.206 2.206 0 0 0-.627 1.546c0 .582.223 1.131.627 1.547.83.852 2.18.852 3.011 0 .056-.059.126-.091.192-.132 2.211-3.073 5.988-4.962 10.127-4.962.564 0 1.663.139 2.151.205.856-.424 3.39-1.613 4.842-1.578.775 0 1.415.573 1.5 1.363.045.319.014.713-.128 1.985l-.108.998c1.073.917 1.924 1.956 2.537 3.099l2.2.245A1.324 1.324 0 0 1 30 9.555v5.853c0 .622-.444 1.164-1.055 1.289zm-.855-6.558l-2.053-.228c-.379-.03-.611-.268-.691-.349a.968.968 0 0 1-.183-.264c-.557-1.175-1.428-2.235-2.589-3.151a1.11 1.11 0 0 1-.398-.984l.159-1.472c.036-.328.089-.797.116-1.133-1.182.198-3.341 1.188-3.796 1.445a.948.948 0 0 1-.464.124h-.063c-.046 0-.091-.004-.136-.01-.398-.059-1.642-.22-2.125-.22-3.823 0-7.284 1.841-9.038 4.804l-.423.808c-.411.878-.637 1.716-.692 2.562v.426c0 1.631.541 3.224 1.566 4.61a1.058 1.058 0 0 1 .003 1.338c-.741 1.021-.693 2.358.119 3.262.492.553 1.19.87 1.97.894h.098c.716 0 1.415-.283 1.919-.776l.801-.757a1.053 1.053 0 0 1 .954-.275c1.517.343 3.083.385 4.531.123a1.052 1.052 0 0 1 .923.291l.567.55c1.076 1.031 2.769 1.104 3.851.162.857-.722 1.131-1.964.677-2.985a1.049 1.049 0 0 1-.101-.791.992.992 0 0 1 .225-.451 9.21 9.21 0 0 0 1.35-2.037c.046-.092.105-.177.176-.251.206-.214.439-.333.693-.353l2.054-.229v-4.683zm-7.576 1.182a.936.936 0 0 1-.923-.948c0-.524.414-.948.923-.948.51 0 .923.424.923.948a.935.935 0 0 1-.923.948z"/>
</svg>
