<svg xmlns="http://www.w3.org/2000/svg" width="581" height="567">
    <path fill="#2A43D2" fill-rule="evenodd" d="M578.622 486.678a2.376 2.376 0 1 1 0-4.752 2.377 2.377 0 1 1 0 4.752zm0-53.549a2.376 2.376 0 1 1 0-4.752 2.377 2.377 0 0 1 0 4.752zm0-53.548a2.374 2.374 0 1 1 0-4.75 2.375 2.375 0 0 1 0 4.75zm0-53.546a2.377 2.377 0 1 1 0-4.752 2.378 2.378 0 0 1 2.378 2.376 2.377 2.377 0 0 1-2.378 2.376zm0-53.547a2.377 2.377 0 1 1 0-4.751 2.377 2.377 0 1 1 0 4.751zm0-53.547a2.376 2.376 0 1 1 0-4.751 2.375 2.375 0 1 1 0 4.751zm0-53.549a2.376 2.376 0 1 1 0-4.75 2.377 2.377 0 0 1 2.378 2.374 2.377 2.377 0 0 1-2.378 2.376zm0-53.546a2.376 2.376 0 1 1 0-4.752 2.377 2.377 0 0 1 0 4.752zm0-53.548a2.377 2.377 0 1 1 0-4.752A2.377 2.377 0 0 1 581 55.922a2.377 2.377 0 0 1-2.378 2.376zm0-53.547a2.377 2.377 0 1 1 0-4.752A2.377 2.377 0 0 1 581 2.375a2.377 2.377 0 0 1-2.378 2.376zm-13.4 562.247a2.378 2.378 0 0 1-2.381-2.375 2.379 2.379 0 1 1 4.759 0 2.377 2.377 0 0 1-2.378 2.375zm0-53.547a2.378 2.378 0 0 1-2.381-2.375 2.38 2.38 0 0 1 4.759 0 2.376 2.376 0 0 1-2.378 2.375zm0-53.547a2.38 2.38 0 0 1-2.381-2.376 2.38 2.38 0 0 1 4.759 0 2.377 2.377 0 0 1-2.378 2.376zm0-53.547a2.38 2.38 0 0 1-2.381-2.376 2.378 2.378 0 0 1 2.381-2.375 2.377 2.377 0 1 1 0 4.751zm0-53.548a2.378 2.378 0 0 1-2.381-2.375 2.379 2.379 0 0 1 4.759 0 2.377 2.377 0 0 1-2.378 2.375zm0-53.548a2.379 2.379 0 0 1-2.381-2.376 2.38 2.38 0 0 1 4.759 0 2.377 2.377 0 0 1-2.378 2.376zm0-53.548a2.377 2.377 0 0 1-2.381-2.375 2.38 2.38 0 0 1 4.759 0 2.375 2.375 0 0 1-2.378 2.375zm0-53.546a2.38 2.38 0 0 1-2.381-2.377 2.38 2.38 0 0 1 4.759 0 2.378 2.378 0 0 1-2.378 2.377zm0-53.548a2.38 2.38 0 0 1-2.381-2.375 2.379 2.379 0 0 1 2.381-2.376 2.377 2.377 0 1 1 0 4.751zm0-53.547a2.379 2.379 0 0 1-2.381-2.376 2.378 2.378 0 0 1 2.381-2.375 2.376 2.376 0 1 1 0 4.751zm0-53.548a2.38 2.38 0 0 1-2.381-2.375 2.38 2.38 0 0 1 4.759 0 2.377 2.377 0 0 1-2.378 2.375zm-13.403 508.701a2.376 2.376 0 0 1 0-4.751 2.378 2.378 0 0 1 2.381 2.376 2.378 2.378 0 0 1-2.381 2.375zm0-53.547a2.376 2.376 0 1 1 0-4.752 2.378 2.378 0 0 1 2.381 2.376 2.378 2.378 0 0 1-2.381 2.376zm0-53.549a2.375 2.375 0 1 1 0-4.752 2.38 2.38 0 0 1 2.381 2.377 2.378 2.378 0 0 1-2.381 2.375zm0-53.548a2.374 2.374 0 1 1 0-4.75 2.379 2.379 0 0 1 2.381 2.376 2.376 2.376 0 0 1-2.381 2.374zm0-53.546a2.376 2.376 0 0 1 0-4.752 2.38 2.38 0 0 1 2.381 2.376 2.379 2.379 0 0 1-2.381 2.376zm0-53.547a2.376 2.376 0 0 1 0-4.751 2.378 2.378 0 0 1 2.381 2.375 2.379 2.379 0 0 1-2.381 2.376zm0-53.547a2.376 2.376 0 1 1 0-4.751 2.377 2.377 0 1 1 0 4.751zm0-53.549a2.376 2.376 0 1 1 0-4.75 2.378 2.378 0 0 1 2.381 2.374 2.378 2.378 0 0 1-2.381 2.376zm0-53.546a2.376 2.376 0 1 1 0-4.752 2.379 2.379 0 0 1 2.381 2.376 2.378 2.378 0 0 1-2.381 2.376zm0-53.548a2.376 2.376 0 0 1 0-4.752 2.379 2.379 0 0 1 2.381 2.376 2.379 2.379 0 0 1-2.381 2.376zm0-53.547a2.376 2.376 0 0 1 0-4.752 2.379 2.379 0 0 1 2.381 2.376 2.379 2.379 0 0 1-2.381 2.376zm-13.4 562.247a2.377 2.377 0 0 1-2.378-2.375 2.378 2.378 0 1 1 4.756 0 2.375 2.375 0 0 1-2.378 2.375zm0-53.547a2.377 2.377 0 1 1 0-4.751 2.376 2.376 0 1 1 0 4.751zm0-53.547a2.378 2.378 0 0 1-2.378-2.376 2.378 2.378 0 0 1 4.756 0 2.376 2.376 0 0 1-2.378 2.376zm0-53.547a2.378 2.378 0 0 1-2.378-2.376 2.377 2.377 0 0 1 2.378-2.375 2.375 2.375 0 1 1 0 4.751zm0-53.548a2.377 2.377 0 1 1 2.378-2.375 2.375 2.375 0 0 1-2.378 2.375zm0-53.548a2.377 2.377 0 0 1-2.378-2.376 2.378 2.378 0 0 1 4.756 0 2.375 2.375 0 0 1-2.378 2.376zm0-53.548a2.376 2.376 0 1 1 0-4.751 2.376 2.376 0 1 1 0 4.751zm0-53.546a2.378 2.378 0 0 1-2.378-2.377 2.378 2.378 0 0 1 4.756 0 2.376 2.376 0 0 1-2.378 2.377zm0-53.548a2.378 2.378 0 0 1-2.378-2.375 2.377 2.377 0 0 1 4.756 0 2.376 2.376 0 0 1-2.378 2.375zm0-53.547a2.377 2.377 0 0 1 0-4.751 2.375 2.375 0 1 1 0 4.751zm0-53.548a2.378 2.378 0 0 1-2.378-2.375 2.378 2.378 0 0 1 4.756 0 2.376 2.376 0 0 1-2.378 2.375zm-13.401 508.701a2.377 2.377 0 0 1 0-4.751 2.377 2.377 0 1 1 0 4.751zm0-53.547a2.377 2.377 0 1 1 0-4.752 2.377 2.377 0 1 1 0 4.752zm0-53.549a2.377 2.377 0 1 1 0-4.752 2.377 2.377 0 0 1 0 4.752zm0-53.548a2.375 2.375 0 1 1 0-4.75 2.375 2.375 0 0 1 0 4.75zm0-53.546a2.377 2.377 0 0 1-2.378-2.376 2.378 2.378 0 0 1 4.756 0 2.377 2.377 0 0 1-2.378 2.376zm0-53.547a2.377 2.377 0 0 1 0-4.751 2.377 2.377 0 1 1 0 4.751zm0-53.547a2.377 2.377 0 1 1 0-4.751 2.375 2.375 0 1 1 0 4.751zm0-53.549a2.377 2.377 0 0 1-2.378-2.376 2.377 2.377 0 0 1 2.378-2.374 2.377 2.377 0 0 1 2.378 2.374 2.377 2.377 0 0 1-2.378 2.376zm0-53.546a2.377 2.377 0 1 1 0-4.752 2.377 2.377 0 0 1 0 4.752zm0-53.548a2.377 2.377 0 0 1-2.378-2.376 2.377 2.377 0 0 1 4.756 0 2.377 2.377 0 0 1-2.378 2.376zm0-53.547a2.377 2.377 0 0 1-2.378-2.376 2.377 2.377 0 0 1 4.756 0 2.377 2.377 0 0 1-2.378 2.376zm-13.401 562.247a2.376 2.376 0 1 1 0-4.752 2.38 2.38 0 0 1 2.378 2.377 2.377 2.377 0 0 1-2.378 2.375zm0-53.547a2.375 2.375 0 1 1 0-4.751 2.377 2.377 0 0 1 0 4.751zm0-53.547a2.377 2.377 0 1 1 0-4.752 2.378 2.378 0 0 1 2.378 2.376 2.378 2.378 0 0 1-2.378 2.376zm0-53.547a2.376 2.376 0 0 1 0-4.751 2.377 2.377 0 0 1 2.378 2.375 2.378 2.378 0 0 1-2.378 2.376zm0-53.548a2.376 2.376 0 1 1 0-4.752 2.377 2.377 0 0 1 0 4.752zm0-53.548a2.376 2.376 0 1 1 0-4.751 2.378 2.378 0 0 1 2.378 2.375 2.377 2.377 0 0 1-2.378 2.376zm0-53.548a2.375 2.375 0 1 1 0-4.751 2.376 2.376 0 0 1 0 4.751zm0-53.546a2.377 2.377 0 1 1 0-4.752 2.378 2.378 0 0 1 2.378 2.375 2.378 2.378 0 0 1-2.378 2.377zm0-53.548a2.377 2.377 0 1 1 0-4.751 2.377 2.377 0 0 1 2.378 2.376 2.378 2.378 0 0 1-2.378 2.375zm0-53.547a2.376 2.376 0 1 1 0-4.751 2.377 2.377 0 1 1 0 4.751zm0-53.548a2.377 2.377 0 1 1 0-4.751 2.378 2.378 0 0 1 2.378 2.376 2.378 2.378 0 0 1-2.378 2.375zm-13.4 508.701a2.378 2.378 0 0 1-2.381-2.375 2.378 2.378 0 0 1 2.381-2.376 2.377 2.377 0 1 1 0 4.751zm0-53.547a2.378 2.378 0 0 1-2.381-2.376 2.378 2.378 0 0 1 2.381-2.376 2.377 2.377 0 1 1 0 4.752zm0-53.549a2.378 2.378 0 0 1-2.381-2.375 2.38 2.38 0 0 1 4.759 0 2.377 2.377 0 0 1-2.378 2.375zm0-53.548a2.376 2.376 0 0 1-2.381-2.374 2.379 2.379 0 0 1 2.381-2.376 2.375 2.375 0 0 1 0 4.75zm0-53.546a2.379 2.379 0 0 1-2.381-2.376 2.38 2.38 0 0 1 4.759 0 2.377 2.377 0 0 1-2.378 2.376zm0-53.547a2.379 2.379 0 0 1-2.381-2.376 2.378 2.378 0 0 1 2.381-2.375 2.377 2.377 0 1 1 0 4.751zm0-53.547a2.377 2.377 0 0 1 0-4.751 2.375 2.375 0 1 1 0 4.751zm0-53.549a2.378 2.378 0 0 1-2.381-2.376 2.378 2.378 0 0 1 2.381-2.374 2.377 2.377 0 0 1 2.378 2.374 2.377 2.377 0 0 1-2.378 2.376zm0-53.546a2.378 2.378 0 0 1-2.381-2.376 2.379 2.379 0 0 1 2.381-2.376 2.377 2.377 0 0 1 0 4.752zm0-53.548a2.379 2.379 0 0 1-2.381-2.376 2.379 2.379 0 0 1 2.381-2.376 2.377 2.377 0 0 1 2.378 2.376 2.377 2.377 0 0 1-2.378 2.376zm0-53.547a2.379 2.379 0 0 1-2.381-2.376 2.379 2.379 0 0 1 2.381-2.376 2.377 2.377 0 0 1 2.378 2.376 2.377 2.377 0 0 1-2.378 2.376zm-13.402 562.247a2.377 2.377 0 1 1 0-4.752 2.38 2.38 0 0 1 2.38 2.377 2.378 2.378 0 0 1-2.38 2.375zm0-53.547a2.376 2.376 0 1 1 0-4.751 2.38 2.38 0 0 1 2.38 2.376 2.378 2.378 0 0 1-2.38 2.375zm0-53.547a2.377 2.377 0 0 1-2.378-2.376 2.38 2.38 0 0 1 4.758 0 2.38 2.38 0 0 1-2.38 2.376zm0-53.547a2.377 2.377 0 0 1 0-4.751 2.378 2.378 0 0 1 2.38 2.375 2.38 2.38 0 0 1-2.38 2.376zm0-53.548a2.377 2.377 0 1 1 0-4.752 2.379 2.379 0 0 1 2.38 2.377 2.378 2.378 0 0 1-2.38 2.375zm0-53.548a2.377 2.377 0 1 1 0-4.751 2.379 2.379 0 0 1 2.38 2.375 2.378 2.378 0 0 1-2.38 2.376zm0-53.548a2.375 2.375 0 1 1 0-4.751 2.38 2.38 0 0 1 2.38 2.376 2.377 2.377 0 0 1-2.38 2.375zm0-53.546a2.377 2.377 0 0 1 0-4.752 2.379 2.379 0 0 1 2.38 2.375 2.38 2.38 0 0 1-2.38 2.377zm0-53.548a2.377 2.377 0 0 1 0-4.751 2.378 2.378 0 0 1 2.38 2.376 2.379 2.379 0 0 1-2.38 2.375zm0-53.547a2.377 2.377 0 1 1 0-4.751 2.378 2.378 0 0 1 2.38 2.375 2.378 2.378 0 0 1-2.38 2.376zm0-53.548a2.377 2.377 0 0 1-2.378-2.375 2.38 2.38 0 0 1 4.758 0 2.379 2.379 0 0 1-2.38 2.375zm-13.401 508.701a2.378 2.378 0 0 1-2.379-2.375 2.378 2.378 0 0 1 2.379-2.376 2.377 2.377 0 1 1 0 4.751zm0-53.547a2.378 2.378 0 0 1-2.379-2.376 2.378 2.378 0 0 1 2.379-2.376 2.377 2.377 0 1 1 0 4.752zm0-53.549a2.377 2.377 0 0 1-2.379-2.375 2.38 2.38 0 0 1 4.757 0 2.377 2.377 0 0 1-2.378 2.375zm0-53.548a2.376 2.376 0 1 1 0-4.75 2.375 2.375 0 0 1 0 4.75zm0-53.546a2.378 2.378 0 0 1-2.379-2.376 2.379 2.379 0 0 1 4.757 0 2.377 2.377 0 0 1-2.378 2.376zm0-53.547a2.378 2.378 0 0 1-2.379-2.376 2.377 2.377 0 0 1 2.379-2.375 2.377 2.377 0 1 1 0 4.751zm0-53.547a2.376 2.376 0 0 1 0-4.751 2.375 2.375 0 1 1 0 4.751zm0-53.549a2.378 2.378 0 0 1-2.379-2.376 2.378 2.378 0 0 1 2.379-2.374 2.377 2.377 0 0 1 2.378 2.374 2.377 2.377 0 0 1-2.378 2.376zm0-53.546a2.378 2.378 0 0 1-2.379-2.376 2.378 2.378 0 0 1 4.757 0 2.377 2.377 0 0 1-2.378 2.376zm0-53.548a2.378 2.378 0 0 1-2.379-2.376 2.378 2.378 0 0 1 4.757 0 2.377 2.377 0 0 1-2.378 2.376zm0-53.547a2.378 2.378 0 0 1-2.379-2.376 2.378 2.378 0 0 1 4.757 0 2.377 2.377 0 0 1-2.378 2.376zm-13.4 562.247a2.377 2.377 0 1 1-.005-4.753 2.377 2.377 0 0 1 .005 4.753zm0-53.547a2.376 2.376 0 1 1 0-4.751 2.375 2.375 0 1 1 0 4.751zm0-53.547a2.378 2.378 0 0 1-2.379-2.376 2.378 2.378 0 0 1 4.755 0 2.377 2.377 0 0 1-2.376 2.376zm0-53.547a2.377 2.377 0 1 1 0 0zm0-53.548a2.377 2.377 0 1 1-.005-4.753 2.377 2.377 0 0 1 .005 4.753zm0-53.548a2.377 2.377 0 0 1-2.379-2.376 2.377 2.377 0 0 1 4.755 0 2.376 2.376 0 0 1-2.376 2.376zm0-53.548a2.375 2.375 0 1 1 0-4.751 2.375 2.375 0 1 1 0 4.751zm0-53.546a2.378 2.378 0 0 1-2.379-2.377 2.377 2.377 0 0 1 4.755 0 2.377 2.377 0 0 1-2.376 2.377zm0-53.548a2.377 2.377 0 0 1-2.379-2.375 2.377 2.377 0 0 1 4.755 0 2.377 2.377 0 0 1-2.376 2.375zm0-53.547a2.376 2.376 0 0 1 0-4.751 2.375 2.375 0 1 1 0 4.751zm0-53.548a2.377 2.377 0 0 1-2.379-2.375 2.378 2.378 0 0 1 4.755 0 2.377 2.377 0 0 1-2.376 2.375zm-13.401 508.701a2.378 2.378 0 0 1-2.38-2.375 2.377 2.377 0 0 1 2.38-2.376 2.377 2.377 0 1 1 0 4.751zm0-53.547a2.377 2.377 0 1 1 0-4.752 2.377 2.377 0 1 1 0 4.752zm0-53.549a2.377 2.377 0 1 1 0-4.752 2.376 2.376 0 0 1 0 4.752zm0-53.548a2.375 2.375 0 1 1 0-4.75 2.375 2.375 0 1 1 0 4.75zm0-53.546a2.378 2.378 0 0 1-2.38-2.376 2.378 2.378 0 0 1 4.757 0 2.377 2.377 0 0 1-2.377 2.376zm0-53.547a2.378 2.378 0 0 1-2.38-2.376 2.377 2.377 0 0 1 2.38-2.375 2.376 2.376 0 1 1 0 4.751zm0-53.547a2.376 2.376 0 0 1 0-4.751 2.375 2.375 0 1 1 0 4.751zm0-53.549a2.377 2.377 0 0 1-2.38-2.376 2.377 2.377 0 0 1 2.38-2.374 2.377 2.377 0 0 1 2.377 2.374 2.377 2.377 0 0 1-2.377 2.376zm0-53.546a2.377 2.377 0 1 1 0-4.752 2.377 2.377 0 0 1 0 4.752zm0-53.548a2.378 2.378 0 0 1-2.38-2.376 2.378 2.378 0 0 1 4.757 0 2.377 2.377 0 0 1-2.377 2.376zm0-53.547a2.378 2.378 0 0 1-2.38-2.376 2.378 2.378 0 0 1 4.757 0 2.377 2.377 0 0 1-2.377 2.376zm-13.402 562.247a2.378 2.378 0 0 1-2.38-2.375 2.38 2.38 0 0 1 4.758 0 2.377 2.377 0 0 1-2.378 2.375zm0-53.547a2.377 2.377 0 0 1-2.38-2.375 2.378 2.378 0 0 1 4.758 0 2.376 2.376 0 0 1-2.378 2.375zm0-53.547a2.378 2.378 0 0 1-2.38-2.376 2.378 2.378 0 0 1 4.758 0 2.377 2.377 0 0 1-2.378 2.376zm0-53.547a2.378 2.378 0 0 1-2.38-2.376 2.378 2.378 0 0 1 2.38-2.375 2.377 2.377 0 1 1 0 4.751zm0-53.548a2.378 2.378 0 0 1-2.38-2.375 2.378 2.378 0 0 1 2.38-2.377 2.377 2.377 0 1 1 0 4.752zm0-53.548a2.378 2.378 0 0 1-2.38-2.376 2.378 2.378 0 0 1 2.38-2.375 2.377 2.377 0 0 1 0 4.751zm0-53.548a2.376 2.376 0 1 1 0-4.751 2.375 2.375 0 1 1 0 4.751zm0-53.546a2.379 2.379 0 0 1-2.38-2.377 2.378 2.378 0 0 1 2.38-2.375 2.377 2.377 0 1 1 0 4.752zm0-53.548a2.378 2.378 0 0 1-2.38-2.375 2.378 2.378 0 0 1 2.38-2.376 2.377 2.377 0 1 1 0 4.751zm0-53.547a2.378 2.378 0 0 1-2.38-2.376 2.377 2.377 0 0 1 2.38-2.375 2.376 2.376 0 1 1 0 4.751zm0-53.548a2.378 2.378 0 0 1-2.38-2.375 2.378 2.378 0 0 1 4.758 0 2.377 2.377 0 0 1-2.378 2.375zm-13.402 508.701a2.377 2.377 0 0 1 0-4.751 2.378 2.378 0 0 1 2.38 2.376 2.378 2.378 0 0 1-2.38 2.375zm0-53.547a2.377 2.377 0 1 1 0-4.752 2.378 2.378 0 0 1 2.38 2.376 2.378 2.378 0 0 1-2.38 2.376zm0-53.549a2.376 2.376 0 1 1 0-4.752 2.38 2.38 0 0 1 2.38 2.377 2.378 2.378 0 0 1-2.38 2.375zm0-53.548a2.375 2.375 0 1 1 0-4.75 2.378 2.378 0 0 1 2.38 2.376 2.376 2.376 0 0 1-2.38 2.374zm0-53.546a2.377 2.377 0 0 1 0-4.752 2.38 2.38 0 0 1 2.38 2.376 2.378 2.378 0 0 1-2.38 2.376zm0-53.547a2.376 2.376 0 0 1 0-4.751 2.378 2.378 0 0 1 2.38 2.375 2.378 2.378 0 0 1-2.38 2.376zm0-53.547a2.377 2.377 0 1 1 0-4.751 2.376 2.376 0 1 1 0 4.751zm0-53.549a2.377 2.377 0 0 1-2.377-2.376 2.378 2.378 0 1 1 4.757 0 2.378 2.378 0 0 1-2.38 2.376zm0-53.546a2.377 2.377 0 1 1 0-4.752 2.378 2.378 0 0 1 2.38 2.376 2.378 2.378 0 0 1-2.38 2.376zm0-53.548a2.377 2.377 0 0 1 0-4.752 2.378 2.378 0 0 1 2.38 2.376 2.378 2.378 0 0 1-2.38 2.376zm0-53.547a2.377 2.377 0 0 1 0-4.752 2.378 2.378 0 0 1 2.38 2.376 2.378 2.378 0 0 1-2.38 2.376zm-13.401 562.247a2.377 2.377 0 0 1-2.378-2.375 2.38 2.38 0 0 1 4.757 0 2.376 2.376 0 0 1-2.379 2.375zm0-53.547a2.377 2.377 0 1 1 0-4.751 2.375 2.375 0 1 1 0 4.751zm0-53.547a2.378 2.378 0 0 1-2.378-2.376 2.378 2.378 0 0 1 4.757 0 2.377 2.377 0 0 1-2.379 2.376zm0-53.547a2.378 2.378 0 0 1-2.378-2.376 2.377 2.377 0 0 1 2.378-2.375 2.376 2.376 0 1 1 0 4.751zm0-53.548a2.377 2.377 0 1 1 0-4.752 2.377 2.377 0 1 1 0 4.752zm0-53.548a2.377 2.377 0 0 1-2.378-2.376 2.378 2.378 0 0 1 2.378-2.375 2.377 2.377 0 1 1 0 4.751zm0-53.548a2.376 2.376 0 1 1 0-4.751 2.375 2.375 0 1 1 0 4.751zm0-53.546a2.378 2.378 0 0 1-2.378-2.377 2.378 2.378 0 0 1 2.378-2.375 2.377 2.377 0 1 1 0 4.752zm0-53.548a2.378 2.378 0 0 1-2.378-2.375 2.377 2.377 0 0 1 2.378-2.376 2.376 2.376 0 1 1 0 4.751zm0-53.547a2.377 2.377 0 0 1 0-4.751 2.375 2.375 0 1 1 0 4.751zm0-53.548a2.378 2.378 0 0 1-2.378-2.375 2.378 2.378 0 0 1 4.757 0 2.377 2.377 0 0 1-2.379 2.375zm-13.4 508.701a2.377 2.377 0 0 1-2.379-2.375 2.377 2.377 0 0 1 2.379-2.376 2.377 2.377 0 1 1 0 4.751zm0-53.547a2.377 2.377 0 1 1 2.377-2.376 2.377 2.377 0 0 1-2.377 2.376zm0-53.549a2.377 2.377 0 1 1 0-4.752 2.376 2.376 0 0 1 0 4.752zm0-53.548a2.375 2.375 0 1 1 0-4.75 2.375 2.375 0 1 1 0 4.75zm0-53.546a2.378 2.378 0 0 1-2.379-2.376 2.378 2.378 0 0 1 4.756 0 2.377 2.377 0 0 1-2.377 2.376zm0-53.547a2.377 2.377 0 0 1 0-4.751 2.376 2.376 0 1 1 0 4.751zm0-53.547a2.375 2.375 0 1 1 0-4.751 2.375 2.375 0 1 1 0 4.751zm0-53.549a2.377 2.377 0 0 1-2.379-2.376 2.377 2.377 0 0 1 2.379-2.374 2.377 2.377 0 0 1 2.377 2.374 2.377 2.377 0 0 1-2.377 2.376zm0-53.546a2.377 2.377 0 1 1 2.377-2.376 2.377 2.377 0 0 1-2.377 2.376zm0-53.548a2.378 2.378 0 0 1-2.379-2.376 2.378 2.378 0 0 1 4.756 0 2.377 2.377 0 0 1-2.377 2.376zm0-53.547a2.378 2.378 0 0 1-2.379-2.376 2.378 2.378 0 0 1 4.756 0 2.377 2.377 0 0 1-2.377 2.376zm-13.401 562.247a2.377 2.377 0 1 1 0-4.752 2.377 2.377 0 0 1 0 4.752zm0-53.547a2.376 2.376 0 1 1 0-4.751 2.376 2.376 0 0 1 0 4.751zm0-53.547a2.378 2.378 0 0 1-2.38-2.376 2.378 2.378 0 0 1 2.38-2.376 2.377 2.377 0 0 1 2.378 2.376 2.377 2.377 0 0 1-2.378 2.376zm0-53.547a2.378 2.378 0 0 1-2.38-2.376 2.377 2.377 0 0 1 2.38-2.375 2.377 2.377 0 1 1 0 4.751zm0-53.548a2.377 2.377 0 1 1 0-4.752 2.377 2.377 0 1 1 0 4.752zm0-53.548a2.377 2.377 0 0 1-2.38-2.376 2.378 2.378 0 0 1 2.38-2.375 2.377 2.377 0 0 1 0 4.751zm0-53.548a2.376 2.376 0 1 1 0-4.751 2.375 2.375 0 1 1 0 4.751zm0-53.546a2.378 2.378 0 0 1-2.38-2.377 2.378 2.378 0 0 1 2.38-2.375 2.377 2.377 0 1 1 0 4.752zm0-53.548a2.378 2.378 0 0 1-2.38-2.375 2.377 2.377 0 0 1 2.38-2.376 2.377 2.377 0 1 1 0 4.751zm0-53.547a2.376 2.376 0 0 1 0-4.751 2.376 2.376 0 1 1 0 4.751zm0-53.548a2.378 2.378 0 0 1-2.38-2.375 2.378 2.378 0 0 1 2.38-2.376 2.377 2.377 0 0 1 2.378 2.376 2.377 2.377 0 0 1-2.378 2.375zm-13.401 508.701a2.378 2.378 0 0 1-2.38-2.375 2.377 2.377 0 0 1 2.38-2.376 2.376 2.376 0 1 1 0 4.751zm0-53.547a2.377 2.377 0 1 1 0-4.752 2.376 2.376 0 1 1 0 4.752zm0-53.549a2.377 2.377 0 1 1 0-4.752 2.376 2.376 0 1 1 0 4.752zm0-53.548a2.375 2.375 0 1 1 0-4.75 2.374 2.374 0 1 1 0 4.75zm0-53.546a2.378 2.378 0 0 1-2.38-2.376 2.378 2.378 0 0 1 4.758 0 2.377 2.377 0 0 1-2.378 2.376zm0-53.547a2.378 2.378 0 0 1-2.38-2.376 2.377 2.377 0 0 1 2.38-2.375 2.376 2.376 0 1 1 0 4.751zm0-53.547a2.376 2.376 0 0 1 0-4.751 2.375 2.375 0 1 1 0 4.751zm0-53.549a2.377 2.377 0 0 1-2.38-2.376 2.377 2.377 0 0 1 2.38-2.374 2.376 2.376 0 0 1 0 4.75zm0-53.546a2.377 2.377 0 1 1 0-4.752 2.377 2.377 0 1 1 0 4.752zm0-53.548a2.378 2.378 0 0 1-2.38-2.376 2.378 2.378 0 0 1 2.38-2.376 2.377 2.377 0 1 1 0 4.752zm0-53.547a2.378 2.378 0 0 1-2.38-2.376 2.378 2.378 0 0 1 2.38-2.376 2.377 2.377 0 1 1 0 4.752zm-13.402 562.247a2.377 2.377 0 1 1 0-4.752 2.38 2.38 0 0 1 2.38 2.377 2.378 2.378 0 0 1-2.38 2.375zm0-53.547a2.376 2.376 0 1 1 0-4.751 2.38 2.38 0 0 1 2.38 2.376 2.378 2.378 0 0 1-2.38 2.375zm0-53.547a2.377 2.377 0 0 1-2.378-2.376 2.38 2.38 0 0 1 4.758 0 2.38 2.38 0 0 1-2.38 2.376zm0-53.547a2.377 2.377 0 0 1 0-4.751 2.378 2.378 0 0 1 2.38 2.375 2.38 2.38 0 0 1-2.38 2.376zm0-53.548a2.377 2.377 0 1 1 0-4.752 2.379 2.379 0 0 1 2.38 2.377 2.378 2.378 0 0 1-2.38 2.375zm0-53.548a2.377 2.377 0 1 1 0-4.751 2.379 2.379 0 0 1 2.38 2.375 2.378 2.378 0 0 1-2.38 2.376zm0-53.548a2.375 2.375 0 1 1 0-4.751 2.38 2.38 0 0 1 2.38 2.376 2.377 2.377 0 0 1-2.38 2.375zm0-53.546a2.377 2.377 0 0 1 0-4.752 2.379 2.379 0 0 1 2.38 2.375 2.38 2.38 0 0 1-2.38 2.377zm0-53.548a2.377 2.377 0 0 1 0-4.751 2.378 2.378 0 0 1 2.38 2.376 2.379 2.379 0 0 1-2.38 2.375zm0-53.547a2.377 2.377 0 1 1 0-4.751 2.378 2.378 0 0 1 2.38 2.375 2.378 2.378 0 0 1-2.38 2.376zm0-53.548a2.377 2.377 0 0 1-2.378-2.375 2.38 2.38 0 0 1 4.758 0 2.379 2.379 0 0 1-2.38 2.375zm-13.401 508.701a2.378 2.378 0 0 1-2.378-2.375 2.377 2.377 0 0 1 2.378-2.376 2.377 2.377 0 0 1 2.379 2.376 2.377 2.377 0 0 1-2.379 2.375zm0-53.547a2.377 2.377 0 0 1-2.378-2.376 2.377 2.377 0 0 1 2.378-2.376 2.377 2.377 0 1 1 0 4.752zm0-53.549a2.377 2.377 0 0 1-2.378-2.375 2.38 2.38 0 0 1 4.757 0 2.377 2.377 0 0 1-2.379 2.375zm0-53.548a2.376 2.376 0 1 1 0-4.75 2.375 2.375 0 0 1 0 4.75zm0-53.546a2.378 2.378 0 0 1-2.378-2.376 2.379 2.379 0 0 1 4.757 0 2.378 2.378 0 0 1-2.379 2.376zm0-53.547a2.378 2.378 0 0 1-2.378-2.376 2.377 2.377 0 0 1 2.378-2.375 2.377 2.377 0 1 1 0 4.751zm0-53.547a2.376 2.376 0 0 1 0-4.751 2.375 2.375 0 1 1 0 4.751zm0-53.549a2.377 2.377 0 0 1-2.378-2.376 2.378 2.378 0 0 1 2.378-2.374 2.377 2.377 0 0 1 2.379 2.374 2.377 2.377 0 0 1-2.379 2.376zm0-53.546a2.377 2.377 0 0 1-2.378-2.376 2.378 2.378 0 0 1 4.757 0 2.377 2.377 0 0 1-2.379 2.376zm0-53.548a2.378 2.378 0 0 1-2.378-2.376 2.378 2.378 0 0 1 4.757 0 2.378 2.378 0 0 1-2.379 2.376zm0-53.547a2.378 2.378 0 0 1-2.378-2.376 2.378 2.378 0 0 1 4.757 0 2.378 2.378 0 0 1-2.379 2.376zm-13.4 562.247a2.377 2.377 0 1 1 2.376-2.375 2.375 2.375 0 0 1-2.376 2.375zm0-53.547a2.376 2.376 0 1 1 0-4.751 2.376 2.376 0 0 1 0 4.751zm0-53.547a2.378 2.378 0 0 1-2.379-2.376 2.378 2.378 0 0 1 4.755 0 2.376 2.376 0 0 1-2.376 2.376zm0-53.547a2.377 2.377 0 0 1 0-4.751 2.375 2.375 0 1 1 0 4.751zm0-53.548a2.377 2.377 0 1 1 2.376-2.375 2.375 2.375 0 0 1-2.376 2.375zm0-53.548a2.377 2.377 0 0 1-2.379-2.376 2.377 2.377 0 0 1 4.755 0 2.376 2.376 0 0 1-2.376 2.376zm0-53.548a2.375 2.375 0 1 1 0-4.751 2.376 2.376 0 0 1 0 4.751zm0-53.546a2.378 2.378 0 0 1-2.379-2.377 2.377 2.377 0 0 1 4.755 0 2.377 2.377 0 0 1-2.376 2.377zm0-53.548a2.377 2.377 0 0 1-2.379-2.375 2.377 2.377 0 0 1 4.755 0 2.376 2.376 0 0 1-2.376 2.375zm0-53.547a2.376 2.376 0 0 1 0-4.751 2.375 2.375 0 1 1 0 4.751zm0-53.548a2.377 2.377 0 0 1-2.379-2.375 2.378 2.378 0 0 1 4.755 0 2.376 2.376 0 0 1-2.376 2.375zm-13.401 508.701a2.378 2.378 0 0 1-2.38-2.375 2.377 2.377 0 0 1 2.38-2.376 2.377 2.377 0 1 1 0 4.751zm0-53.547a2.377 2.377 0 1 1 0-4.752 2.377 2.377 0 1 1 0 4.752zm0-53.549a2.377 2.377 0 1 1 0-4.752 2.376 2.376 0 0 1 0 4.752zm0-53.548a2.375 2.375 0 1 1 0-4.75 2.375 2.375 0 1 1 0 4.75zm0-53.546a2.378 2.378 0 0 1-2.38-2.376 2.378 2.378 0 0 1 4.757 0 2.377 2.377 0 0 1-2.377 2.376zm0-53.547a2.378 2.378 0 0 1-2.38-2.376 2.377 2.377 0 0 1 2.38-2.375 2.376 2.376 0 1 1 0 4.751zm0-53.547a2.376 2.376 0 0 1 0-4.751 2.375 2.375 0 1 1 0 4.751zm0-53.549a2.377 2.377 0 0 1-2.38-2.376 2.377 2.377 0 0 1 2.38-2.374 2.377 2.377 0 0 1 2.377 2.374 2.377 2.377 0 0 1-2.377 2.376zm0-53.546a2.377 2.377 0 1 1 0-4.752 2.377 2.377 0 0 1 0 4.752zm0-53.548a2.378 2.378 0 0 1-2.38-2.376 2.378 2.378 0 0 1 4.757 0 2.377 2.377 0 0 1-2.377 2.376zm0-53.547a2.378 2.378 0 0 1-2.38-2.376 2.378 2.378 0 0 1 4.757 0 2.377 2.377 0 0 1-2.377 2.376zM297.2 566.998a2.377 2.377 0 1 1 0-4.752 2.377 2.377 0 0 1 0 4.752zm0-53.547a2.376 2.376 0 1 1 0-4.751 2.376 2.376 0 0 1 0 4.751zm0-53.547a2.377 2.377 0 0 1-2.378-2.376 2.377 2.377 0 0 1 2.378-2.376 2.378 2.378 0 0 1 2.379 2.376 2.378 2.378 0 0 1-2.379 2.376zm0-53.547a2.377 2.377 0 0 1 0-4.751 2.377 2.377 0 1 1 0 4.751zm0-53.548a2.377 2.377 0 1 1 0-4.752 2.377 2.377 0 1 1 0 4.752zm0-53.548a2.377 2.377 0 1 1 0-4.751 2.377 2.377 0 0 1 2.379 2.375 2.377 2.377 0 0 1-2.379 2.376zm0-53.548a2.375 2.375 0 1 1 0-4.751 2.375 2.375 0 1 1 0 4.751zm0-53.546a2.377 2.377 0 0 1 0-4.752 2.377 2.377 0 0 1 2.379 2.375 2.378 2.378 0 0 1-2.379 2.377zm0-53.548a2.377 2.377 0 0 1 0-4.751 2.377 2.377 0 0 1 2.379 2.376 2.377 2.377 0 0 1-2.379 2.375zm0-53.547a2.377 2.377 0 1 1 0-4.751 2.376 2.376 0 1 1 0 4.751zm0-53.548a2.377 2.377 0 0 1-2.378-2.375 2.377 2.377 0 0 1 2.378-2.376 2.378 2.378 0 0 1 2.379 2.376 2.377 2.377 0 0 1-2.379 2.375zm-13.402 508.701a2.377 2.377 0 0 1 0-4.751 2.377 2.377 0 0 1 2.38 2.376 2.378 2.378 0 0 1-2.38 2.375zm0-53.547a2.377 2.377 0 1 1 0-4.752 2.377 2.377 0 1 1 0 4.752zm0-53.549a2.376 2.376 0 1 1 0-4.752 2.377 2.377 0 0 1 0 4.752zm0-53.548a2.375 2.375 0 1 1 0-4.75 2.375 2.375 0 0 1 0 4.75zm0-53.546a2.377 2.377 0 0 1 0-4.752 2.378 2.378 0 0 1 2.38 2.376 2.378 2.378 0 0 1-2.38 2.376zm0-53.547a2.376 2.376 0 0 1 0-4.751 2.377 2.377 0 0 1 2.38 2.375 2.378 2.378 0 0 1-2.38 2.376zm0-53.547a2.377 2.377 0 1 1 0-4.751 2.376 2.376 0 1 1 0 4.751zm0-53.549a2.377 2.377 0 0 1-2.377-2.376 2.377 2.377 0 0 1 2.377-2.374 2.377 2.377 0 0 1 2.38 2.374 2.377 2.377 0 0 1-2.38 2.376zm0-53.546a2.377 2.377 0 1 1 0-4.752 2.377 2.377 0 0 1 0 4.752zm0-53.548a2.377 2.377 0 0 1 0-4.752 2.378 2.378 0 0 1 2.38 2.376 2.378 2.378 0 0 1-2.38 2.376zm0-53.547a2.377 2.377 0 0 1 0-4.752 2.378 2.378 0 0 1 2.38 2.376 2.378 2.378 0 0 1-2.38 2.376zm-13.4 562.247a2.378 2.378 0 0 1-2.379-2.375 2.378 2.378 0 1 1 4.757 0 2.376 2.376 0 0 1-2.378 2.375zm0-53.547a2.377 2.377 0 0 1-2.379-2.375 2.379 2.379 0 0 1 4.757 0 2.375 2.375 0 0 1-2.378 2.375zm0-53.547a2.379 2.379 0 0 1-2.379-2.376 2.379 2.379 0 0 1 4.757 0 2.377 2.377 0 0 1-2.378 2.376zm0-53.547a2.379 2.379 0 0 1-2.379-2.376 2.378 2.378 0 0 1 4.757 0 2.377 2.377 0 0 1-2.378 2.376zm0-53.548a2.378 2.378 0 0 1-2.379-2.375 2.378 2.378 0 0 1 4.757 0 2.376 2.376 0 0 1-2.378 2.375zm0-53.548a2.378 2.378 0 0 1-2.379-2.376 2.379 2.379 0 0 1 4.757 0 2.376 2.376 0 0 1-2.378 2.376zm0-53.548a2.377 2.377 0 0 1-2.379-2.375 2.379 2.379 0 0 1 4.757 0 2.375 2.375 0 0 1-2.378 2.375zm0-53.546a2.38 2.38 0 0 1-2.379-2.377 2.379 2.379 0 0 1 4.757 0 2.377 2.377 0 0 1-2.378 2.377zm0-53.548a2.379 2.379 0 0 1-2.379-2.375 2.378 2.378 0 0 1 4.757 0 2.377 2.377 0 0 1-2.378 2.375zm0-53.547a2.378 2.378 0 0 1-2.379-2.376 2.377 2.377 0 0 1 2.379-2.375 2.375 2.375 0 1 1 0 4.751zm0-53.548a2.379 2.379 0 0 1-2.379-2.375 2.379 2.379 0 0 1 4.757 0 2.377 2.377 0 0 1-2.378 2.375zm-13.401 508.701a2.377 2.377 0 1 1 0-4.751 2.378 2.378 0 0 1 2.379 2.376 2.378 2.378 0 0 1-2.379 2.375zm0-53.547a2.376 2.376 0 1 1 0-4.752 2.378 2.378 0 0 1 2.379 2.376 2.378 2.378 0 0 1-2.379 2.376zm0-53.549a2.376 2.376 0 1 1 0-4.752 2.38 2.38 0 0 1 2.379 2.377 2.377 2.377 0 0 1-2.379 2.375zm0-53.548a2.374 2.374 0 1 1 0-4.75 2.376 2.376 0 0 1 0 4.75zm0-53.546a2.377 2.377 0 1 1 0-4.752 2.379 2.379 0 0 1 2.379 2.376 2.378 2.378 0 0 1-2.379 2.376zm0-53.547a2.377 2.377 0 1 1 0-4.751 2.377 2.377 0 0 1 2.379 2.375 2.378 2.378 0 0 1-2.379 2.376zm0-53.547a2.376 2.376 0 1 1 0-4.751 2.376 2.376 0 1 1 0 4.751zm0-53.549a2.376 2.376 0 1 1 0-4.75 2.378 2.378 0 0 1 2.379 2.374 2.378 2.378 0 0 1-2.379 2.376zm0-53.546a2.376 2.376 0 1 1 0-4.752 2.378 2.378 0 0 1 2.379 2.376 2.378 2.378 0 0 1-2.379 2.376zm0-53.548a2.377 2.377 0 1 1 0-4.752 2.378 2.378 0 0 1 2.379 2.376 2.378 2.378 0 0 1-2.379 2.376zm0-53.547a2.377 2.377 0 1 1 0-4.752 2.378 2.378 0 0 1 2.379 2.376 2.378 2.378 0 0 1-2.379 2.376zm-13.4 562.247a2.376 2.376 0 1 1 0-4.752 2.376 2.376 0 0 1 0 4.752zm0-53.547a2.376 2.376 0 1 1 0-4.751 2.376 2.376 0 0 1 0 4.751zm0-53.547a2.377 2.377 0 1 1 0-4.752 2.377 2.377 0 0 1 0 4.752zm0-53.547a2.376 2.376 0 0 1 0-4.751 2.376 2.376 0 1 1 0 4.751zm0-53.548a2.376 2.376 0 1 1 0-4.752 2.377 2.377 0 1 1 0 4.752zm0-53.548a2.377 2.377 0 1 1 0-4.751 2.377 2.377 0 0 1 0 4.751zm0-53.548a2.375 2.375 0 1 1 0-4.751 2.375 2.375 0 1 1 0 4.751zm0-53.546a2.377 2.377 0 0 1 0-4.752 2.377 2.377 0 1 1 0 4.752zm0-53.548a2.377 2.377 0 0 1 0-4.751 2.377 2.377 0 1 1 0 4.751zm0-53.547a2.377 2.377 0 1 1 0-4.751 2.376 2.376 0 1 1 0 4.751zm0-53.548a2.377 2.377 0 0 1-2.38-2.375 2.377 2.377 0 0 1 2.38-2.376 2.377 2.377 0 0 1 2.377 2.376 2.377 2.377 0 0 1-2.377 2.375zm-13.402 508.701a2.377 2.377 0 0 1-2.379-2.375 2.377 2.377 0 0 1 2.379-2.376 2.377 2.377 0 0 1 2.379 2.376 2.377 2.377 0 0 1-2.379 2.375zm0-53.547a2.377 2.377 0 1 1 0-4.752 2.377 2.377 0 1 1 0 4.752zm0-53.549a2.377 2.377 0 1 1 0-4.752 2.377 2.377 0 0 1 0 4.752zm0-53.548a2.375 2.375 0 1 1 0-4.75 2.375 2.375 0 0 1 0 4.75zm0-53.546a2.378 2.378 0 0 1-2.379-2.376 2.378 2.378 0 0 1 4.758 0 2.378 2.378 0 0 1-2.379 2.376zm0-53.547a2.377 2.377 0 0 1 0-4.751 2.377 2.377 0 1 1 0 4.751zm0-53.547a2.375 2.375 0 1 1 0-4.751 2.375 2.375 0 1 1 0 4.751zm0-53.549a2.377 2.377 0 0 1-2.379-2.376 2.377 2.377 0 0 1 2.379-2.374 2.377 2.377 0 0 1 2.379 2.374 2.377 2.377 0 0 1-2.379 2.376zm0-53.546a2.377 2.377 0 1 1 0-4.752 2.377 2.377 0 0 1 0 4.752zm0-53.548a2.378 2.378 0 0 1-2.379-2.376 2.378 2.378 0 0 1 2.379-2.376 2.378 2.378 0 0 1 2.379 2.376 2.378 2.378 0 0 1-2.379 2.376zm0-53.547a2.378 2.378 0 0 1-2.379-2.376 2.378 2.378 0 0 1 2.379-2.376 2.378 2.378 0 0 1 2.379 2.376 2.378 2.378 0 0 1-2.379 2.376zm-13.402 562.247a2.376 2.376 0 1 1 0-4.752 2.376 2.376 0 0 1 0 4.752zm0-53.547a2.375 2.375 0 1 1 0-4.751 2.376 2.376 0 0 1 0 4.751zm0-53.547a2.377 2.377 0 1 1 0-4.752 2.377 2.377 0 1 1 0 4.752zm0-53.547a2.377 2.377 0 1 1 0-4.751 2.376 2.376 0 1 1 0 4.751zm0-53.548a2.376 2.376 0 1 1 0-4.752 2.377 2.377 0 1 1 0 4.752zm0-53.548a2.376 2.376 0 1 1 0-4.751 2.377 2.377 0 0 1 0 4.751zm0-53.548a2.374 2.374 0 1 1 0-4.751 2.375 2.375 0 1 1 0 4.751zm0-53.546a2.377 2.377 0 1 1 0-4.752 2.377 2.377 0 1 1 0 4.752zm0-53.548a2.376 2.376 0 1 1 0-4.751 2.377 2.377 0 1 1 0 4.751zm0-53.547a2.376 2.376 0 1 1 0-4.751 2.376 2.376 0 1 1 0 4.751zm0-53.548a2.376 2.376 0 1 1 0-4.751 2.377 2.377 0 0 1 2.38 2.376 2.377 2.377 0 0 1-2.38 2.375zm-13.4 508.701a2.378 2.378 0 0 1-2.379-2.375 2.378 2.378 0 0 1 2.379-2.376 2.377 2.377 0 1 1 0 4.751zm0-53.547a2.378 2.378 0 0 1-2.379-2.376 2.378 2.378 0 0 1 2.379-2.376 2.377 2.377 0 1 1 0 4.752zm0-53.549a2.377 2.377 0 0 1-2.379-2.375 2.38 2.38 0 0 1 4.757 0 2.377 2.377 0 0 1-2.378 2.375zm0-53.548a2.376 2.376 0 1 1 0-4.75 2.375 2.375 0 0 1 0 4.75zm0-53.546a2.378 2.378 0 0 1-2.379-2.376 2.379 2.379 0 0 1 4.757 0 2.377 2.377 0 0 1-2.378 2.376zm0-53.547a2.378 2.378 0 0 1-2.379-2.376 2.377 2.377 0 0 1 2.379-2.375 2.377 2.377 0 1 1 0 4.751zm0-53.547a2.376 2.376 0 0 1 0-4.751 2.375 2.375 0 1 1 0 4.751zm0-53.549a2.378 2.378 0 0 1-2.379-2.376 2.378 2.378 0 0 1 2.379-2.374 2.377 2.377 0 0 1 2.378 2.374 2.377 2.377 0 0 1-2.378 2.376zm0-53.546a2.378 2.378 0 0 1-2.379-2.376 2.378 2.378 0 0 1 4.757 0 2.377 2.377 0 0 1-2.378 2.376zm0-53.548a2.378 2.378 0 0 1-2.379-2.376 2.378 2.378 0 0 1 4.757 0 2.377 2.377 0 0 1-2.378 2.376zm0-53.547a2.378 2.378 0 0 1-2.379-2.376 2.378 2.378 0 0 1 4.757 0 2.377 2.377 0 0 1-2.378 2.376zm-13.401 562.247a2.377 2.377 0 1 1 0-4.752 2.38 2.38 0 0 1 2.378 2.377 2.377 2.377 0 0 1-2.378 2.375zm0-53.547a2.376 2.376 0 1 1 0-4.751 2.377 2.377 0 0 1 0 4.751zm0-53.547a2.377 2.377 0 0 1-2.378-2.376 2.377 2.377 0 0 1 4.756 0 2.378 2.378 0 0 1-2.378 2.376zm0-53.547a2.377 2.377 0 0 1 0-4.751 2.377 2.377 0 0 1 2.378 2.375 2.378 2.378 0 0 1-2.378 2.376zm0-53.548a2.377 2.377 0 1 1 0-4.752 2.377 2.377 0 0 1 0 4.752zm0-53.548a2.377 2.377 0 1 1 0-4.751 2.378 2.378 0 0 1 2.378 2.375 2.377 2.377 0 0 1-2.378 2.376zm0-53.548a2.375 2.375 0 1 1 0-4.751 2.376 2.376 0 0 1 0 4.751zm0-53.546a2.377 2.377 0 1 1 0 0zm0-53.548a2.377 2.377 0 0 1 0-4.751 2.377 2.377 0 0 1 2.378 2.376 2.378 2.378 0 0 1-2.378 2.375zm0-53.547a2.377 2.377 0 1 1 0-4.751 2.377 2.377 0 1 1 0 4.751zm0-53.548a2.377 2.377 0 0 1-2.378-2.375 2.377 2.377 0 0 1 4.756 0 2.378 2.378 0 0 1-2.378 2.375zm-13.4 508.701a2.378 2.378 0 0 1-2.381-2.375 2.377 2.377 0 0 1 2.381-2.376 2.376 2.376 0 1 1 0 4.751zm0-53.547a2.377 2.377 0 0 1-2.381-2.376 2.377 2.377 0 0 1 2.381-2.376 2.376 2.376 0 1 1 0 4.752zm0-53.549a2.377 2.377 0 0 1-2.381-2.375 2.38 2.38 0 0 1 4.757 0 2.375 2.375 0 0 1-2.376 2.375zm0-53.548a2.376 2.376 0 1 1 0-4.75 2.374 2.374 0 1 1 0 4.75zm0-53.546a2.378 2.378 0 0 1-2.381-2.376 2.379 2.379 0 0 1 4.757 0 2.376 2.376 0 0 1-2.376 2.376zm0-53.547a2.378 2.378 0 0 1-2.381-2.376 2.377 2.377 0 0 1 2.381-2.375 2.375 2.375 0 1 1 0 4.751zm0-53.547a2.376 2.376 0 0 1 0-4.751 2.376 2.376 0 0 1 0 4.751zm0-53.549a2.377 2.377 0 0 1-2.381-2.376 2.378 2.378 0 0 1 2.381-2.374 2.376 2.376 0 1 1 0 4.75zm0-53.546a2.377 2.377 0 0 1-2.381-2.376 2.378 2.378 0 0 1 4.757 0 2.376 2.376 0 0 1-2.376 2.376zm0-53.548a2.378 2.378 0 0 1-2.381-2.376 2.378 2.378 0 0 1 4.757 0 2.376 2.376 0 0 1-2.376 2.376zm0-53.547a2.378 2.378 0 0 1-2.381-2.376 2.378 2.378 0 0 1 4.757 0 2.376 2.376 0 0 1-2.376 2.376zM163.19 566.998a2.377 2.377 0 1 1 0-4.752 2.377 2.377 0 0 1 0 4.752zm0-53.547a2.376 2.376 0 1 1 0-4.751 2.376 2.376 0 0 1 0 4.751zm0-53.547a2.378 2.378 0 0 1-2.379-2.376 2.378 2.378 0 0 1 2.379-2.376 2.377 2.377 0 0 1 2.378 2.376 2.377 2.377 0 0 1-2.378 2.376zm0-53.547a2.377 2.377 0 0 1 0-4.751 2.377 2.377 0 1 1 0 4.751zm0-53.548a2.377 2.377 0 1 1 0-4.752 2.377 2.377 0 1 1 0 4.752zm0-53.548a2.377 2.377 0 0 1-2.379-2.376 2.377 2.377 0 0 1 2.379-2.375 2.377 2.377 0 0 1 0 4.751zm0-53.548a2.375 2.375 0 1 1 0-4.751 2.375 2.375 0 1 1 0 4.751zm0-53.546a2.378 2.378 0 0 1-2.379-2.377 2.377 2.377 0 0 1 2.379-2.375 2.377 2.377 0 1 1 0 4.752zm0-53.548a2.377 2.377 0 0 1-2.379-2.375 2.377 2.377 0 0 1 2.379-2.376 2.377 2.377 0 1 1 0 4.751zm0-53.547a2.376 2.376 0 0 1 0-4.751 2.376 2.376 0 1 1 0 4.751zm0-53.548a2.377 2.377 0 0 1-2.379-2.375 2.378 2.378 0 0 1 2.379-2.376 2.377 2.377 0 0 1 2.378 2.376 2.377 2.377 0 0 1-2.378 2.375zm-13.403 508.701a2.376 2.376 0 0 1 0-4.751 2.377 2.377 0 0 1 2.381 2.376 2.378 2.378 0 0 1-2.381 2.375zm0-53.547a2.376 2.376 0 1 1 0-4.752 2.377 2.377 0 0 1 2.381 2.376 2.377 2.377 0 0 1-2.381 2.376zm0-53.549a2.375 2.375 0 1 1 0-4.752 2.38 2.38 0 0 1 2.381 2.377 2.377 2.377 0 0 1-2.381 2.375zm0-53.548a2.374 2.374 0 1 1 0-4.75 2.376 2.376 0 0 1 0 4.75zm0-53.546a2.376 2.376 0 0 1 0-4.752 2.379 2.379 0 0 1 2.381 2.376 2.378 2.378 0 0 1-2.381 2.376zm0-53.547a2.376 2.376 0 0 1 0-4.751 2.377 2.377 0 0 1 2.381 2.375 2.378 2.378 0 0 1-2.381 2.376zm0-53.547a2.376 2.376 0 1 1 0-4.751 2.376 2.376 0 1 1 0 4.751zm0-53.549a2.376 2.376 0 1 1 0-4.75 2.378 2.378 0 0 1 2.381 2.374 2.377 2.377 0 0 1-2.381 2.376zm0-53.546a2.376 2.376 0 1 1 0-4.752 2.378 2.378 0 0 1 2.381 2.376 2.377 2.377 0 0 1-2.381 2.376zm0-53.548a2.376 2.376 0 0 1 0-4.752 2.378 2.378 0 0 1 2.381 2.376 2.378 2.378 0 0 1-2.381 2.376zm0-53.547a2.376 2.376 0 0 1 0-4.752 2.378 2.378 0 0 1 2.381 2.376 2.378 2.378 0 0 1-2.381 2.376zm-13.4 562.247a2.378 2.378 0 0 1-2.379-2.375 2.378 2.378 0 1 1 4.757 0 2.376 2.376 0 0 1-2.378 2.375zm0-53.547a2.377 2.377 0 0 1-2.379-2.375 2.379 2.379 0 0 1 4.757 0 2.375 2.375 0 0 1-2.378 2.375zm0-53.547a2.379 2.379 0 0 1-2.379-2.376 2.379 2.379 0 0 1 4.757 0 2.377 2.377 0 0 1-2.378 2.376zm0-53.547a2.379 2.379 0 0 1-2.379-2.376 2.378 2.378 0 0 1 4.757 0 2.377 2.377 0 0 1-2.378 2.376zm0-53.548a2.378 2.378 0 0 1-2.379-2.375 2.378 2.378 0 0 1 4.757 0 2.376 2.376 0 0 1-2.378 2.375zm0-53.548a2.378 2.378 0 0 1-2.379-2.376 2.379 2.379 0 0 1 4.757 0 2.376 2.376 0 0 1-2.378 2.376zm0-53.548a2.377 2.377 0 0 1-2.379-2.375 2.379 2.379 0 0 1 4.757 0 2.375 2.375 0 0 1-2.378 2.375zm0-53.546a2.38 2.38 0 0 1-2.379-2.377 2.379 2.379 0 0 1 4.757 0 2.377 2.377 0 0 1-2.378 2.377zm0-53.548a2.379 2.379 0 0 1-2.379-2.375 2.378 2.378 0 0 1 4.757 0 2.377 2.377 0 0 1-2.378 2.375zm0-53.547a2.378 2.378 0 0 1-2.379-2.376 2.377 2.377 0 0 1 2.379-2.375 2.375 2.375 0 1 1 0 4.751zm0-53.548a2.379 2.379 0 0 1-2.379-2.375 2.379 2.379 0 0 1 4.757 0 2.377 2.377 0 0 1-2.378 2.375zm-13.401 508.701a2.377 2.377 0 0 1 0-4.751 2.378 2.378 0 0 1 2.379 2.376 2.378 2.378 0 0 1-2.379 2.375zm0-53.547a2.377 2.377 0 1 1 0-4.752 2.378 2.378 0 0 1 2.379 2.376 2.378 2.378 0 0 1-2.379 2.376zm0-53.549a2.377 2.377 0 1 1 0-4.752 2.38 2.38 0 0 1 2.379 2.377 2.377 2.377 0 0 1-2.379 2.375zm0-53.548a2.375 2.375 0 1 1 0-4.75 2.376 2.376 0 0 1 0 4.75zm0-53.546a2.377 2.377 0 0 1-2.378-2.376 2.378 2.378 0 0 1 4.757 0 2.378 2.378 0 0 1-2.379 2.376zm0-53.547a2.377 2.377 0 0 1 0-4.751 2.377 2.377 0 0 1 2.379 2.375 2.378 2.378 0 0 1-2.379 2.376zm0-53.547a2.377 2.377 0 1 1 0-4.751 2.376 2.376 0 1 1 0 4.751zm0-53.549a2.377 2.377 0 0 1-2.378-2.376 2.377 2.377 0 0 1 2.378-2.374 2.378 2.378 0 0 1 2.379 2.374 2.378 2.378 0 0 1-2.379 2.376zm0-53.546a2.377 2.377 0 1 1 0-4.752 2.378 2.378 0 0 1 2.379 2.376 2.378 2.378 0 0 1-2.379 2.376zm0-53.548a2.377 2.377 0 0 1-2.378-2.376 2.378 2.378 0 1 1 4.757 0 2.378 2.378 0 0 1-2.379 2.376zm0-53.547a2.377 2.377 0 0 1-2.378-2.376 2.378 2.378 0 1 1 4.757 0 2.378 2.378 0 0 1-2.379 2.376zm-13.4 562.247a2.378 2.378 0 0 1-2.38-2.375 2.378 2.378 0 1 1 4.757 0 2.376 2.376 0 0 1-2.377 2.375zm0-53.547a2.377 2.377 0 0 1-2.38-2.375 2.378 2.378 0 0 1 4.757 0 2.375 2.375 0 0 1-2.377 2.375zm0-53.547a2.378 2.378 0 0 1-2.38-2.376 2.378 2.378 0 0 1 4.757 0 2.377 2.377 0 0 1-2.377 2.376zm0-53.547a2.378 2.378 0 0 1-2.38-2.376 2.378 2.378 0 0 1 2.38-2.375 2.376 2.376 0 1 1 0 4.751zm0-53.548a2.378 2.378 0 0 1-2.38-2.375 2.378 2.378 0 0 1 4.757 0 2.376 2.376 0 0 1-2.377 2.375zm0-53.548a2.378 2.378 0 0 1-2.38-2.376 2.378 2.378 0 0 1 4.757 0 2.376 2.376 0 0 1-2.377 2.376zm0-53.548a2.376 2.376 0 1 1 0-4.751 2.377 2.377 0 1 1 0 4.751zm0-53.546a2.379 2.379 0 0 1-2.38-2.377 2.378 2.378 0 0 1 4.757 0 2.377 2.377 0 0 1-2.377 2.377zm0-53.548a2.378 2.378 0 0 1-2.38-2.375 2.378 2.378 0 0 1 2.38-2.376 2.376 2.376 0 1 1 0 4.751zm0-53.547a2.378 2.378 0 0 1-2.38-2.376 2.377 2.377 0 0 1 2.38-2.375 2.375 2.375 0 1 1 0 4.751zm0-53.548a2.378 2.378 0 0 1-2.38-2.375 2.378 2.378 0 0 1 4.757 0 2.376 2.376 0 0 1-2.377 2.375zM96.185 540.225a2.378 2.378 0 0 1-2.38-2.375 2.377 2.377 0 0 1 2.38-2.376 2.378 2.378 0 0 1 2.379 2.376 2.378 2.378 0 0 1-2.379 2.375zm0-53.547a2.377 2.377 0 1 1 0-4.752 2.378 2.378 0 0 1 2.379 2.376 2.378 2.378 0 0 1-2.379 2.376zm0-53.549a2.377 2.377 0 1 1 0-4.752 2.38 2.38 0 0 1 2.379 2.377 2.377 2.377 0 0 1-2.379 2.375zm0-53.548a2.375 2.375 0 1 1 0-4.75 2.376 2.376 0 0 1 0 4.75zm0-53.546a2.378 2.378 0 0 1-2.38-2.376 2.379 2.379 0 1 1 4.759 0 2.378 2.378 0 0 1-2.379 2.376zm0-53.547a2.378 2.378 0 0 1-2.38-2.376 2.377 2.377 0 0 1 2.38-2.375 2.377 2.377 0 0 1 2.379 2.375 2.378 2.378 0 0 1-2.379 2.376zm0-53.547a2.376 2.376 0 0 1 0-4.751 2.376 2.376 0 1 1 0 4.751zm0-53.549a2.377 2.377 0 0 1-2.38-2.376 2.377 2.377 0 0 1 2.38-2.374 2.378 2.378 0 0 1 2.379 2.374 2.378 2.378 0 0 1-2.379 2.376zm0-53.546a2.377 2.377 0 1 1 0-4.752 2.378 2.378 0 0 1 2.379 2.376 2.378 2.378 0 0 1-2.379 2.376zm0-53.548a2.378 2.378 0 0 1-2.38-2.376 2.378 2.378 0 0 1 2.38-2.376 2.378 2.378 0 0 1 2.379 2.376 2.378 2.378 0 0 1-2.379 2.376zm0-53.547a2.378 2.378 0 0 1-2.38-2.376 2.378 2.378 0 0 1 2.38-2.376 2.378 2.378 0 0 1 2.379 2.376 2.378 2.378 0 0 1-2.379 2.376zM82.782 566.998a2.376 2.376 0 1 1 0-4.752 2.376 2.376 0 0 1 0 4.752zm0-53.547a2.376 2.376 0 1 1 0-4.751 2.376 2.376 0 0 1 0 4.751zm0-53.547a2.377 2.377 0 0 1 0-4.752 2.377 2.377 0 1 1 0 4.752zm0-53.547a2.376 2.376 0 0 1 0-4.751 2.376 2.376 0 1 1 0 4.751zm0-53.548a2.376 2.376 0 1 1 0-4.752 2.377 2.377 0 1 1 0 4.752zm0-53.548a2.377 2.377 0 1 1 0-4.751 2.377 2.377 0 0 1 0 4.751zm0-53.548a2.375 2.375 0 1 1 0-4.751 2.375 2.375 0 1 1 0 4.751zm0-53.546a2.377 2.377 0 0 1 0-4.752 2.377 2.377 0 1 1 0 4.752zm0-53.548a2.377 2.377 0 0 1 0-4.751 2.377 2.377 0 1 1 0 4.751zm0-53.547a2.377 2.377 0 1 1 0-4.751 2.376 2.376 0 1 1 0 4.751zm0-53.548a2.377 2.377 0 0 1-2.377-2.375 2.377 2.377 0 0 1 2.377-2.376 2.377 2.377 0 0 1 2.38 2.376 2.377 2.377 0 0 1-2.38 2.375zm-13.4 508.701a2.377 2.377 0 0 1 0-4.751 2.376 2.376 0 1 1 0 4.751zm0-53.547a2.377 2.377 0 1 1 0-4.752 2.376 2.376 0 1 1 0 4.752zm0-53.549a2.377 2.377 0 1 1 0-4.752 2.376 2.376 0 1 1 0 4.752zm0-53.548a2.375 2.375 0 1 1 0-4.75 2.374 2.374 0 1 1 0 4.75zm0-53.546a2.377 2.377 0 0 1-2.378-2.376 2.378 2.378 0 0 1 4.756 0 2.377 2.377 0 0 1-2.378 2.376zm0-53.547a2.377 2.377 0 0 1 0-4.751 2.376 2.376 0 1 1 0 4.751zm0-53.547a2.377 2.377 0 1 1 0-4.751 2.375 2.375 0 1 1 0 4.751zm0-53.549a2.377 2.377 0 0 1-2.378-2.376 2.377 2.377 0 0 1 2.378-2.374 2.376 2.376 0 0 1 0 4.75zm0-53.546a2.377 2.377 0 1 1 0-4.752 2.377 2.377 0 1 1 0 4.752zm0-53.548a2.377 2.377 0 0 1-2.378-2.376 2.377 2.377 0 0 1 4.756 0 2.377 2.377 0 0 1-2.378 2.376zm0-53.547a2.377 2.377 0 0 1-2.378-2.376 2.377 2.377 0 0 1 4.756 0 2.377 2.377 0 0 1-2.378 2.376zm-13.4 562.247a2.377 2.377 0 1 1 0-4.752 2.38 2.38 0 0 1 2.378 2.377 2.378 2.378 0 0 1-2.378 2.375zm0-53.547a2.376 2.376 0 1 1 0-4.751 2.379 2.379 0 0 1 2.378 2.376 2.377 2.377 0 0 1-2.378 2.375zm0-53.547a2.378 2.378 0 0 1-2.379-2.376 2.378 2.378 0 0 1 4.757 0 2.379 2.379 0 0 1-2.378 2.376zm0-53.547a2.377 2.377 0 0 1 0-4.751 2.378 2.378 0 0 1 2.378 2.375 2.379 2.379 0 0 1-2.378 2.376zm0-53.548a2.377 2.377 0 1 1 0-4.752 2.378 2.378 0 0 1 2.378 2.377 2.378 2.378 0 0 1-2.378 2.375zm0-53.548a2.377 2.377 0 0 1-2.379-2.376 2.378 2.378 0 1 1 4.757 0 2.378 2.378 0 0 1-2.378 2.376zm0-53.548a2.375 2.375 0 1 1 0-4.751 2.377 2.377 0 0 1 0 4.751zm0-53.546a2.378 2.378 0 0 1-2.379-2.377 2.378 2.378 0 1 1 4.757 0 2.379 2.379 0 0 1-2.378 2.377zm0-53.548a2.377 2.377 0 0 1-2.379-2.375 2.378 2.378 0 1 1 4.757 0 2.378 2.378 0 0 1-2.378 2.375zm0-53.547a2.376 2.376 0 0 1 0-4.751 2.377 2.377 0 0 1 2.378 2.375 2.378 2.378 0 0 1-2.378 2.376zm0-53.548a2.377 2.377 0 0 1-2.379-2.375 2.378 2.378 0 0 1 4.757 0 2.378 2.378 0 0 1-2.378 2.375zM42.581 540.225a2.378 2.378 0 0 1-2.38-2.375 2.378 2.378 0 0 1 4.757 0 2.377 2.377 0 0 1-2.377 2.375zm0-53.547a2.378 2.378 0 0 1-2.38-2.376 2.378 2.378 0 0 1 4.757 0 2.377 2.377 0 0 1-2.377 2.376zm0-53.549a2.378 2.378 0 0 1-2.38-2.375 2.379 2.379 0 0 1 4.757 0 2.376 2.376 0 0 1-2.377 2.375zm0-53.548a2.376 2.376 0 0 1-2.38-2.374 2.378 2.378 0 0 1 4.757 0 2.375 2.375 0 0 1-2.377 2.374zm0-53.546a2.378 2.378 0 0 1-2.38-2.376 2.38 2.38 0 0 1 4.757 0 2.377 2.377 0 0 1-2.377 2.376zm0-53.547a2.378 2.378 0 0 1-2.38-2.376 2.378 2.378 0 0 1 2.38-2.375 2.376 2.376 0 1 1 0 4.751zm0-53.547a2.376 2.376 0 0 1 0-4.751 2.375 2.375 0 1 1 0 4.751zm0-53.549a2.378 2.378 0 0 1-2.38-2.376 2.378 2.378 0 0 1 4.757 0 2.377 2.377 0 0 1-2.377 2.376zm0-53.546a2.378 2.378 0 0 1-2.38-2.376 2.378 2.378 0 0 1 4.757 0 2.377 2.377 0 0 1-2.377 2.376zm0-53.548a2.378 2.378 0 0 1-2.38-2.376 2.378 2.378 0 0 1 4.757 0 2.377 2.377 0 0 1-2.377 2.376zm0-53.547a2.378 2.378 0 0 1-2.38-2.376 2.378 2.378 0 0 1 4.757 0 2.377 2.377 0 0 1-2.377 2.376zM29.179 566.998a2.377 2.377 0 1 1 0-4.752 2.38 2.38 0 0 1 2.38 2.377 2.378 2.378 0 0 1-2.38 2.375zm0-53.547a2.376 2.376 0 1 1 0-4.751 2.378 2.378 0 0 1 2.38 2.376 2.377 2.377 0 0 1-2.38 2.375zm0-53.547a2.378 2.378 0 0 1-2.379-2.376 2.378 2.378 0 0 1 2.379-2.376 2.378 2.378 0 0 1 2.38 2.376 2.378 2.378 0 0 1-2.38 2.376zm0-53.547a2.377 2.377 0 0 1 0-4.751 2.378 2.378 0 0 1 2.38 2.375 2.378 2.378 0 0 1-2.38 2.376zm0-53.548a2.377 2.377 0 1 1 0-4.752 2.378 2.378 0 0 1 2.38 2.377 2.378 2.378 0 0 1-2.38 2.375zm0-53.548a2.377 2.377 0 0 1-2.379-2.376 2.377 2.377 0 0 1 2.379-2.375 2.378 2.378 0 0 1 2.38 2.375 2.378 2.378 0 0 1-2.38 2.376zm0-53.548a2.375 2.375 0 1 1 0-4.751 2.376 2.376 0 0 1 0 4.751zm0-53.546a2.378 2.378 0 0 1-2.379-2.377 2.377 2.377 0 0 1 2.379-2.375 2.378 2.378 0 0 1 2.38 2.375 2.379 2.379 0 0 1-2.38 2.377zm0-53.548a2.377 2.377 0 0 1-2.379-2.375 2.377 2.377 0 0 1 2.379-2.376 2.378 2.378 0 0 1 2.38 2.376 2.378 2.378 0 0 1-2.38 2.375zm0-53.547a2.376 2.376 0 0 1 0-4.751 2.377 2.377 0 0 1 2.38 2.375 2.378 2.378 0 0 1-2.38 2.376zm0-53.548a2.377 2.377 0 0 1-2.379-2.375 2.378 2.378 0 0 1 2.379-2.376 2.378 2.378 0 0 1 2.38 2.376 2.378 2.378 0 0 1-2.38 2.375zM15.777 540.225a2.377 2.377 0 0 1 0-4.751 2.377 2.377 0 0 1 2.38 2.376 2.378 2.378 0 0 1-2.38 2.375zm0-53.547a2.377 2.377 0 1 1 0-4.752 2.377 2.377 0 1 1 0 4.752zm0-53.549a2.376 2.376 0 1 1 0-4.752 2.377 2.377 0 0 1 0 4.752zm0-53.548a2.375 2.375 0 1 1 0-4.75 2.375 2.375 0 0 1 0 4.75zm0-53.546a2.377 2.377 0 0 1 0-4.752 2.378 2.378 0 0 1 2.38 2.376 2.378 2.378 0 0 1-2.38 2.376zm0-53.547a2.376 2.376 0 0 1 0-4.751 2.377 2.377 0 0 1 2.38 2.375 2.378 2.378 0 0 1-2.38 2.376zm0-53.547a2.377 2.377 0 1 1 0-4.751 2.376 2.376 0 1 1 0 4.751zm0-53.549a2.377 2.377 0 0 1-2.377-2.376 2.377 2.377 0 0 1 2.377-2.374 2.377 2.377 0 0 1 2.38 2.374 2.377 2.377 0 0 1-2.38 2.376zm0-53.546a2.377 2.377 0 1 1 0-4.752 2.377 2.377 0 0 1 0 4.752zm0-53.548a2.377 2.377 0 0 1 0-4.752 2.378 2.378 0 0 1 2.38 2.376 2.378 2.378 0 0 1-2.38 2.376zm0-53.547a2.377 2.377 0 0 1 0-4.752 2.378 2.378 0 0 1 2.38 2.376 2.378 2.378 0 0 1-2.38 2.376zM2.376 566.998a2.375 2.375 0 1 1 0-4.752 2.376 2.376 0 0 1 0 4.752zm0-53.547a2.375 2.375 0 1 1 0-4.751 2.375 2.375 0 1 1 0 4.751zm0-53.547a2.376 2.376 0 0 1 0-4.752 2.377 2.377 0 1 1 0 4.752zm0-53.547a2.376 2.376 0 0 1 0-4.751 2.376 2.376 0 1 1 0 4.751zm0-53.548a2.375 2.375 0 1 1 0-4.752 2.377 2.377 0 1 1 0 4.752zm0-53.548a2.376 2.376 0 1 1 0-4.751 2.377 2.377 0 1 1 0 4.751zm0-53.548a2.376 2.376 0 0 1 0-4.751 2.375 2.375 0 1 1 0 4.751zm0-53.546a2.377 2.377 0 1 1 .001-4.753 2.377 2.377 0 0 1-.001 4.753zm0-53.548a2.376 2.376 0 0 1 0-4.751 2.376 2.376 0 1 1 0 4.751zm0-53.547a2.376 2.376 0 1 1 0-4.751 2.375 2.375 0 1 1 0 4.751zm0-53.548a2.376 2.376 0 0 1 0-4.751 2.377 2.377 0 0 1 0 4.751zm576.246 503.95a2.377 2.377 0 1 1 0 4.751 2.377 2.377 0 1 1 0-4.751z" opacity=".639"/>
</svg>
