<svg 
 xmlns="http://www.w3.org/2000/svg"
 xmlns:xlink="http://www.w3.org/1999/xlink"
 width="155px" height="155px">
<path fill-rule="evenodd"  fill="rgb(41, 142, 237)"
 d="M151.886,128.750 C151.547,128.750 151.272,128.469 151.272,128.122 C151.272,127.774 151.547,127.493 151.886,127.493 C152.225,127.493 152.500,127.774 152.500,128.122 C152.500,128.469 152.225,128.750 151.886,128.750 ZM151.886,114.584 C151.547,114.584 151.272,114.303 151.272,113.955 C151.272,113.609 151.547,113.327 151.886,113.327 C152.225,113.327 152.500,113.609 152.500,113.955 C152.500,114.303 152.225,114.584 151.886,114.584 ZM151.886,100.418 C151.547,100.418 151.272,100.137 151.272,99.790 C151.272,99.443 151.547,99.162 151.886,99.162 C152.225,99.162 152.500,99.443 152.500,99.790 C152.500,100.137 152.225,100.418 151.886,100.418 ZM151.886,86.252 C151.547,86.252 151.272,85.971 151.272,85.624 C151.272,85.277 151.547,84.995 151.886,84.995 C152.225,84.995 152.500,85.277 152.500,85.624 C152.500,85.971 152.225,86.252 151.886,86.252 ZM151.886,72.086 C151.547,72.086 151.272,71.805 151.272,71.458 C151.272,71.111 151.547,70.829 151.886,70.829 C152.225,70.829 152.500,71.111 152.500,71.458 C152.500,71.805 152.225,72.086 151.886,72.086 ZM151.886,57.920 C151.547,57.920 151.272,57.639 151.272,57.292 C151.272,56.944 151.547,56.663 151.886,56.663 C152.225,56.663 152.500,56.944 152.500,57.292 C152.500,57.639 152.225,57.920 151.886,57.920 ZM151.886,43.754 C151.547,43.754 151.272,43.473 151.272,43.125 C151.272,42.779 151.547,42.497 151.886,42.497 C152.225,42.497 152.500,42.779 152.500,43.125 C152.500,43.473 152.225,43.754 151.886,43.754 ZM151.886,29.589 C151.547,29.589 151.272,29.307 151.272,28.960 C151.272,28.613 151.547,28.332 151.886,28.332 C152.225,28.332 152.500,28.613 152.500,28.960 C152.500,29.307 152.225,29.589 151.886,29.589 ZM151.886,15.422 C151.547,15.422 151.272,15.141 151.272,14.794 C151.272,14.447 151.547,14.165 151.886,14.165 C152.225,14.165 152.500,14.447 152.500,14.794 C152.500,15.141 152.225,15.422 151.886,15.422 ZM151.886,1.257 C151.547,1.257 151.272,0.975 151.272,0.628 C151.272,0.280 151.547,-0.001 151.886,-0.001 C152.225,-0.001 152.500,0.280 152.500,0.628 C152.500,0.975 152.225,1.257 151.886,1.257 ZM148.426,149.999 C148.087,149.999 147.812,149.718 147.812,149.371 C147.812,149.023 148.087,148.742 148.426,148.742 C148.765,148.742 149.040,149.023 149.040,149.371 C149.040,149.718 148.765,149.999 148.426,149.999 ZM148.426,135.833 C148.087,135.833 147.812,135.553 147.812,135.204 C147.812,134.858 148.087,134.576 148.426,134.576 C148.765,134.576 149.040,134.858 149.040,135.204 C149.040,135.553 148.765,135.833 148.426,135.833 ZM148.426,121.667 C148.087,121.667 147.812,121.385 147.812,121.039 C147.812,120.692 148.087,120.410 148.426,120.410 C148.765,120.410 149.040,120.692 149.040,121.039 C149.040,121.385 148.765,121.667 148.426,121.667 ZM148.426,107.502 C148.087,107.502 147.812,107.220 147.812,106.873 C147.812,106.526 148.087,106.244 148.426,106.244 C148.765,106.244 149.040,106.526 149.040,106.873 C149.040,107.220 148.765,107.502 148.426,107.502 ZM148.426,93.335 C148.087,93.335 147.812,93.054 147.812,92.707 C147.812,92.359 148.087,92.078 148.426,92.078 C148.765,92.078 149.040,92.359 149.040,92.707 C149.040,93.054 148.765,93.335 148.426,93.335 ZM148.426,79.169 C148.087,79.169 147.812,78.888 147.812,78.541 C147.812,78.193 148.087,77.912 148.426,77.912 C148.765,77.912 149.040,78.193 149.040,78.541 C149.040,78.888 148.765,79.169 148.426,79.169 ZM148.426,65.003 C148.087,65.003 147.812,64.723 147.812,64.374 C147.812,64.028 148.087,63.746 148.426,63.746 C148.765,63.746 149.040,64.028 149.040,64.374 C149.040,64.723 148.765,65.003 148.426,65.003 ZM148.426,50.837 C148.087,50.837 147.812,50.555 147.812,50.209 C147.812,49.862 148.087,49.580 148.426,49.580 C148.765,49.580 149.040,49.862 149.040,50.209 C149.040,50.555 148.765,50.837 148.426,50.837 ZM148.426,36.671 C148.087,36.671 147.812,36.390 147.812,36.043 C147.812,35.696 148.087,35.414 148.426,35.414 C148.765,35.414 149.040,35.696 149.040,36.043 C149.040,36.390 148.765,36.671 148.426,36.671 ZM148.426,22.505 C148.087,22.505 147.812,22.224 147.812,21.877 C147.812,21.529 148.087,21.249 148.426,21.249 C148.765,21.249 149.040,21.529 149.040,21.877 C149.040,22.224 148.765,22.505 148.426,22.505 ZM148.426,8.339 C148.087,8.339 147.812,8.058 147.812,7.711 C147.812,7.364 148.087,7.082 148.426,7.082 C148.765,7.082 149.040,7.364 149.040,7.711 C149.040,8.058 148.765,8.339 148.426,8.339 ZM144.966,142.916 C144.627,142.916 144.353,142.635 144.353,142.288 C144.353,141.941 144.627,141.659 144.966,141.659 C145.306,141.659 145.581,141.941 145.581,142.288 C145.581,142.635 145.306,142.916 144.966,142.916 ZM144.966,128.750 C144.627,128.750 144.353,128.469 144.353,128.122 C144.353,127.774 144.627,127.493 144.966,127.493 C145.306,127.493 145.581,127.774 145.581,128.122 C145.581,128.469 145.306,128.750 144.966,128.750 ZM144.966,114.584 C144.627,114.584 144.353,114.303 144.353,113.955 C144.353,113.609 144.627,113.327 144.966,113.327 C145.306,113.327 145.581,113.609 145.581,113.955 C145.581,114.303 145.306,114.584 144.966,114.584 ZM144.966,100.418 C144.627,100.418 144.353,100.137 144.353,99.790 C144.353,99.443 144.627,99.162 144.966,99.162 C145.306,99.162 145.581,99.443 145.581,99.790 C145.581,100.137 145.306,100.418 144.966,100.418 ZM144.966,86.252 C144.627,86.252 144.353,85.971 144.353,85.624 C144.353,85.277 144.627,84.995 144.966,84.995 C145.306,84.995 145.581,85.277 145.581,85.624 C145.581,85.971 145.306,86.252 144.966,86.252 ZM144.966,72.086 C144.627,72.086 144.353,71.805 144.353,71.458 C144.353,71.111 144.627,70.829 144.966,70.829 C145.306,70.829 145.581,71.111 145.581,71.458 C145.581,71.805 145.306,72.086 144.966,72.086 ZM144.966,57.920 C144.627,57.920 144.353,57.639 144.353,57.292 C144.353,56.944 144.627,56.663 144.966,56.663 C145.306,56.663 145.581,56.944 145.581,57.292 C145.581,57.639 145.306,57.920 144.966,57.920 ZM144.966,43.754 C144.627,43.754 144.353,43.473 144.353,43.125 C144.353,42.779 144.627,42.497 144.966,42.497 C145.306,42.497 145.581,42.779 145.581,43.125 C145.581,43.473 145.306,43.754 144.966,43.754 ZM144.966,29.589 C144.627,29.589 144.353,29.307 144.353,28.960 C144.353,28.613 144.627,28.332 144.966,28.332 C145.306,28.332 145.581,28.613 145.581,28.960 C145.581,29.307 145.306,29.589 144.966,29.589 ZM144.966,15.422 C144.627,15.422 144.353,15.141 144.353,14.794 C144.353,14.447 144.627,14.165 144.966,14.165 C145.306,14.165 145.581,14.447 145.581,14.794 C145.581,15.141 145.306,15.422 144.966,15.422 ZM144.966,1.257 C144.627,1.257 144.353,0.975 144.353,0.628 C144.353,0.280 144.627,-0.001 144.966,-0.001 C145.306,-0.001 145.581,0.280 145.581,0.628 C145.581,0.975 145.306,1.257 144.966,1.257 ZM141.507,149.999 C141.168,149.999 140.892,149.718 140.892,149.371 C140.892,149.023 141.168,148.742 141.507,148.742 C141.846,148.742 142.121,149.023 142.121,149.371 C142.121,149.718 141.846,149.999 141.507,149.999 ZM141.507,135.833 C141.168,135.833 140.892,135.553 140.892,135.204 C140.892,134.858 141.168,134.576 141.507,134.576 C141.846,134.576 142.121,134.858 142.121,135.204 C142.121,135.553 141.846,135.833 141.507,135.833 ZM141.507,121.667 C141.168,121.667 140.892,121.385 140.892,121.039 C140.892,120.692 141.168,120.410 141.507,120.410 C141.846,120.410 142.121,120.692 142.121,121.039 C142.121,121.385 141.846,121.667 141.507,121.667 ZM141.507,107.502 C141.168,107.502 140.892,107.220 140.892,106.873 C140.892,106.526 141.168,106.244 141.507,106.244 C141.846,106.244 142.121,106.526 142.121,106.873 C142.121,107.220 141.846,107.502 141.507,107.502 ZM141.507,93.335 C141.168,93.335 140.892,93.054 140.892,92.707 C140.892,92.359 141.168,92.078 141.507,92.078 C141.846,92.078 142.121,92.359 142.121,92.707 C142.121,93.054 141.846,93.335 141.507,93.335 ZM141.507,79.169 C141.168,79.169 140.892,78.888 140.892,78.541 C140.892,78.193 141.168,77.912 141.507,77.912 C141.846,77.912 142.121,78.193 142.121,78.541 C142.121,78.888 141.846,79.169 141.507,79.169 ZM141.507,65.003 C141.168,65.003 140.892,64.723 140.892,64.374 C140.892,64.028 141.168,63.746 141.507,63.746 C141.846,63.746 142.121,64.028 142.121,64.374 C142.121,64.723 141.846,65.003 141.507,65.003 ZM141.507,50.837 C141.168,50.837 140.892,50.555 140.892,50.209 C140.892,49.862 141.168,49.580 141.507,49.580 C141.846,49.580 142.121,49.862 142.121,50.209 C142.121,50.555 141.846,50.837 141.507,50.837 ZM141.507,36.671 C141.168,36.671 140.892,36.390 140.892,36.043 C140.892,35.696 141.168,35.414 141.507,35.414 C141.846,35.414 142.121,35.696 142.121,36.043 C142.121,36.390 141.846,36.671 141.507,36.671 ZM141.507,22.505 C141.168,22.505 140.892,22.224 140.892,21.877 C140.892,21.529 141.168,21.249 141.507,21.249 C141.846,21.249 142.121,21.529 142.121,21.877 C142.121,22.224 141.846,22.505 141.507,22.505 ZM141.507,8.339 C141.168,8.339 140.892,8.058 140.892,7.711 C140.892,7.364 141.168,7.082 141.507,7.082 C141.846,7.082 142.121,7.364 142.121,7.711 C142.121,8.058 141.846,8.339 141.507,8.339 ZM138.047,142.916 C137.708,142.916 137.433,142.635 137.433,142.288 C137.433,141.941 137.708,141.659 138.047,141.659 C138.386,141.659 138.661,141.941 138.661,142.288 C138.661,142.635 138.386,142.916 138.047,142.916 ZM138.047,128.750 C137.708,128.750 137.433,128.469 137.433,128.122 C137.433,127.774 137.708,127.493 138.047,127.493 C138.386,127.493 138.661,127.774 138.661,128.122 C138.661,128.469 138.386,128.750 138.047,128.750 ZM138.047,114.584 C137.708,114.584 137.433,114.303 137.433,113.955 C137.433,113.609 137.708,113.327 138.047,113.327 C138.386,113.327 138.661,113.609 138.661,113.955 C138.661,114.303 138.386,114.584 138.047,114.584 ZM138.047,100.418 C137.708,100.418 137.433,100.137 137.433,99.790 C137.433,99.443 137.708,99.162 138.047,99.162 C138.386,99.162 138.661,99.443 138.661,99.790 C138.661,100.137 138.386,100.418 138.047,100.418 ZM138.047,86.252 C137.708,86.252 137.433,85.971 137.433,85.624 C137.433,85.277 137.708,84.995 138.047,84.995 C138.386,84.995 138.661,85.277 138.661,85.624 C138.661,85.971 138.386,86.252 138.047,86.252 ZM138.047,72.086 C137.708,72.086 137.433,71.805 137.433,71.458 C137.433,71.111 137.708,70.829 138.047,70.829 C138.386,70.829 138.661,71.111 138.661,71.458 C138.661,71.805 138.386,72.086 138.047,72.086 ZM138.047,57.920 C137.708,57.920 137.433,57.639 137.433,57.292 C137.433,56.944 137.708,56.663 138.047,56.663 C138.386,56.663 138.661,56.944 138.661,57.292 C138.661,57.639 138.386,57.920 138.047,57.920 ZM138.047,43.754 C137.708,43.754 137.433,43.473 137.433,43.125 C137.433,42.779 137.708,42.497 138.047,42.497 C138.386,42.497 138.661,42.779 138.661,43.125 C138.661,43.473 138.386,43.754 138.047,43.754 ZM138.047,29.589 C137.708,29.589 137.433,29.307 137.433,28.960 C137.433,28.613 137.708,28.332 138.047,28.332 C138.386,28.332 138.661,28.613 138.661,28.960 C138.661,29.307 138.386,29.589 138.047,29.589 ZM138.047,15.422 C137.708,15.422 137.433,15.141 137.433,14.794 C137.433,14.447 137.708,14.165 138.047,14.165 C138.386,14.165 138.661,14.447 138.661,14.794 C138.661,15.141 138.386,15.422 138.047,15.422 ZM138.047,1.257 C137.708,1.257 137.433,0.975 137.433,0.628 C137.433,0.280 137.708,-0.001 138.047,-0.001 C138.386,-0.001 138.661,0.280 138.661,0.628 C138.661,0.975 138.386,1.257 138.047,1.257 ZM134.587,149.999 C134.247,149.999 133.973,149.718 133.973,149.371 C133.973,149.023 134.247,148.742 134.587,148.742 C134.926,148.742 135.201,149.023 135.201,149.371 C135.201,149.718 134.926,149.999 134.587,149.999 ZM134.587,135.833 C134.247,135.833 133.973,135.553 133.973,135.204 C133.973,134.858 134.247,134.576 134.587,134.576 C134.926,134.576 135.201,134.858 135.201,135.204 C135.201,135.553 134.926,135.833 134.587,135.833 ZM134.587,121.667 C134.247,121.667 133.973,121.385 133.973,121.039 C133.973,120.692 134.247,120.410 134.587,120.410 C134.926,120.410 135.201,120.692 135.201,121.039 C135.201,121.385 134.926,121.667 134.587,121.667 ZM134.587,107.502 C134.247,107.502 133.973,107.220 133.973,106.873 C133.973,106.526 134.247,106.244 134.587,106.244 C134.926,106.244 135.201,106.526 135.201,106.873 C135.201,107.220 134.926,107.502 134.587,107.502 ZM134.587,93.335 C134.247,93.335 133.973,93.054 133.973,92.707 C133.973,92.359 134.247,92.078 134.587,92.078 C134.926,92.078 135.201,92.359 135.201,92.707 C135.201,93.054 134.926,93.335 134.587,93.335 ZM134.587,79.169 C134.247,79.169 133.973,78.888 133.973,78.541 C133.973,78.193 134.247,77.912 134.587,77.912 C134.926,77.912 135.201,78.193 135.201,78.541 C135.201,78.888 134.926,79.169 134.587,79.169 ZM134.587,65.003 C134.247,65.003 133.973,64.723 133.973,64.374 C133.973,64.028 134.247,63.746 134.587,63.746 C134.926,63.746 135.201,64.028 135.201,64.374 C135.201,64.723 134.926,65.003 134.587,65.003 ZM134.587,50.837 C134.247,50.837 133.973,50.555 133.973,50.209 C133.973,49.862 134.247,49.580 134.587,49.580 C134.926,49.580 135.201,49.862 135.201,50.209 C135.201,50.555 134.926,50.837 134.587,50.837 ZM134.587,36.671 C134.247,36.671 133.973,36.390 133.973,36.043 C133.973,35.696 134.247,35.414 134.587,35.414 C134.926,35.414 135.201,35.696 135.201,36.043 C135.201,36.390 134.926,36.671 134.587,36.671 ZM134.587,22.505 C134.247,22.505 133.973,22.224 133.973,21.877 C133.973,21.529 134.247,21.249 134.587,21.249 C134.926,21.249 135.201,21.529 135.201,21.877 C135.201,22.224 134.926,22.505 134.587,22.505 ZM134.587,8.339 C134.247,8.339 133.973,8.058 133.973,7.711 C133.973,7.364 134.247,7.082 134.587,7.082 C134.926,7.082 135.201,7.364 135.201,7.711 C135.201,8.058 134.926,8.339 134.587,8.339 ZM131.127,142.916 C130.788,142.916 130.513,142.635 130.513,142.288 C130.513,141.941 130.788,141.659 131.127,141.659 C131.466,141.659 131.741,141.941 131.741,142.288 C131.741,142.635 131.466,142.916 131.127,142.916 ZM131.127,128.750 C130.788,128.750 130.513,128.469 130.513,128.122 C130.513,127.774 130.788,127.493 131.127,127.493 C131.466,127.493 131.741,127.774 131.741,128.122 C131.741,128.469 131.466,128.750 131.127,128.750 ZM131.127,114.584 C130.788,114.584 130.513,114.303 130.513,113.955 C130.513,113.609 130.788,113.327 131.127,113.327 C131.466,113.327 131.741,113.609 131.741,113.955 C131.741,114.303 131.466,114.584 131.127,114.584 ZM131.127,100.418 C130.788,100.418 130.513,100.137 130.513,99.790 C130.513,99.443 130.788,99.162 131.127,99.162 C131.466,99.162 131.741,99.443 131.741,99.790 C131.741,100.137 131.466,100.418 131.127,100.418 ZM131.127,86.252 C130.788,86.252 130.513,85.971 130.513,85.624 C130.513,85.277 130.788,84.995 131.127,84.995 C131.466,84.995 131.741,85.277 131.741,85.624 C131.741,85.971 131.466,86.252 131.127,86.252 ZM131.127,72.086 C130.788,72.086 130.513,71.805 130.513,71.458 C130.513,71.111 130.788,70.829 131.127,70.829 C131.466,70.829 131.741,71.111 131.741,71.458 C131.741,71.805 131.466,72.086 131.127,72.086 ZM131.127,57.920 C130.788,57.920 130.513,57.639 130.513,57.292 C130.513,56.944 130.788,56.663 131.127,56.663 C131.466,56.663 131.741,56.944 131.741,57.292 C131.741,57.639 131.466,57.920 131.127,57.920 ZM131.127,43.754 C130.788,43.754 130.513,43.473 130.513,43.125 C130.513,42.779 130.788,42.497 131.127,42.497 C131.466,42.497 131.741,42.779 131.741,43.125 C131.741,43.473 131.466,43.754 131.127,43.754 ZM131.127,29.589 C130.788,29.589 130.513,29.307 130.513,28.960 C130.513,28.613 130.788,28.332 131.127,28.332 C131.466,28.332 131.741,28.613 131.741,28.960 C131.741,29.307 131.466,29.589 131.127,29.589 ZM131.127,15.422 C130.788,15.422 130.513,15.141 130.513,14.794 C130.513,14.447 130.788,14.165 131.127,14.165 C131.466,14.165 131.741,14.447 131.741,14.794 C131.741,15.141 131.466,15.422 131.127,15.422 ZM131.127,1.257 C130.788,1.257 130.513,0.975 130.513,0.628 C130.513,0.280 130.788,-0.001 131.127,-0.001 C131.466,-0.001 131.741,0.280 131.741,0.628 C131.741,0.975 131.466,1.257 131.127,1.257 ZM127.667,149.999 C127.328,149.999 127.053,149.718 127.053,149.371 C127.053,149.023 127.328,148.742 127.667,148.742 C128.006,148.742 128.282,149.023 128.282,149.371 C128.282,149.718 128.006,149.999 127.667,149.999 ZM127.667,135.833 C127.328,135.833 127.053,135.553 127.053,135.204 C127.053,134.858 127.328,134.576 127.667,134.576 C128.006,134.576 128.282,134.858 128.282,135.204 C128.282,135.553 128.006,135.833 127.667,135.833 ZM127.667,121.667 C127.328,121.667 127.053,121.385 127.053,121.039 C127.053,120.692 127.328,120.410 127.667,120.410 C128.006,120.410 128.282,120.692 128.282,121.039 C128.282,121.385 128.006,121.667 127.667,121.667 ZM127.667,107.502 C127.328,107.502 127.053,107.220 127.053,106.873 C127.053,106.526 127.328,106.244 127.667,106.244 C128.006,106.244 128.282,106.526 128.282,106.873 C128.282,107.220 128.006,107.502 127.667,107.502 ZM127.667,93.335 C127.328,93.335 127.053,93.054 127.053,92.707 C127.053,92.359 127.328,92.078 127.667,92.078 C128.006,92.078 128.282,92.359 128.282,92.707 C128.282,93.054 128.006,93.335 127.667,93.335 ZM127.667,79.169 C127.328,79.169 127.053,78.888 127.053,78.541 C127.053,78.193 127.328,77.912 127.667,77.912 C128.006,77.912 128.282,78.193 128.282,78.541 C128.282,78.888 128.006,79.169 127.667,79.169 ZM127.667,65.003 C127.328,65.003 127.053,64.723 127.053,64.374 C127.053,64.028 127.328,63.746 127.667,63.746 C128.006,63.746 128.282,64.028 128.282,64.374 C128.282,64.723 128.006,65.003 127.667,65.003 ZM127.667,50.837 C127.328,50.837 127.053,50.555 127.053,50.209 C127.053,49.862 127.328,49.580 127.667,49.580 C128.006,49.580 128.282,49.862 128.282,50.209 C128.282,50.555 128.006,50.837 127.667,50.837 ZM127.667,36.671 C127.328,36.671 127.053,36.390 127.053,36.043 C127.053,35.696 127.328,35.414 127.667,35.414 C128.006,35.414 128.282,35.696 128.282,36.043 C128.282,36.390 128.006,36.671 127.667,36.671 ZM127.667,22.505 C127.328,22.505 127.053,22.224 127.053,21.877 C127.053,21.529 127.328,21.249 127.667,21.249 C128.006,21.249 128.282,21.529 128.282,21.877 C128.282,22.224 128.006,22.505 127.667,22.505 ZM127.667,8.339 C127.328,8.339 127.053,8.058 127.053,7.711 C127.053,7.364 127.328,7.082 127.667,7.082 C128.006,7.082 128.282,7.364 128.282,7.711 C128.282,8.058 128.006,8.339 127.667,8.339 ZM124.208,142.916 C123.869,142.916 123.593,142.635 123.593,142.288 C123.593,141.941 123.869,141.659 124.208,141.659 C124.547,141.659 124.822,141.941 124.822,142.288 C124.822,142.635 124.547,142.916 124.208,142.916 ZM124.208,128.750 C123.869,128.750 123.593,128.469 123.593,128.122 C123.593,127.774 123.869,127.493 124.208,127.493 C124.547,127.493 124.822,127.774 124.822,128.122 C124.822,128.469 124.547,128.750 124.208,128.750 ZM124.208,114.584 C123.869,114.584 123.593,114.303 123.593,113.955 C123.593,113.609 123.869,113.327 124.208,113.327 C124.547,113.327 124.822,113.609 124.822,113.955 C124.822,114.303 124.547,114.584 124.208,114.584 ZM124.208,100.418 C123.869,100.418 123.593,100.137 123.593,99.790 C123.593,99.443 123.869,99.162 124.208,99.162 C124.547,99.162 124.822,99.443 124.822,99.790 C124.822,100.137 124.547,100.418 124.208,100.418 ZM124.208,86.252 C123.869,86.252 123.593,85.971 123.593,85.624 C123.593,85.277 123.869,84.995 124.208,84.995 C124.547,84.995 124.822,85.277 124.822,85.624 C124.822,85.971 124.547,86.252 124.208,86.252 ZM124.208,72.086 C123.869,72.086 123.593,71.805 123.593,71.458 C123.593,71.111 123.869,70.829 124.208,70.829 C124.547,70.829 124.822,71.111 124.822,71.458 C124.822,71.805 124.547,72.086 124.208,72.086 ZM124.208,57.920 C123.869,57.920 123.593,57.639 123.593,57.292 C123.593,56.944 123.869,56.663 124.208,56.663 C124.547,56.663 124.822,56.944 124.822,57.292 C124.822,57.639 124.547,57.920 124.208,57.920 ZM124.208,43.754 C123.869,43.754 123.593,43.473 123.593,43.125 C123.593,42.779 123.869,42.497 124.208,42.497 C124.547,42.497 124.822,42.779 124.822,43.125 C124.822,43.473 124.547,43.754 124.208,43.754 ZM124.208,29.589 C123.869,29.589 123.593,29.307 123.593,28.960 C123.593,28.613 123.869,28.332 124.208,28.332 C124.547,28.332 124.822,28.613 124.822,28.960 C124.822,29.307 124.547,29.589 124.208,29.589 ZM124.208,15.422 C123.869,15.422 123.593,15.141 123.593,14.794 C123.593,14.447 123.869,14.165 124.208,14.165 C124.547,14.165 124.822,14.447 124.822,14.794 C124.822,15.141 124.547,15.422 124.208,15.422 ZM124.208,1.257 C123.869,1.257 123.593,0.975 123.593,0.628 C123.593,0.280 123.869,-0.001 124.208,-0.001 C124.547,-0.001 124.822,0.280 124.822,0.628 C124.822,0.975 124.547,1.257 124.208,1.257 ZM120.748,149.999 C120.409,149.999 120.134,149.718 120.134,149.371 C120.134,149.023 120.409,148.742 120.748,148.742 C121.087,148.742 121.361,149.023 121.361,149.371 C121.361,149.718 121.087,149.999 120.748,149.999 ZM120.748,135.833 C120.409,135.833 120.134,135.553 120.134,135.204 C120.134,134.858 120.409,134.576 120.748,134.576 C121.087,134.576 121.361,134.858 121.361,135.204 C121.361,135.553 121.087,135.833 120.748,135.833 ZM120.748,121.667 C120.409,121.667 120.134,121.385 120.134,121.039 C120.134,120.692 120.409,120.410 120.748,120.410 C121.087,120.410 121.361,120.692 121.361,121.039 C121.361,121.385 121.087,121.667 120.748,121.667 ZM120.748,107.502 C120.409,107.502 120.134,107.220 120.134,106.873 C120.134,106.526 120.409,106.244 120.748,106.244 C121.087,106.244 121.361,106.526 121.361,106.873 C121.361,107.220 121.087,107.502 120.748,107.502 ZM120.748,93.335 C120.409,93.335 120.134,93.054 120.134,92.707 C120.134,92.359 120.409,92.078 120.748,92.078 C121.087,92.078 121.361,92.359 121.361,92.707 C121.361,93.054 121.087,93.335 120.748,93.335 ZM120.748,79.169 C120.409,79.169 120.134,78.888 120.134,78.541 C120.134,78.193 120.409,77.912 120.748,77.912 C121.087,77.912 121.361,78.193 121.361,78.541 C121.361,78.888 121.087,79.169 120.748,79.169 ZM120.748,65.003 C120.409,65.003 120.134,64.723 120.134,64.374 C120.134,64.028 120.409,63.746 120.748,63.746 C121.087,63.746 121.361,64.028 121.361,64.374 C121.361,64.723 121.087,65.003 120.748,65.003 ZM120.748,50.837 C120.409,50.837 120.134,50.555 120.134,50.209 C120.134,49.862 120.409,49.580 120.748,49.580 C121.087,49.580 121.361,49.862 121.361,50.209 C121.361,50.555 121.087,50.837 120.748,50.837 ZM120.748,36.671 C120.409,36.671 120.134,36.390 120.134,36.043 C120.134,35.696 120.409,35.414 120.748,35.414 C121.087,35.414 121.361,35.696 121.361,36.043 C121.361,36.390 121.087,36.671 120.748,36.671 ZM120.748,22.505 C120.409,22.505 120.134,22.224 120.134,21.877 C120.134,21.529 120.409,21.249 120.748,21.249 C121.087,21.249 121.361,21.529 121.361,21.877 C121.361,22.224 121.087,22.505 120.748,22.505 ZM120.748,8.339 C120.409,8.339 120.134,8.058 120.134,7.711 C120.134,7.364 120.409,7.082 120.748,7.082 C121.087,7.082 121.361,7.364 121.361,7.711 C121.361,8.058 121.087,8.339 120.748,8.339 ZM117.288,142.916 C116.948,142.916 116.674,142.635 116.674,142.288 C116.674,141.941 116.948,141.659 117.288,141.659 C117.627,141.659 117.902,141.941 117.902,142.288 C117.902,142.635 117.627,142.916 117.288,142.916 ZM117.288,128.750 C116.948,128.750 116.674,128.469 116.674,128.122 C116.674,127.774 116.948,127.493 117.288,127.493 C117.627,127.493 117.902,127.774 117.902,128.122 C117.902,128.469 117.627,128.750 117.288,128.750 ZM117.288,114.584 C116.948,114.584 116.674,114.303 116.674,113.955 C116.674,113.609 116.948,113.327 117.288,113.327 C117.627,113.327 117.902,113.609 117.902,113.955 C117.902,114.303 117.627,114.584 117.288,114.584 ZM117.288,100.418 C116.948,100.418 116.674,100.137 116.674,99.790 C116.674,99.443 116.948,99.162 117.288,99.162 C117.627,99.162 117.902,99.443 117.902,99.790 C117.902,100.137 117.627,100.418 117.288,100.418 ZM117.288,86.252 C116.948,86.252 116.674,85.971 116.674,85.624 C116.674,85.277 116.948,84.995 117.288,84.995 C117.627,84.995 117.902,85.277 117.902,85.624 C117.902,85.971 117.627,86.252 117.288,86.252 ZM117.288,72.086 C116.948,72.086 116.674,71.805 116.674,71.458 C116.674,71.111 116.948,70.829 117.288,70.829 C117.627,70.829 117.902,71.111 117.902,71.458 C117.902,71.805 117.627,72.086 117.288,72.086 ZM117.288,57.920 C116.948,57.920 116.674,57.639 116.674,57.292 C116.674,56.944 116.948,56.663 117.288,56.663 C117.627,56.663 117.902,56.944 117.902,57.292 C117.902,57.639 117.627,57.920 117.288,57.920 ZM117.288,43.754 C116.948,43.754 116.674,43.473 116.674,43.125 C116.674,42.779 116.948,42.497 117.288,42.497 C117.627,42.497 117.902,42.779 117.902,43.125 C117.902,43.473 117.627,43.754 117.288,43.754 ZM117.288,29.589 C116.948,29.589 116.674,29.307 116.674,28.960 C116.674,28.613 116.948,28.332 117.288,28.332 C117.627,28.332 117.902,28.613 117.902,28.960 C117.902,29.307 117.627,29.589 117.288,29.589 ZM117.288,15.422 C116.948,15.422 116.674,15.141 116.674,14.794 C116.674,14.447 116.948,14.165 117.288,14.165 C117.627,14.165 117.902,14.447 117.902,14.794 C117.902,15.141 117.627,15.422 117.288,15.422 ZM117.288,1.257 C116.948,1.257 116.674,0.975 116.674,0.628 C116.674,0.280 116.948,-0.001 117.288,-0.001 C117.627,-0.001 117.902,0.280 117.902,0.628 C117.902,0.975 117.627,1.257 117.288,1.257 ZM113.828,149.999 C113.489,149.999 113.213,149.718 113.213,149.371 C113.213,149.023 113.489,148.742 113.828,148.742 C114.167,148.742 114.442,149.023 114.442,149.371 C114.442,149.718 114.167,149.999 113.828,149.999 ZM113.828,135.833 C113.489,135.833 113.213,135.553 113.213,135.204 C113.213,134.858 113.489,134.576 113.828,134.576 C114.167,134.576 114.442,134.858 114.442,135.204 C114.442,135.553 114.167,135.833 113.828,135.833 ZM113.828,121.667 C113.489,121.667 113.213,121.385 113.213,121.039 C113.213,120.692 113.489,120.410 113.828,120.410 C114.167,120.410 114.442,120.692 114.442,121.039 C114.442,121.385 114.167,121.667 113.828,121.667 ZM113.828,107.502 C113.489,107.502 113.213,107.220 113.213,106.873 C113.213,106.526 113.489,106.244 113.828,106.244 C114.167,106.244 114.442,106.526 114.442,106.873 C114.442,107.220 114.167,107.502 113.828,107.502 ZM113.828,93.335 C113.489,93.335 113.213,93.054 113.213,92.707 C113.213,92.359 113.489,92.078 113.828,92.078 C114.167,92.078 114.442,92.359 114.442,92.707 C114.442,93.054 114.167,93.335 113.828,93.335 ZM113.828,79.169 C113.489,79.169 113.213,78.888 113.213,78.541 C113.213,78.193 113.489,77.912 113.828,77.912 C114.167,77.912 114.442,78.193 114.442,78.541 C114.442,78.888 114.167,79.169 113.828,79.169 ZM113.828,65.003 C113.489,65.003 113.213,64.723 113.213,64.374 C113.213,64.028 113.489,63.746 113.828,63.746 C114.167,63.746 114.442,64.028 114.442,64.374 C114.442,64.723 114.167,65.003 113.828,65.003 ZM113.828,50.837 C113.489,50.837 113.213,50.555 113.213,50.209 C113.213,49.862 113.489,49.580 113.828,49.580 C114.167,49.580 114.442,49.862 114.442,50.209 C114.442,50.555 114.167,50.837 113.828,50.837 ZM113.828,36.671 C113.489,36.671 113.213,36.390 113.213,36.043 C113.213,35.696 113.489,35.414 113.828,35.414 C114.167,35.414 114.442,35.696 114.442,36.043 C114.442,36.390 114.167,36.671 113.828,36.671 ZM113.828,22.505 C113.489,22.505 113.213,22.224 113.213,21.877 C113.213,21.529 113.489,21.249 113.828,21.249 C114.167,21.249 114.442,21.529 114.442,21.877 C114.442,22.224 114.167,22.505 113.828,22.505 ZM113.828,8.339 C113.489,8.339 113.213,8.058 113.213,7.711 C113.213,7.364 113.489,7.082 113.828,7.082 C114.167,7.082 114.442,7.364 114.442,7.711 C114.442,8.058 114.167,8.339 113.828,8.339 ZM110.368,142.916 C110.029,142.916 109.754,142.635 109.754,142.288 C109.754,141.941 110.029,141.659 110.368,141.659 C110.707,141.659 110.982,141.941 110.982,142.288 C110.982,142.635 110.707,142.916 110.368,142.916 ZM110.368,128.750 C110.029,128.750 109.754,128.469 109.754,128.122 C109.754,127.774 110.029,127.493 110.368,127.493 C110.707,127.493 110.982,127.774 110.982,128.122 C110.982,128.469 110.707,128.750 110.368,128.750 ZM110.368,114.584 C110.029,114.584 109.754,114.303 109.754,113.955 C109.754,113.609 110.029,113.327 110.368,113.327 C110.707,113.327 110.982,113.609 110.982,113.955 C110.982,114.303 110.707,114.584 110.368,114.584 ZM110.368,100.418 C110.029,100.418 109.754,100.137 109.754,99.790 C109.754,99.443 110.029,99.162 110.368,99.162 C110.707,99.162 110.982,99.443 110.982,99.790 C110.982,100.137 110.707,100.418 110.368,100.418 ZM110.368,86.252 C110.029,86.252 109.754,85.971 109.754,85.624 C109.754,85.277 110.029,84.995 110.368,84.995 C110.707,84.995 110.982,85.277 110.982,85.624 C110.982,85.971 110.707,86.252 110.368,86.252 ZM110.368,72.086 C110.029,72.086 109.754,71.805 109.754,71.458 C109.754,71.111 110.029,70.829 110.368,70.829 C110.707,70.829 110.982,71.111 110.982,71.458 C110.982,71.805 110.707,72.086 110.368,72.086 ZM110.368,57.920 C110.029,57.920 109.754,57.639 109.754,57.292 C109.754,56.944 110.029,56.663 110.368,56.663 C110.707,56.663 110.982,56.944 110.982,57.292 C110.982,57.639 110.707,57.920 110.368,57.920 ZM110.368,43.754 C110.029,43.754 109.754,43.473 109.754,43.125 C109.754,42.779 110.029,42.497 110.368,42.497 C110.707,42.497 110.982,42.779 110.982,43.125 C110.982,43.473 110.707,43.754 110.368,43.754 ZM110.368,29.589 C110.029,29.589 109.754,29.307 109.754,28.960 C109.754,28.613 110.029,28.332 110.368,28.332 C110.707,28.332 110.982,28.613 110.982,28.960 C110.982,29.307 110.707,29.589 110.368,29.589 ZM110.368,15.422 C110.029,15.422 109.754,15.141 109.754,14.794 C109.754,14.447 110.029,14.165 110.368,14.165 C110.707,14.165 110.982,14.447 110.982,14.794 C110.982,15.141 110.707,15.422 110.368,15.422 ZM110.368,1.257 C110.029,1.257 109.754,0.975 109.754,0.628 C109.754,0.280 110.029,-0.001 110.368,-0.001 C110.707,-0.001 110.982,0.280 110.982,0.628 C110.982,0.975 110.707,1.257 110.368,1.257 ZM106.908,149.999 C106.569,149.999 106.294,149.718 106.294,149.371 C106.294,149.023 106.569,148.742 106.908,148.742 C107.248,148.742 107.522,149.023 107.522,149.371 C107.522,149.718 107.248,149.999 106.908,149.999 ZM106.908,135.833 C106.569,135.833 106.294,135.553 106.294,135.204 C106.294,134.858 106.569,134.576 106.908,134.576 C107.248,134.576 107.522,134.858 107.522,135.204 C107.522,135.553 107.248,135.833 106.908,135.833 ZM106.908,121.667 C106.569,121.667 106.294,121.385 106.294,121.039 C106.294,120.692 106.569,120.410 106.908,120.410 C107.248,120.410 107.522,120.692 107.522,121.039 C107.522,121.385 107.248,121.667 106.908,121.667 ZM106.908,107.502 C106.569,107.502 106.294,107.220 106.294,106.873 C106.294,106.526 106.569,106.244 106.908,106.244 C107.248,106.244 107.522,106.526 107.522,106.873 C107.522,107.220 107.248,107.502 106.908,107.502 ZM106.908,93.335 C106.569,93.335 106.294,93.054 106.294,92.707 C106.294,92.359 106.569,92.078 106.908,92.078 C107.248,92.078 107.522,92.359 107.522,92.707 C107.522,93.054 107.248,93.335 106.908,93.335 ZM106.908,79.169 C106.569,79.169 106.294,78.888 106.294,78.541 C106.294,78.193 106.569,77.912 106.908,77.912 C107.248,77.912 107.522,78.193 107.522,78.541 C107.522,78.888 107.248,79.169 106.908,79.169 ZM106.908,65.003 C106.569,65.003 106.294,64.723 106.294,64.374 C106.294,64.028 106.569,63.746 106.908,63.746 C107.248,63.746 107.522,64.028 107.522,64.374 C107.522,64.723 107.248,65.003 106.908,65.003 ZM106.908,50.837 C106.569,50.837 106.294,50.555 106.294,50.209 C106.294,49.862 106.569,49.580 106.908,49.580 C107.248,49.580 107.522,49.862 107.522,50.209 C107.522,50.555 107.248,50.837 106.908,50.837 ZM106.908,36.671 C106.569,36.671 106.294,36.390 106.294,36.043 C106.294,35.696 106.569,35.414 106.908,35.414 C107.248,35.414 107.522,35.696 107.522,36.043 C107.522,36.390 107.248,36.671 106.908,36.671 ZM106.908,22.505 C106.569,22.505 106.294,22.224 106.294,21.877 C106.294,21.529 106.569,21.249 106.908,21.249 C107.248,21.249 107.522,21.529 107.522,21.877 C107.522,22.224 107.248,22.505 106.908,22.505 ZM106.908,8.339 C106.569,8.339 106.294,8.058 106.294,7.711 C106.294,7.364 106.569,7.082 106.908,7.082 C107.248,7.082 107.522,7.364 107.522,7.711 C107.522,8.058 107.248,8.339 106.908,8.339 ZM103.448,142.916 C103.109,142.916 102.834,142.635 102.834,142.288 C102.834,141.941 103.109,141.659 103.448,141.659 C103.788,141.659 104.062,141.941 104.062,142.288 C104.062,142.635 103.788,142.916 103.448,142.916 ZM103.448,128.750 C103.109,128.750 102.834,128.469 102.834,128.122 C102.834,127.774 103.109,127.493 103.448,127.493 C103.788,127.493 104.062,127.774 104.062,128.122 C104.062,128.469 103.788,128.750 103.448,128.750 ZM103.448,114.584 C103.109,114.584 102.834,114.303 102.834,113.955 C102.834,113.609 103.109,113.327 103.448,113.327 C103.788,113.327 104.062,113.609 104.062,113.955 C104.062,114.303 103.788,114.584 103.448,114.584 ZM103.448,100.418 C103.109,100.418 102.834,100.137 102.834,99.790 C102.834,99.443 103.109,99.162 103.448,99.162 C103.788,99.162 104.062,99.443 104.062,99.790 C104.062,100.137 103.788,100.418 103.448,100.418 ZM103.448,86.252 C103.109,86.252 102.834,85.971 102.834,85.624 C102.834,85.277 103.109,84.995 103.448,84.995 C103.788,84.995 104.062,85.277 104.062,85.624 C104.062,85.971 103.788,86.252 103.448,86.252 ZM103.448,72.086 C103.109,72.086 102.834,71.805 102.834,71.458 C102.834,71.111 103.109,70.829 103.448,70.829 C103.788,70.829 104.062,71.111 104.062,71.458 C104.062,71.805 103.788,72.086 103.448,72.086 ZM103.448,57.920 C103.109,57.920 102.834,57.639 102.834,57.292 C102.834,56.944 103.109,56.663 103.448,56.663 C103.788,56.663 104.062,56.944 104.062,57.292 C104.062,57.639 103.788,57.920 103.448,57.920 ZM103.448,43.754 C103.109,43.754 102.834,43.473 102.834,43.125 C102.834,42.779 103.109,42.497 103.448,42.497 C103.788,42.497 104.062,42.779 104.062,43.125 C104.062,43.473 103.788,43.754 103.448,43.754 ZM103.448,29.589 C103.109,29.589 102.834,29.307 102.834,28.960 C102.834,28.613 103.109,28.332 103.448,28.332 C103.788,28.332 104.062,28.613 104.062,28.960 C104.062,29.307 103.788,29.589 103.448,29.589 ZM103.448,15.422 C103.109,15.422 102.834,15.141 102.834,14.794 C102.834,14.447 103.109,14.165 103.448,14.165 C103.788,14.165 104.062,14.447 104.062,14.794 C104.062,15.141 103.788,15.422 103.448,15.422 ZM103.448,1.257 C103.109,1.257 102.834,0.975 102.834,0.628 C102.834,0.280 103.109,-0.001 103.448,-0.001 C103.788,-0.001 104.062,0.280 104.062,0.628 C104.062,0.975 103.788,1.257 103.448,1.257 ZM99.989,149.999 C99.649,149.999 99.374,149.718 99.374,149.371 C99.374,149.023 99.649,148.742 99.989,148.742 C100.328,148.742 100.603,149.023 100.603,149.371 C100.603,149.718 100.328,149.999 99.989,149.999 ZM99.989,135.833 C99.649,135.833 99.374,135.553 99.374,135.204 C99.374,134.858 99.649,134.576 99.989,134.576 C100.328,134.576 100.603,134.858 100.603,135.204 C100.603,135.553 100.328,135.833 99.989,135.833 ZM99.989,121.667 C99.649,121.667 99.374,121.385 99.374,121.039 C99.374,120.692 99.649,120.410 99.989,120.410 C100.328,120.410 100.603,120.692 100.603,121.039 C100.603,121.385 100.328,121.667 99.989,121.667 ZM99.989,107.502 C99.649,107.502 99.374,107.220 99.374,106.873 C99.374,106.526 99.649,106.244 99.989,106.244 C100.328,106.244 100.603,106.526 100.603,106.873 C100.603,107.220 100.328,107.502 99.989,107.502 ZM99.989,93.335 C99.649,93.335 99.374,93.054 99.374,92.707 C99.374,92.359 99.649,92.078 99.989,92.078 C100.328,92.078 100.603,92.359 100.603,92.707 C100.603,93.054 100.328,93.335 99.989,93.335 ZM99.989,79.169 C99.649,79.169 99.374,78.888 99.374,78.541 C99.374,78.193 99.649,77.912 99.989,77.912 C100.328,77.912 100.603,78.193 100.603,78.541 C100.603,78.888 100.328,79.169 99.989,79.169 ZM99.989,65.003 C99.649,65.003 99.374,64.723 99.374,64.374 C99.374,64.028 99.649,63.746 99.989,63.746 C100.328,63.746 100.603,64.028 100.603,64.374 C100.603,64.723 100.328,65.003 99.989,65.003 ZM99.989,50.837 C99.649,50.837 99.374,50.555 99.374,50.209 C99.374,49.862 99.649,49.580 99.989,49.580 C100.328,49.580 100.603,49.862 100.603,50.209 C100.603,50.555 100.328,50.837 99.989,50.837 ZM99.989,36.671 C99.649,36.671 99.374,36.390 99.374,36.043 C99.374,35.696 99.649,35.414 99.989,35.414 C100.328,35.414 100.603,35.696 100.603,36.043 C100.603,36.390 100.328,36.671 99.989,36.671 ZM99.989,22.505 C99.649,22.505 99.374,22.224 99.374,21.877 C99.374,21.529 99.649,21.249 99.989,21.249 C100.328,21.249 100.603,21.529 100.603,21.877 C100.603,22.224 100.328,22.505 99.989,22.505 ZM99.989,8.339 C99.649,8.339 99.374,8.058 99.374,7.711 C99.374,7.364 99.649,7.082 99.989,7.082 C100.328,7.082 100.603,7.364 100.603,7.711 C100.603,8.058 100.328,8.339 99.989,8.339 ZM96.529,142.916 C96.190,142.916 95.914,142.635 95.914,142.288 C95.914,141.941 96.190,141.659 96.529,141.659 C96.868,141.659 97.143,141.941 97.143,142.288 C97.143,142.635 96.868,142.916 96.529,142.916 ZM96.529,128.750 C96.190,128.750 95.914,128.469 95.914,128.122 C95.914,127.774 96.190,127.493 96.529,127.493 C96.868,127.493 97.143,127.774 97.143,128.122 C97.143,128.469 96.868,128.750 96.529,128.750 ZM96.529,114.584 C96.190,114.584 95.914,114.303 95.914,113.955 C95.914,113.609 96.190,113.327 96.529,113.327 C96.868,113.327 97.143,113.609 97.143,113.955 C97.143,114.303 96.868,114.584 96.529,114.584 ZM96.529,100.418 C96.190,100.418 95.914,100.137 95.914,99.790 C95.914,99.443 96.190,99.162 96.529,99.162 C96.868,99.162 97.143,99.443 97.143,99.790 C97.143,100.137 96.868,100.418 96.529,100.418 ZM96.529,86.252 C96.190,86.252 95.914,85.971 95.914,85.624 C95.914,85.277 96.190,84.995 96.529,84.995 C96.868,84.995 97.143,85.277 97.143,85.624 C97.143,85.971 96.868,86.252 96.529,86.252 ZM96.529,72.086 C96.190,72.086 95.914,71.805 95.914,71.458 C95.914,71.111 96.190,70.829 96.529,70.829 C96.868,70.829 97.143,71.111 97.143,71.458 C97.143,71.805 96.868,72.086 96.529,72.086 ZM96.529,57.920 C96.190,57.920 95.914,57.639 95.914,57.292 C95.914,56.944 96.190,56.663 96.529,56.663 C96.868,56.663 97.143,56.944 97.143,57.292 C97.143,57.639 96.868,57.920 96.529,57.920 ZM96.529,43.754 C96.190,43.754 95.914,43.473 95.914,43.125 C95.914,42.779 96.190,42.497 96.529,42.497 C96.868,42.497 97.143,42.779 97.143,43.125 C97.143,43.473 96.868,43.754 96.529,43.754 ZM96.529,29.589 C96.190,29.589 95.914,29.307 95.914,28.960 C95.914,28.613 96.190,28.332 96.529,28.332 C96.868,28.332 97.143,28.613 97.143,28.960 C97.143,29.307 96.868,29.589 96.529,29.589 ZM96.529,15.422 C96.190,15.422 95.914,15.141 95.914,14.794 C95.914,14.447 96.190,14.165 96.529,14.165 C96.868,14.165 97.143,14.447 97.143,14.794 C97.143,15.141 96.868,15.422 96.529,15.422 ZM96.529,1.257 C96.190,1.257 95.914,0.975 95.914,0.628 C95.914,0.280 96.190,-0.001 96.529,-0.001 C96.868,-0.001 97.143,0.280 97.143,0.628 C97.143,0.975 96.868,1.257 96.529,1.257 ZM93.069,149.999 C92.730,149.999 92.455,149.718 92.455,149.371 C92.455,149.023 92.730,148.742 93.069,148.742 C93.408,148.742 93.683,149.023 93.683,149.371 C93.683,149.718 93.408,149.999 93.069,149.999 ZM93.069,135.833 C92.730,135.833 92.455,135.553 92.455,135.204 C92.455,134.858 92.730,134.576 93.069,134.576 C93.408,134.576 93.683,134.858 93.683,135.204 C93.683,135.553 93.408,135.833 93.069,135.833 ZM93.069,121.667 C92.730,121.667 92.455,121.385 92.455,121.039 C92.455,120.692 92.730,120.410 93.069,120.410 C93.408,120.410 93.683,120.692 93.683,121.039 C93.683,121.385 93.408,121.667 93.069,121.667 ZM93.069,107.502 C92.730,107.502 92.455,107.220 92.455,106.873 C92.455,106.526 92.730,106.244 93.069,106.244 C93.408,106.244 93.683,106.526 93.683,106.873 C93.683,107.220 93.408,107.502 93.069,107.502 ZM93.069,93.335 C92.730,93.335 92.455,93.054 92.455,92.707 C92.455,92.359 92.730,92.078 93.069,92.078 C93.408,92.078 93.683,92.359 93.683,92.707 C93.683,93.054 93.408,93.335 93.069,93.335 ZM93.069,79.169 C92.730,79.169 92.455,78.888 92.455,78.541 C92.455,78.193 92.730,77.912 93.069,77.912 C93.408,77.912 93.683,78.193 93.683,78.541 C93.683,78.888 93.408,79.169 93.069,79.169 ZM93.069,65.003 C92.730,65.003 92.455,64.723 92.455,64.374 C92.455,64.028 92.730,63.746 93.069,63.746 C93.408,63.746 93.683,64.028 93.683,64.374 C93.683,64.723 93.408,65.003 93.069,65.003 ZM93.069,50.837 C92.730,50.837 92.455,50.555 92.455,50.209 C92.455,49.862 92.730,49.580 93.069,49.580 C93.408,49.580 93.683,49.862 93.683,50.209 C93.683,50.555 93.408,50.837 93.069,50.837 ZM93.069,36.671 C92.730,36.671 92.455,36.390 92.455,36.043 C92.455,35.696 92.730,35.414 93.069,35.414 C93.408,35.414 93.683,35.696 93.683,36.043 C93.683,36.390 93.408,36.671 93.069,36.671 ZM93.069,22.505 C92.730,22.505 92.455,22.224 92.455,21.877 C92.455,21.529 92.730,21.249 93.069,21.249 C93.408,21.249 93.683,21.529 93.683,21.877 C93.683,22.224 93.408,22.505 93.069,22.505 ZM93.069,8.339 C92.730,8.339 92.455,8.058 92.455,7.711 C92.455,7.364 92.730,7.082 93.069,7.082 C93.408,7.082 93.683,7.364 93.683,7.711 C93.683,8.058 93.408,8.339 93.069,8.339 ZM89.609,142.916 C89.270,142.916 88.995,142.635 88.995,142.288 C88.995,141.941 89.270,141.659 89.609,141.659 C89.948,141.659 90.223,141.941 90.223,142.288 C90.223,142.635 89.948,142.916 89.609,142.916 ZM89.609,128.750 C89.270,128.750 88.995,128.469 88.995,128.122 C88.995,127.774 89.270,127.493 89.609,127.493 C89.948,127.493 90.223,127.774 90.223,128.122 C90.223,128.469 89.948,128.750 89.609,128.750 ZM89.609,114.584 C89.270,114.584 88.995,114.303 88.995,113.955 C88.995,113.609 89.270,113.327 89.609,113.327 C89.948,113.327 90.223,113.609 90.223,113.955 C90.223,114.303 89.948,114.584 89.609,114.584 ZM89.609,100.418 C89.270,100.418 88.995,100.137 88.995,99.790 C88.995,99.443 89.270,99.162 89.609,99.162 C89.948,99.162 90.223,99.443 90.223,99.790 C90.223,100.137 89.948,100.418 89.609,100.418 ZM89.609,86.252 C89.270,86.252 88.995,85.971 88.995,85.624 C88.995,85.277 89.270,84.995 89.609,84.995 C89.948,84.995 90.223,85.277 90.223,85.624 C90.223,85.971 89.948,86.252 89.609,86.252 ZM89.609,72.086 C89.270,72.086 88.995,71.805 88.995,71.458 C88.995,71.111 89.270,70.829 89.609,70.829 C89.948,70.829 90.223,71.111 90.223,71.458 C90.223,71.805 89.948,72.086 89.609,72.086 ZM89.609,57.920 C89.270,57.920 88.995,57.639 88.995,57.292 C88.995,56.944 89.270,56.663 89.609,56.663 C89.948,56.663 90.223,56.944 90.223,57.292 C90.223,57.639 89.948,57.920 89.609,57.920 ZM89.609,43.754 C89.270,43.754 88.995,43.473 88.995,43.125 C88.995,42.779 89.270,42.497 89.609,42.497 C89.948,42.497 90.223,42.779 90.223,43.125 C90.223,43.473 89.948,43.754 89.609,43.754 ZM89.609,29.589 C89.270,29.589 88.995,29.307 88.995,28.960 C88.995,28.613 89.270,28.332 89.609,28.332 C89.948,28.332 90.223,28.613 90.223,28.960 C90.223,29.307 89.948,29.589 89.609,29.589 ZM89.609,15.422 C89.270,15.422 88.995,15.141 88.995,14.794 C88.995,14.447 89.270,14.165 89.609,14.165 C89.948,14.165 90.223,14.447 90.223,14.794 C90.223,15.141 89.948,15.422 89.609,15.422 ZM89.609,1.257 C89.270,1.257 88.995,0.975 88.995,0.628 C88.995,0.280 89.270,-0.001 89.609,-0.001 C89.948,-0.001 90.223,0.280 90.223,0.628 C90.223,0.975 89.948,1.257 89.609,1.257 ZM86.149,149.999 C85.810,149.999 85.535,149.718 85.535,149.371 C85.535,149.023 85.810,148.742 86.149,148.742 C86.488,148.742 86.763,149.023 86.763,149.371 C86.763,149.718 86.488,149.999 86.149,149.999 ZM86.149,135.833 C85.810,135.833 85.535,135.553 85.535,135.204 C85.535,134.858 85.810,134.576 86.149,134.576 C86.488,134.576 86.763,134.858 86.763,135.204 C86.763,135.553 86.488,135.833 86.149,135.833 ZM86.149,121.667 C85.810,121.667 85.535,121.385 85.535,121.039 C85.535,120.692 85.810,120.410 86.149,120.410 C86.488,120.410 86.763,120.692 86.763,121.039 C86.763,121.385 86.488,121.667 86.149,121.667 ZM86.149,107.502 C85.810,107.502 85.535,107.220 85.535,106.873 C85.535,106.526 85.810,106.244 86.149,106.244 C86.488,106.244 86.763,106.526 86.763,106.873 C86.763,107.220 86.488,107.502 86.149,107.502 ZM86.149,93.335 C85.810,93.335 85.535,93.054 85.535,92.707 C85.535,92.359 85.810,92.078 86.149,92.078 C86.488,92.078 86.763,92.359 86.763,92.707 C86.763,93.054 86.488,93.335 86.149,93.335 ZM86.149,79.169 C85.810,79.169 85.535,78.888 85.535,78.541 C85.535,78.193 85.810,77.912 86.149,77.912 C86.488,77.912 86.763,78.193 86.763,78.541 C86.763,78.888 86.488,79.169 86.149,79.169 ZM86.149,65.003 C85.810,65.003 85.535,64.723 85.535,64.374 C85.535,64.028 85.810,63.746 86.149,63.746 C86.488,63.746 86.763,64.028 86.763,64.374 C86.763,64.723 86.488,65.003 86.149,65.003 ZM86.149,50.837 C85.810,50.837 85.535,50.555 85.535,50.209 C85.535,49.862 85.810,49.580 86.149,49.580 C86.488,49.580 86.763,49.862 86.763,50.209 C86.763,50.555 86.488,50.837 86.149,50.837 ZM86.149,36.671 C85.810,36.671 85.535,36.390 85.535,36.043 C85.535,35.696 85.810,35.414 86.149,35.414 C86.488,35.414 86.763,35.696 86.763,36.043 C86.763,36.390 86.488,36.671 86.149,36.671 ZM86.149,22.505 C85.810,22.505 85.535,22.224 85.535,21.877 C85.535,21.529 85.810,21.249 86.149,21.249 C86.488,21.249 86.763,21.529 86.763,21.877 C86.763,22.224 86.488,22.505 86.149,22.505 ZM86.149,8.339 C85.810,8.339 85.535,8.058 85.535,7.711 C85.535,7.364 85.810,7.082 86.149,7.082 C86.488,7.082 86.763,7.364 86.763,7.711 C86.763,8.058 86.488,8.339 86.149,8.339 ZM82.690,142.916 C82.350,142.916 82.075,142.635 82.075,142.288 C82.075,141.941 82.350,141.659 82.690,141.659 C83.029,141.659 83.304,141.941 83.304,142.288 C83.304,142.635 83.029,142.916 82.690,142.916 ZM82.690,128.750 C82.350,128.750 82.075,128.469 82.075,128.122 C82.075,127.774 82.350,127.493 82.690,127.493 C83.029,127.493 83.304,127.774 83.304,128.122 C83.304,128.469 83.029,128.750 82.690,128.750 ZM82.690,114.584 C82.350,114.584 82.075,114.303 82.075,113.955 C82.075,113.609 82.350,113.327 82.690,113.327 C83.029,113.327 83.304,113.609 83.304,113.955 C83.304,114.303 83.029,114.584 82.690,114.584 ZM82.690,100.418 C82.350,100.418 82.075,100.137 82.075,99.790 C82.075,99.443 82.350,99.162 82.690,99.162 C83.029,99.162 83.304,99.443 83.304,99.790 C83.304,100.137 83.029,100.418 82.690,100.418 ZM82.690,86.252 C82.350,86.252 82.075,85.971 82.075,85.624 C82.075,85.277 82.350,84.995 82.690,84.995 C83.029,84.995 83.304,85.277 83.304,85.624 C83.304,85.971 83.029,86.252 82.690,86.252 ZM82.690,72.086 C82.350,72.086 82.075,71.805 82.075,71.458 C82.075,71.111 82.350,70.829 82.690,70.829 C83.029,70.829 83.304,71.111 83.304,71.458 C83.304,71.805 83.029,72.086 82.690,72.086 ZM82.690,57.920 C82.350,57.920 82.075,57.639 82.075,57.292 C82.075,56.944 82.350,56.663 82.690,56.663 C83.029,56.663 83.304,56.944 83.304,57.292 C83.304,57.639 83.029,57.920 82.690,57.920 ZM82.690,43.754 C82.350,43.754 82.075,43.473 82.075,43.125 C82.075,42.779 82.350,42.497 82.690,42.497 C83.029,42.497 83.304,42.779 83.304,43.125 C83.304,43.473 83.029,43.754 82.690,43.754 ZM82.690,29.589 C82.350,29.589 82.075,29.307 82.075,28.960 C82.075,28.613 82.350,28.332 82.690,28.332 C83.029,28.332 83.304,28.613 83.304,28.960 C83.304,29.307 83.029,29.589 82.690,29.589 ZM82.690,15.422 C82.350,15.422 82.075,15.141 82.075,14.794 C82.075,14.447 82.350,14.165 82.690,14.165 C83.029,14.165 83.304,14.447 83.304,14.794 C83.304,15.141 83.029,15.422 82.690,15.422 ZM82.690,1.257 C82.350,1.257 82.075,0.975 82.075,0.628 C82.075,0.280 82.350,-0.001 82.690,-0.001 C83.029,-0.001 83.304,0.280 83.304,0.628 C83.304,0.975 83.029,1.257 82.690,1.257 ZM79.230,149.999 C78.891,149.999 78.616,149.718 78.616,149.371 C78.616,149.023 78.891,148.742 79.230,148.742 C79.569,148.742 79.844,149.023 79.844,149.371 C79.844,149.718 79.569,149.999 79.230,149.999 ZM79.230,135.833 C78.891,135.833 78.616,135.553 78.616,135.204 C78.616,134.858 78.891,134.576 79.230,134.576 C79.569,134.576 79.844,134.858 79.844,135.204 C79.844,135.553 79.569,135.833 79.230,135.833 ZM79.230,121.667 C78.891,121.667 78.616,121.385 78.616,121.039 C78.616,120.692 78.891,120.410 79.230,120.410 C79.569,120.410 79.844,120.692 79.844,121.039 C79.844,121.385 79.569,121.667 79.230,121.667 ZM79.230,107.502 C78.891,107.502 78.616,107.220 78.616,106.873 C78.616,106.526 78.891,106.244 79.230,106.244 C79.569,106.244 79.844,106.526 79.844,106.873 C79.844,107.220 79.569,107.502 79.230,107.502 ZM79.230,93.335 C78.891,93.335 78.616,93.054 78.616,92.707 C78.616,92.359 78.891,92.078 79.230,92.078 C79.569,92.078 79.844,92.359 79.844,92.707 C79.844,93.054 79.569,93.335 79.230,93.335 ZM79.230,79.169 C78.891,79.169 78.616,78.888 78.616,78.541 C78.616,78.193 78.891,77.912 79.230,77.912 C79.569,77.912 79.844,78.193 79.844,78.541 C79.844,78.888 79.569,79.169 79.230,79.169 ZM79.230,65.003 C78.891,65.003 78.616,64.723 78.616,64.374 C78.616,64.028 78.891,63.746 79.230,63.746 C79.569,63.746 79.844,64.028 79.844,64.374 C79.844,64.723 79.569,65.003 79.230,65.003 ZM79.230,50.837 C78.891,50.837 78.616,50.555 78.616,50.209 C78.616,49.862 78.891,49.580 79.230,49.580 C79.569,49.580 79.844,49.862 79.844,50.209 C79.844,50.555 79.569,50.837 79.230,50.837 ZM79.230,36.671 C78.891,36.671 78.616,36.390 78.616,36.043 C78.616,35.696 78.891,35.414 79.230,35.414 C79.569,35.414 79.844,35.696 79.844,36.043 C79.844,36.390 79.569,36.671 79.230,36.671 ZM79.230,22.505 C78.891,22.505 78.616,22.224 78.616,21.877 C78.616,21.529 78.891,21.249 79.230,21.249 C79.569,21.249 79.844,21.529 79.844,21.877 C79.844,22.224 79.569,22.505 79.230,22.505 ZM79.230,8.339 C78.891,8.339 78.616,8.058 78.616,7.711 C78.616,7.364 78.891,7.082 79.230,7.082 C79.569,7.082 79.844,7.364 79.844,7.711 C79.844,8.058 79.569,8.339 79.230,8.339 ZM75.770,142.916 C75.431,142.916 75.156,142.635 75.156,142.288 C75.156,141.941 75.431,141.659 75.770,141.659 C76.109,141.659 76.384,141.941 76.384,142.288 C76.384,142.635 76.109,142.916 75.770,142.916 ZM75.770,128.750 C75.431,128.750 75.156,128.469 75.156,128.122 C75.156,127.774 75.431,127.493 75.770,127.493 C76.109,127.493 76.384,127.774 76.384,128.122 C76.384,128.469 76.109,128.750 75.770,128.750 ZM75.770,114.584 C75.431,114.584 75.156,114.303 75.156,113.955 C75.156,113.609 75.431,113.327 75.770,113.327 C76.109,113.327 76.384,113.609 76.384,113.955 C76.384,114.303 76.109,114.584 75.770,114.584 ZM75.770,100.418 C75.431,100.418 75.156,100.137 75.156,99.790 C75.156,99.443 75.431,99.162 75.770,99.162 C76.109,99.162 76.384,99.443 76.384,99.790 C76.384,100.137 76.109,100.418 75.770,100.418 ZM75.770,86.252 C75.431,86.252 75.156,85.971 75.156,85.624 C75.156,85.277 75.431,84.995 75.770,84.995 C76.109,84.995 76.384,85.277 76.384,85.624 C76.384,85.971 76.109,86.252 75.770,86.252 ZM75.770,72.086 C75.431,72.086 75.156,71.805 75.156,71.458 C75.156,71.111 75.431,70.829 75.770,70.829 C76.109,70.829 76.384,71.111 76.384,71.458 C76.384,71.805 76.109,72.086 75.770,72.086 ZM75.770,57.920 C75.431,57.920 75.156,57.639 75.156,57.292 C75.156,56.944 75.431,56.663 75.770,56.663 C76.109,56.663 76.384,56.944 76.384,57.292 C76.384,57.639 76.109,57.920 75.770,57.920 ZM75.770,43.754 C75.431,43.754 75.156,43.473 75.156,43.125 C75.156,42.779 75.431,42.497 75.770,42.497 C76.109,42.497 76.384,42.779 76.384,43.125 C76.384,43.473 76.109,43.754 75.770,43.754 ZM75.770,29.589 C75.431,29.589 75.156,29.307 75.156,28.960 C75.156,28.613 75.431,28.332 75.770,28.332 C76.109,28.332 76.384,28.613 76.384,28.960 C76.384,29.307 76.109,29.589 75.770,29.589 ZM75.770,15.422 C75.431,15.422 75.156,15.141 75.156,14.794 C75.156,14.447 75.431,14.165 75.770,14.165 C76.109,14.165 76.384,14.447 76.384,14.794 C76.384,15.141 76.109,15.422 75.770,15.422 ZM75.770,1.257 C75.431,1.257 75.156,0.975 75.156,0.628 C75.156,0.280 75.431,-0.001 75.770,-0.001 C76.109,-0.001 76.384,0.280 76.384,0.628 C76.384,0.975 76.109,1.257 75.770,1.257 ZM72.310,149.999 C71.971,149.999 71.696,149.718 71.696,149.371 C71.696,149.023 71.971,148.742 72.310,148.742 C72.649,148.742 72.924,149.023 72.924,149.371 C72.924,149.718 72.649,149.999 72.310,149.999 ZM72.310,135.833 C71.971,135.833 71.696,135.553 71.696,135.204 C71.696,134.858 71.971,134.576 72.310,134.576 C72.649,134.576 72.924,134.858 72.924,135.204 C72.924,135.553 72.649,135.833 72.310,135.833 ZM72.310,121.667 C71.971,121.667 71.696,121.385 71.696,121.039 C71.696,120.692 71.971,120.410 72.310,120.410 C72.649,120.410 72.924,120.692 72.924,121.039 C72.924,121.385 72.649,121.667 72.310,121.667 ZM72.310,107.502 C71.971,107.502 71.696,107.220 71.696,106.873 C71.696,106.526 71.971,106.244 72.310,106.244 C72.649,106.244 72.924,106.526 72.924,106.873 C72.924,107.220 72.649,107.502 72.310,107.502 ZM72.310,93.335 C71.971,93.335 71.696,93.054 71.696,92.707 C71.696,92.359 71.971,92.078 72.310,92.078 C72.649,92.078 72.924,92.359 72.924,92.707 C72.924,93.054 72.649,93.335 72.310,93.335 ZM72.310,79.169 C71.971,79.169 71.696,78.888 71.696,78.541 C71.696,78.193 71.971,77.912 72.310,77.912 C72.649,77.912 72.924,78.193 72.924,78.541 C72.924,78.888 72.649,79.169 72.310,79.169 ZM72.310,65.003 C71.971,65.003 71.696,64.723 71.696,64.374 C71.696,64.028 71.971,63.746 72.310,63.746 C72.649,63.746 72.924,64.028 72.924,64.374 C72.924,64.723 72.649,65.003 72.310,65.003 ZM72.310,50.837 C71.971,50.837 71.696,50.555 71.696,50.209 C71.696,49.862 71.971,49.580 72.310,49.580 C72.649,49.580 72.924,49.862 72.924,50.209 C72.924,50.555 72.649,50.837 72.310,50.837 ZM72.310,36.671 C71.971,36.671 71.696,36.390 71.696,36.043 C71.696,35.696 71.971,35.414 72.310,35.414 C72.649,35.414 72.924,35.696 72.924,36.043 C72.924,36.390 72.649,36.671 72.310,36.671 ZM72.310,22.505 C71.971,22.505 71.696,22.224 71.696,21.877 C71.696,21.529 71.971,21.249 72.310,21.249 C72.649,21.249 72.924,21.529 72.924,21.877 C72.924,22.224 72.649,22.505 72.310,22.505 ZM72.310,8.339 C71.971,8.339 71.696,8.058 71.696,7.711 C71.696,7.364 71.971,7.082 72.310,7.082 C72.649,7.082 72.924,7.364 72.924,7.711 C72.924,8.058 72.649,8.339 72.310,8.339 ZM68.850,142.916 C68.511,142.916 68.236,142.635 68.236,142.288 C68.236,141.941 68.511,141.659 68.850,141.659 C69.189,141.659 69.464,141.941 69.464,142.288 C69.464,142.635 69.189,142.916 68.850,142.916 ZM68.850,128.750 C68.511,128.750 68.236,128.469 68.236,128.122 C68.236,127.774 68.511,127.493 68.850,127.493 C69.189,127.493 69.464,127.774 69.464,128.122 C69.464,128.469 69.189,128.750 68.850,128.750 ZM68.850,114.584 C68.511,114.584 68.236,114.303 68.236,113.955 C68.236,113.609 68.511,113.327 68.850,113.327 C69.189,113.327 69.464,113.609 69.464,113.955 C69.464,114.303 69.189,114.584 68.850,114.584 ZM68.850,100.418 C68.511,100.418 68.236,100.137 68.236,99.790 C68.236,99.443 68.511,99.162 68.850,99.162 C69.189,99.162 69.464,99.443 69.464,99.790 C69.464,100.137 69.189,100.418 68.850,100.418 ZM68.850,86.252 C68.511,86.252 68.236,85.971 68.236,85.624 C68.236,85.277 68.511,84.995 68.850,84.995 C69.189,84.995 69.464,85.277 69.464,85.624 C69.464,85.971 69.189,86.252 68.850,86.252 ZM68.850,72.086 C68.511,72.086 68.236,71.805 68.236,71.458 C68.236,71.111 68.511,70.829 68.850,70.829 C69.189,70.829 69.464,71.111 69.464,71.458 C69.464,71.805 69.189,72.086 68.850,72.086 ZM68.850,57.920 C68.511,57.920 68.236,57.639 68.236,57.292 C68.236,56.944 68.511,56.663 68.850,56.663 C69.189,56.663 69.464,56.944 69.464,57.292 C69.464,57.639 69.189,57.920 68.850,57.920 ZM68.850,43.754 C68.511,43.754 68.236,43.473 68.236,43.125 C68.236,42.779 68.511,42.497 68.850,42.497 C69.189,42.497 69.464,42.779 69.464,43.125 C69.464,43.473 69.189,43.754 68.850,43.754 ZM68.850,29.589 C68.511,29.589 68.236,29.307 68.236,28.960 C68.236,28.613 68.511,28.332 68.850,28.332 C69.189,28.332 69.464,28.613 69.464,28.960 C69.464,29.307 69.189,29.589 68.850,29.589 ZM68.850,15.422 C68.511,15.422 68.236,15.141 68.236,14.794 C68.236,14.447 68.511,14.165 68.850,14.165 C69.189,14.165 69.464,14.447 69.464,14.794 C69.464,15.141 69.189,15.422 68.850,15.422 ZM68.850,1.257 C68.511,1.257 68.236,0.975 68.236,0.628 C68.236,0.280 68.511,-0.001 68.850,-0.001 C69.189,-0.001 69.464,0.280 69.464,0.628 C69.464,0.975 69.189,1.257 68.850,1.257 ZM65.391,149.999 C65.051,149.999 64.776,149.718 64.776,149.371 C64.776,149.023 65.051,148.742 65.391,148.742 C65.730,148.742 66.004,149.023 66.004,149.371 C66.004,149.718 65.730,149.999 65.391,149.999 ZM65.391,135.833 C65.051,135.833 64.776,135.553 64.776,135.204 C64.776,134.858 65.051,134.576 65.391,134.576 C65.730,134.576 66.004,134.858 66.004,135.204 C66.004,135.553 65.730,135.833 65.391,135.833 ZM65.391,121.667 C65.051,121.667 64.776,121.385 64.776,121.039 C64.776,120.692 65.051,120.410 65.391,120.410 C65.730,120.410 66.004,120.692 66.004,121.039 C66.004,121.385 65.730,121.667 65.391,121.667 ZM65.391,107.502 C65.051,107.502 64.776,107.220 64.776,106.873 C64.776,106.526 65.051,106.244 65.391,106.244 C65.730,106.244 66.004,106.526 66.004,106.873 C66.004,107.220 65.730,107.502 65.391,107.502 ZM65.391,93.335 C65.051,93.335 64.776,93.054 64.776,92.707 C64.776,92.359 65.051,92.078 65.391,92.078 C65.730,92.078 66.004,92.359 66.004,92.707 C66.004,93.054 65.730,93.335 65.391,93.335 ZM65.391,79.169 C65.051,79.169 64.776,78.888 64.776,78.541 C64.776,78.193 65.051,77.912 65.391,77.912 C65.730,77.912 66.004,78.193 66.004,78.541 C66.004,78.888 65.730,79.169 65.391,79.169 ZM65.391,65.003 C65.051,65.003 64.776,64.723 64.776,64.374 C64.776,64.028 65.051,63.746 65.391,63.746 C65.730,63.746 66.004,64.028 66.004,64.374 C66.004,64.723 65.730,65.003 65.391,65.003 ZM65.391,50.837 C65.051,50.837 64.776,50.555 64.776,50.209 C64.776,49.862 65.051,49.580 65.391,49.580 C65.730,49.580 66.004,49.862 66.004,50.209 C66.004,50.555 65.730,50.837 65.391,50.837 ZM65.391,36.671 C65.051,36.671 64.776,36.390 64.776,36.043 C64.776,35.696 65.051,35.414 65.391,35.414 C65.730,35.414 66.004,35.696 66.004,36.043 C66.004,36.390 65.730,36.671 65.391,36.671 ZM65.391,22.505 C65.051,22.505 64.776,22.224 64.776,21.877 C64.776,21.529 65.051,21.249 65.391,21.249 C65.730,21.249 66.004,21.529 66.004,21.877 C66.004,22.224 65.730,22.505 65.391,22.505 ZM65.391,8.339 C65.051,8.339 64.776,8.058 64.776,7.711 C64.776,7.364 65.051,7.082 65.391,7.082 C65.730,7.082 66.004,7.364 66.004,7.711 C66.004,8.058 65.730,8.339 65.391,8.339 ZM61.931,142.916 C61.591,142.916 61.316,142.635 61.316,142.288 C61.316,141.941 61.591,141.659 61.931,141.659 C62.270,141.659 62.545,141.941 62.545,142.288 C62.545,142.635 62.270,142.916 61.931,142.916 ZM61.931,128.750 C61.591,128.750 61.316,128.469 61.316,128.122 C61.316,127.774 61.591,127.493 61.931,127.493 C62.270,127.493 62.545,127.774 62.545,128.122 C62.545,128.469 62.270,128.750 61.931,128.750 ZM61.931,114.584 C61.591,114.584 61.316,114.303 61.316,113.955 C61.316,113.609 61.591,113.327 61.931,113.327 C62.270,113.327 62.545,113.609 62.545,113.955 C62.545,114.303 62.270,114.584 61.931,114.584 ZM61.931,100.418 C61.591,100.418 61.316,100.137 61.316,99.790 C61.316,99.443 61.591,99.162 61.931,99.162 C62.270,99.162 62.545,99.443 62.545,99.790 C62.545,100.137 62.270,100.418 61.931,100.418 ZM61.931,86.252 C61.591,86.252 61.316,85.971 61.316,85.624 C61.316,85.277 61.591,84.995 61.931,84.995 C62.270,84.995 62.545,85.277 62.545,85.624 C62.545,85.971 62.270,86.252 61.931,86.252 ZM61.931,72.086 C61.591,72.086 61.316,71.805 61.316,71.458 C61.316,71.111 61.591,70.829 61.931,70.829 C62.270,70.829 62.545,71.111 62.545,71.458 C62.545,71.805 62.270,72.086 61.931,72.086 ZM61.931,57.920 C61.591,57.920 61.316,57.639 61.316,57.292 C61.316,56.944 61.591,56.663 61.931,56.663 C62.270,56.663 62.545,56.944 62.545,57.292 C62.545,57.639 62.270,57.920 61.931,57.920 ZM61.931,43.754 C61.591,43.754 61.316,43.473 61.316,43.125 C61.316,42.779 61.591,42.497 61.931,42.497 C62.270,42.497 62.545,42.779 62.545,43.125 C62.545,43.473 62.270,43.754 61.931,43.754 ZM61.931,29.589 C61.591,29.589 61.316,29.307 61.316,28.960 C61.316,28.613 61.591,28.332 61.931,28.332 C62.270,28.332 62.545,28.613 62.545,28.960 C62.545,29.307 62.270,29.589 61.931,29.589 ZM61.931,15.422 C61.591,15.422 61.316,15.141 61.316,14.794 C61.316,14.447 61.591,14.165 61.931,14.165 C62.270,14.165 62.545,14.447 62.545,14.794 C62.545,15.141 62.270,15.422 61.931,15.422 ZM61.931,1.257 C61.591,1.257 61.316,0.975 61.316,0.628 C61.316,0.280 61.591,-0.001 61.931,-0.001 C62.270,-0.001 62.545,0.280 62.545,0.628 C62.545,0.975 62.270,1.257 61.931,1.257 ZM58.471,149.999 C58.132,149.999 57.857,149.718 57.857,149.371 C57.857,149.023 58.132,148.742 58.471,148.742 C58.810,148.742 59.085,149.023 59.085,149.371 C59.085,149.718 58.810,149.999 58.471,149.999 ZM58.471,135.833 C58.132,135.833 57.857,135.553 57.857,135.204 C57.857,134.858 58.132,134.576 58.471,134.576 C58.810,134.576 59.085,134.858 59.085,135.204 C59.085,135.553 58.810,135.833 58.471,135.833 ZM58.471,121.667 C58.132,121.667 57.857,121.385 57.857,121.039 C57.857,120.692 58.132,120.410 58.471,120.410 C58.810,120.410 59.085,120.692 59.085,121.039 C59.085,121.385 58.810,121.667 58.471,121.667 ZM58.471,107.502 C58.132,107.502 57.857,107.220 57.857,106.873 C57.857,106.526 58.132,106.244 58.471,106.244 C58.810,106.244 59.085,106.526 59.085,106.873 C59.085,107.220 58.810,107.502 58.471,107.502 ZM58.471,93.335 C58.132,93.335 57.857,93.054 57.857,92.707 C57.857,92.359 58.132,92.078 58.471,92.078 C58.810,92.078 59.085,92.359 59.085,92.707 C59.085,93.054 58.810,93.335 58.471,93.335 ZM58.471,79.169 C58.132,79.169 57.857,78.888 57.857,78.541 C57.857,78.193 58.132,77.912 58.471,77.912 C58.810,77.912 59.085,78.193 59.085,78.541 C59.085,78.888 58.810,79.169 58.471,79.169 ZM58.471,65.003 C58.132,65.003 57.857,64.723 57.857,64.374 C57.857,64.028 58.132,63.746 58.471,63.746 C58.810,63.746 59.085,64.028 59.085,64.374 C59.085,64.723 58.810,65.003 58.471,65.003 ZM58.471,50.837 C58.132,50.837 57.857,50.555 57.857,50.209 C57.857,49.862 58.132,49.580 58.471,49.580 C58.810,49.580 59.085,49.862 59.085,50.209 C59.085,50.555 58.810,50.837 58.471,50.837 ZM58.471,36.671 C58.132,36.671 57.857,36.390 57.857,36.043 C57.857,35.696 58.132,35.414 58.471,35.414 C58.810,35.414 59.085,35.696 59.085,36.043 C59.085,36.390 58.810,36.671 58.471,36.671 ZM58.471,22.505 C58.132,22.505 57.857,22.224 57.857,21.877 C57.857,21.529 58.132,21.249 58.471,21.249 C58.810,21.249 59.085,21.529 59.085,21.877 C59.085,22.224 58.810,22.505 58.471,22.505 ZM58.471,8.339 C58.132,8.339 57.857,8.058 57.857,7.711 C57.857,7.364 58.132,7.082 58.471,7.082 C58.810,7.082 59.085,7.364 59.085,7.711 C59.085,8.058 58.810,8.339 58.471,8.339 ZM55.011,142.916 C54.672,142.916 54.397,142.635 54.397,142.288 C54.397,141.941 54.672,141.659 55.011,141.659 C55.350,141.659 55.625,141.941 55.625,142.288 C55.625,142.635 55.350,142.916 55.011,142.916 ZM55.011,128.750 C54.672,128.750 54.397,128.469 54.397,128.122 C54.397,127.774 54.672,127.493 55.011,127.493 C55.350,127.493 55.625,127.774 55.625,128.122 C55.625,128.469 55.350,128.750 55.011,128.750 ZM55.011,114.584 C54.672,114.584 54.397,114.303 54.397,113.955 C54.397,113.609 54.672,113.327 55.011,113.327 C55.350,113.327 55.625,113.609 55.625,113.955 C55.625,114.303 55.350,114.584 55.011,114.584 ZM55.011,100.418 C54.672,100.418 54.397,100.137 54.397,99.790 C54.397,99.443 54.672,99.162 55.011,99.162 C55.350,99.162 55.625,99.443 55.625,99.790 C55.625,100.137 55.350,100.418 55.011,100.418 ZM55.011,86.252 C54.672,86.252 54.397,85.971 54.397,85.624 C54.397,85.277 54.672,84.995 55.011,84.995 C55.350,84.995 55.625,85.277 55.625,85.624 C55.625,85.971 55.350,86.252 55.011,86.252 ZM55.011,72.086 C54.672,72.086 54.397,71.805 54.397,71.458 C54.397,71.111 54.672,70.829 55.011,70.829 C55.350,70.829 55.625,71.111 55.625,71.458 C55.625,71.805 55.350,72.086 55.011,72.086 ZM55.011,57.920 C54.672,57.920 54.397,57.639 54.397,57.292 C54.397,56.944 54.672,56.663 55.011,56.663 C55.350,56.663 55.625,56.944 55.625,57.292 C55.625,57.639 55.350,57.920 55.011,57.920 ZM55.011,43.754 C54.672,43.754 54.397,43.473 54.397,43.125 C54.397,42.779 54.672,42.497 55.011,42.497 C55.350,42.497 55.625,42.779 55.625,43.125 C55.625,43.473 55.350,43.754 55.011,43.754 ZM55.011,29.589 C54.672,29.589 54.397,29.307 54.397,28.960 C54.397,28.613 54.672,28.332 55.011,28.332 C55.350,28.332 55.625,28.613 55.625,28.960 C55.625,29.307 55.350,29.589 55.011,29.589 ZM55.011,15.422 C54.672,15.422 54.397,15.141 54.397,14.794 C54.397,14.447 54.672,14.165 55.011,14.165 C55.350,14.165 55.625,14.447 55.625,14.794 C55.625,15.141 55.350,15.422 55.011,15.422 ZM55.011,1.257 C54.672,1.257 54.397,0.975 54.397,0.628 C54.397,0.280 54.672,-0.001 55.011,-0.001 C55.350,-0.001 55.625,0.280 55.625,0.628 C55.625,0.975 55.350,1.257 55.011,1.257 ZM51.551,149.999 C51.212,149.999 50.937,149.718 50.937,149.371 C50.937,149.023 51.212,148.742 51.551,148.742 C51.890,148.742 52.165,149.023 52.165,149.371 C52.165,149.718 51.890,149.999 51.551,149.999 ZM51.551,135.833 C51.212,135.833 50.937,135.553 50.937,135.204 C50.937,134.858 51.212,134.576 51.551,134.576 C51.890,134.576 52.165,134.858 52.165,135.204 C52.165,135.553 51.890,135.833 51.551,135.833 ZM51.551,121.667 C51.212,121.667 50.937,121.385 50.937,121.039 C50.937,120.692 51.212,120.410 51.551,120.410 C51.890,120.410 52.165,120.692 52.165,121.039 C52.165,121.385 51.890,121.667 51.551,121.667 ZM51.551,107.502 C51.212,107.502 50.937,107.220 50.937,106.873 C50.937,106.526 51.212,106.244 51.551,106.244 C51.890,106.244 52.165,106.526 52.165,106.873 C52.165,107.220 51.890,107.502 51.551,107.502 ZM51.551,93.335 C51.212,93.335 50.937,93.054 50.937,92.707 C50.937,92.359 51.212,92.078 51.551,92.078 C51.890,92.078 52.165,92.359 52.165,92.707 C52.165,93.054 51.890,93.335 51.551,93.335 ZM51.551,79.169 C51.212,79.169 50.937,78.888 50.937,78.541 C50.937,78.193 51.212,77.912 51.551,77.912 C51.890,77.912 52.165,78.193 52.165,78.541 C52.165,78.888 51.890,79.169 51.551,79.169 ZM51.551,65.003 C51.212,65.003 50.937,64.723 50.937,64.374 C50.937,64.028 51.212,63.746 51.551,63.746 C51.890,63.746 52.165,64.028 52.165,64.374 C52.165,64.723 51.890,65.003 51.551,65.003 ZM51.551,50.837 C51.212,50.837 50.937,50.555 50.937,50.209 C50.937,49.862 51.212,49.580 51.551,49.580 C51.890,49.580 52.165,49.862 52.165,50.209 C52.165,50.555 51.890,50.837 51.551,50.837 ZM51.551,36.671 C51.212,36.671 50.937,36.390 50.937,36.043 C50.937,35.696 51.212,35.414 51.551,35.414 C51.890,35.414 52.165,35.696 52.165,36.043 C52.165,36.390 51.890,36.671 51.551,36.671 ZM51.551,22.505 C51.212,22.505 50.937,22.224 50.937,21.877 C50.937,21.529 51.212,21.249 51.551,21.249 C51.890,21.249 52.165,21.529 52.165,21.877 C52.165,22.224 51.890,22.505 51.551,22.505 ZM51.551,8.339 C51.212,8.339 50.937,8.058 50.937,7.711 C50.937,7.364 51.212,7.082 51.551,7.082 C51.890,7.082 52.165,7.364 52.165,7.711 C52.165,8.058 51.890,8.339 51.551,8.339 ZM48.092,142.916 C47.752,142.916 47.477,142.635 47.477,142.288 C47.477,141.941 47.752,141.659 48.092,141.659 C48.430,141.659 48.705,141.941 48.705,142.288 C48.705,142.635 48.430,142.916 48.092,142.916 ZM48.092,128.750 C47.752,128.750 47.477,128.469 47.477,128.122 C47.477,127.774 47.752,127.493 48.092,127.493 C48.430,127.493 48.705,127.774 48.705,128.122 C48.705,128.469 48.430,128.750 48.092,128.750 ZM48.092,114.584 C47.752,114.584 47.477,114.303 47.477,113.955 C47.477,113.609 47.752,113.327 48.092,113.327 C48.430,113.327 48.705,113.609 48.705,113.955 C48.705,114.303 48.430,114.584 48.092,114.584 ZM48.092,100.418 C47.752,100.418 47.477,100.137 47.477,99.790 C47.477,99.443 47.752,99.162 48.092,99.162 C48.430,99.162 48.705,99.443 48.705,99.790 C48.705,100.137 48.430,100.418 48.092,100.418 ZM48.092,86.252 C47.752,86.252 47.477,85.971 47.477,85.624 C47.477,85.277 47.752,84.995 48.092,84.995 C48.430,84.995 48.705,85.277 48.705,85.624 C48.705,85.971 48.430,86.252 48.092,86.252 ZM48.092,72.086 C47.752,72.086 47.477,71.805 47.477,71.458 C47.477,71.111 47.752,70.829 48.092,70.829 C48.430,70.829 48.705,71.111 48.705,71.458 C48.705,71.805 48.430,72.086 48.092,72.086 ZM48.092,57.920 C47.752,57.920 47.477,57.639 47.477,57.292 C47.477,56.944 47.752,56.663 48.092,56.663 C48.430,56.663 48.705,56.944 48.705,57.292 C48.705,57.639 48.430,57.920 48.092,57.920 ZM48.092,43.754 C47.752,43.754 47.477,43.473 47.477,43.125 C47.477,42.779 47.752,42.497 48.092,42.497 C48.430,42.497 48.705,42.779 48.705,43.125 C48.705,43.473 48.430,43.754 48.092,43.754 ZM48.092,29.589 C47.752,29.589 47.477,29.307 47.477,28.960 C47.477,28.613 47.752,28.332 48.092,28.332 C48.430,28.332 48.705,28.613 48.705,28.960 C48.705,29.307 48.430,29.589 48.092,29.589 ZM48.092,15.422 C47.752,15.422 47.477,15.141 47.477,14.794 C47.477,14.447 47.752,14.165 48.092,14.165 C48.430,14.165 48.705,14.447 48.705,14.794 C48.705,15.141 48.430,15.422 48.092,15.422 ZM48.092,1.257 C47.752,1.257 47.477,0.975 47.477,0.628 C47.477,0.280 47.752,-0.001 48.092,-0.001 C48.430,-0.001 48.705,0.280 48.705,0.628 C48.705,0.975 48.430,1.257 48.092,1.257 ZM44.631,149.999 C44.292,149.999 44.017,149.718 44.017,149.371 C44.017,149.023 44.292,148.742 44.631,148.742 C44.971,148.742 45.245,149.023 45.245,149.371 C45.245,149.718 44.971,149.999 44.631,149.999 ZM44.631,135.833 C44.292,135.833 44.017,135.553 44.017,135.204 C44.017,134.858 44.292,134.576 44.631,134.576 C44.971,134.576 45.245,134.858 45.245,135.204 C45.245,135.553 44.971,135.833 44.631,135.833 ZM44.631,121.667 C44.292,121.667 44.017,121.385 44.017,121.039 C44.017,120.692 44.292,120.410 44.631,120.410 C44.971,120.410 45.245,120.692 45.245,121.039 C45.245,121.385 44.971,121.667 44.631,121.667 ZM44.631,107.502 C44.292,107.502 44.017,107.220 44.017,106.873 C44.017,106.526 44.292,106.244 44.631,106.244 C44.971,106.244 45.245,106.526 45.245,106.873 C45.245,107.220 44.971,107.502 44.631,107.502 ZM44.631,93.335 C44.292,93.335 44.017,93.054 44.017,92.707 C44.017,92.359 44.292,92.078 44.631,92.078 C44.971,92.078 45.245,92.359 45.245,92.707 C45.245,93.054 44.971,93.335 44.631,93.335 ZM44.631,79.169 C44.292,79.169 44.017,78.888 44.017,78.541 C44.017,78.193 44.292,77.912 44.631,77.912 C44.971,77.912 45.245,78.193 45.245,78.541 C45.245,78.888 44.971,79.169 44.631,79.169 ZM44.631,65.003 C44.292,65.003 44.017,64.723 44.017,64.374 C44.017,64.028 44.292,63.746 44.631,63.746 C44.971,63.746 45.245,64.028 45.245,64.374 C45.245,64.723 44.971,65.003 44.631,65.003 ZM44.631,50.837 C44.292,50.837 44.017,50.555 44.017,50.209 C44.017,49.862 44.292,49.580 44.631,49.580 C44.971,49.580 45.245,49.862 45.245,50.209 C45.245,50.555 44.971,50.837 44.631,50.837 ZM44.631,36.671 C44.292,36.671 44.017,36.390 44.017,36.043 C44.017,35.696 44.292,35.414 44.631,35.414 C44.971,35.414 45.245,35.696 45.245,36.043 C45.245,36.390 44.971,36.671 44.631,36.671 ZM44.631,22.505 C44.292,22.505 44.017,22.224 44.017,21.877 C44.017,21.529 44.292,21.249 44.631,21.249 C44.971,21.249 45.245,21.529 45.245,21.877 C45.245,22.224 44.971,22.505 44.631,22.505 ZM44.631,8.339 C44.292,8.339 44.017,8.058 44.017,7.711 C44.017,7.364 44.292,7.082 44.631,7.082 C44.971,7.082 45.245,7.364 45.245,7.711 C45.245,8.058 44.971,8.339 44.631,8.339 ZM41.171,142.916 C40.833,142.916 40.558,142.635 40.558,142.288 C40.558,141.941 40.833,141.659 41.171,141.659 C41.511,141.659 41.786,141.941 41.786,142.288 C41.786,142.635 41.511,142.916 41.171,142.916 ZM41.171,128.750 C40.833,128.750 40.558,128.469 40.558,128.122 C40.558,127.774 40.833,127.493 41.171,127.493 C41.511,127.493 41.786,127.774 41.786,128.122 C41.786,128.469 41.511,128.750 41.171,128.750 ZM41.171,114.584 C40.833,114.584 40.558,114.303 40.558,113.955 C40.558,113.609 40.833,113.327 41.171,113.327 C41.511,113.327 41.786,113.609 41.786,113.955 C41.786,114.303 41.511,114.584 41.171,114.584 ZM41.171,100.418 C40.833,100.418 40.558,100.137 40.558,99.790 C40.558,99.443 40.833,99.162 41.171,99.162 C41.511,99.162 41.786,99.443 41.786,99.790 C41.786,100.137 41.511,100.418 41.171,100.418 ZM41.171,86.252 C40.833,86.252 40.558,85.971 40.558,85.624 C40.558,85.277 40.833,84.995 41.171,84.995 C41.511,84.995 41.786,85.277 41.786,85.624 C41.786,85.971 41.511,86.252 41.171,86.252 ZM41.171,72.086 C40.833,72.086 40.558,71.805 40.558,71.458 C40.558,71.111 40.833,70.829 41.171,70.829 C41.511,70.829 41.786,71.111 41.786,71.458 C41.786,71.805 41.511,72.086 41.171,72.086 ZM41.171,57.920 C40.833,57.920 40.558,57.639 40.558,57.292 C40.558,56.944 40.833,56.663 41.171,56.663 C41.511,56.663 41.786,56.944 41.786,57.292 C41.786,57.639 41.511,57.920 41.171,57.920 ZM41.171,43.754 C40.833,43.754 40.558,43.473 40.558,43.125 C40.558,42.779 40.833,42.497 41.171,42.497 C41.511,42.497 41.786,42.779 41.786,43.125 C41.786,43.473 41.511,43.754 41.171,43.754 ZM41.171,29.589 C40.833,29.589 40.558,29.307 40.558,28.960 C40.558,28.613 40.833,28.332 41.171,28.332 C41.511,28.332 41.786,28.613 41.786,28.960 C41.786,29.307 41.511,29.589 41.171,29.589 ZM41.171,15.422 C40.833,15.422 40.558,15.141 40.558,14.794 C40.558,14.447 40.833,14.165 41.171,14.165 C41.511,14.165 41.786,14.447 41.786,14.794 C41.786,15.141 41.511,15.422 41.171,15.422 ZM41.171,1.257 C40.833,1.257 40.558,0.975 40.558,0.628 C40.558,0.280 40.833,-0.001 41.171,-0.001 C41.511,-0.001 41.786,0.280 41.786,0.628 C41.786,0.975 41.511,1.257 41.171,1.257 ZM37.712,149.999 C37.373,149.999 37.098,149.718 37.098,149.371 C37.098,149.023 37.373,148.742 37.712,148.742 C38.051,148.742 38.326,149.023 38.326,149.371 C38.326,149.718 38.051,149.999 37.712,149.999 ZM37.712,135.833 C37.373,135.833 37.098,135.553 37.098,135.204 C37.098,134.858 37.373,134.576 37.712,134.576 C38.051,134.576 38.326,134.858 38.326,135.204 C38.326,135.553 38.051,135.833 37.712,135.833 ZM37.712,121.667 C37.373,121.667 37.098,121.385 37.098,121.039 C37.098,120.692 37.373,120.410 37.712,120.410 C38.051,120.410 38.326,120.692 38.326,121.039 C38.326,121.385 38.051,121.667 37.712,121.667 ZM37.712,107.502 C37.373,107.502 37.098,107.220 37.098,106.873 C37.098,106.526 37.373,106.244 37.712,106.244 C38.051,106.244 38.326,106.526 38.326,106.873 C38.326,107.220 38.051,107.502 37.712,107.502 ZM37.712,93.335 C37.373,93.335 37.098,93.054 37.098,92.707 C37.098,92.359 37.373,92.078 37.712,92.078 C38.051,92.078 38.326,92.359 38.326,92.707 C38.326,93.054 38.051,93.335 37.712,93.335 ZM37.712,79.169 C37.373,79.169 37.098,78.888 37.098,78.541 C37.098,78.193 37.373,77.912 37.712,77.912 C38.051,77.912 38.326,78.193 38.326,78.541 C38.326,78.888 38.051,79.169 37.712,79.169 ZM37.712,65.003 C37.373,65.003 37.098,64.723 37.098,64.374 C37.098,64.028 37.373,63.746 37.712,63.746 C38.051,63.746 38.326,64.028 38.326,64.374 C38.326,64.723 38.051,65.003 37.712,65.003 ZM37.712,50.837 C37.373,50.837 37.098,50.555 37.098,50.209 C37.098,49.862 37.373,49.580 37.712,49.580 C38.051,49.580 38.326,49.862 38.326,50.209 C38.326,50.555 38.051,50.837 37.712,50.837 ZM37.712,36.671 C37.373,36.671 37.098,36.390 37.098,36.043 C37.098,35.696 37.373,35.414 37.712,35.414 C38.051,35.414 38.326,35.696 38.326,36.043 C38.326,36.390 38.051,36.671 37.712,36.671 ZM37.712,22.505 C37.373,22.505 37.098,22.224 37.098,21.877 C37.098,21.529 37.373,21.249 37.712,21.249 C38.051,21.249 38.326,21.529 38.326,21.877 C38.326,22.224 38.051,22.505 37.712,22.505 ZM37.712,8.339 C37.373,8.339 37.098,8.058 37.098,7.711 C37.098,7.364 37.373,7.082 37.712,7.082 C38.051,7.082 38.326,7.364 38.326,7.711 C38.326,8.058 38.051,8.339 37.712,8.339 ZM34.252,142.916 C33.913,142.916 33.638,142.635 33.638,142.288 C33.638,141.941 33.913,141.659 34.252,141.659 C34.591,141.659 34.866,141.941 34.866,142.288 C34.866,142.635 34.591,142.916 34.252,142.916 ZM34.252,128.750 C33.913,128.750 33.638,128.469 33.638,128.122 C33.638,127.774 33.913,127.493 34.252,127.493 C34.591,127.493 34.866,127.774 34.866,128.122 C34.866,128.469 34.591,128.750 34.252,128.750 ZM34.252,114.584 C33.913,114.584 33.638,114.303 33.638,113.955 C33.638,113.609 33.913,113.327 34.252,113.327 C34.591,113.327 34.866,113.609 34.866,113.955 C34.866,114.303 34.591,114.584 34.252,114.584 ZM34.252,100.418 C33.913,100.418 33.638,100.137 33.638,99.790 C33.638,99.443 33.913,99.162 34.252,99.162 C34.591,99.162 34.866,99.443 34.866,99.790 C34.866,100.137 34.591,100.418 34.252,100.418 ZM34.252,86.252 C33.913,86.252 33.638,85.971 33.638,85.624 C33.638,85.277 33.913,84.995 34.252,84.995 C34.591,84.995 34.866,85.277 34.866,85.624 C34.866,85.971 34.591,86.252 34.252,86.252 ZM34.252,72.086 C33.913,72.086 33.638,71.805 33.638,71.458 C33.638,71.111 33.913,70.829 34.252,70.829 C34.591,70.829 34.866,71.111 34.866,71.458 C34.866,71.805 34.591,72.086 34.252,72.086 ZM34.252,57.920 C33.913,57.920 33.638,57.639 33.638,57.292 C33.638,56.944 33.913,56.663 34.252,56.663 C34.591,56.663 34.866,56.944 34.866,57.292 C34.866,57.639 34.591,57.920 34.252,57.920 ZM34.252,43.754 C33.913,43.754 33.638,43.473 33.638,43.125 C33.638,42.779 33.913,42.497 34.252,42.497 C34.591,42.497 34.866,42.779 34.866,43.125 C34.866,43.473 34.591,43.754 34.252,43.754 ZM34.252,29.589 C33.913,29.589 33.638,29.307 33.638,28.960 C33.638,28.613 33.913,28.332 34.252,28.332 C34.591,28.332 34.866,28.613 34.866,28.960 C34.866,29.307 34.591,29.589 34.252,29.589 ZM34.252,15.422 C33.913,15.422 33.638,15.141 33.638,14.794 C33.638,14.447 33.913,14.165 34.252,14.165 C34.591,14.165 34.866,14.447 34.866,14.794 C34.866,15.141 34.591,15.422 34.252,15.422 ZM34.252,1.257 C33.913,1.257 33.638,0.975 33.638,0.628 C33.638,0.280 33.913,-0.001 34.252,-0.001 C34.591,-0.001 34.866,0.280 34.866,0.628 C34.866,0.975 34.591,1.257 34.252,1.257 ZM30.792,149.999 C30.453,149.999 30.178,149.718 30.178,149.371 C30.178,149.023 30.453,148.742 30.792,148.742 C31.131,148.742 31.406,149.023 31.406,149.371 C31.406,149.718 31.131,149.999 30.792,149.999 ZM30.792,135.833 C30.453,135.833 30.178,135.553 30.178,135.204 C30.178,134.858 30.453,134.576 30.792,134.576 C31.131,134.576 31.406,134.858 31.406,135.204 C31.406,135.553 31.131,135.833 30.792,135.833 ZM30.792,121.667 C30.453,121.667 30.178,121.385 30.178,121.039 C30.178,120.692 30.453,120.410 30.792,120.410 C31.131,120.410 31.406,120.692 31.406,121.039 C31.406,121.385 31.131,121.667 30.792,121.667 ZM30.792,107.502 C30.453,107.502 30.178,107.220 30.178,106.873 C30.178,106.526 30.453,106.244 30.792,106.244 C31.131,106.244 31.406,106.526 31.406,106.873 C31.406,107.220 31.131,107.502 30.792,107.502 ZM30.792,93.335 C30.453,93.335 30.178,93.054 30.178,92.707 C30.178,92.359 30.453,92.078 30.792,92.078 C31.131,92.078 31.406,92.359 31.406,92.707 C31.406,93.054 31.131,93.335 30.792,93.335 ZM30.792,79.169 C30.453,79.169 30.178,78.888 30.178,78.541 C30.178,78.193 30.453,77.912 30.792,77.912 C31.131,77.912 31.406,78.193 31.406,78.541 C31.406,78.888 31.131,79.169 30.792,79.169 ZM30.792,65.003 C30.453,65.003 30.178,64.723 30.178,64.374 C30.178,64.028 30.453,63.746 30.792,63.746 C31.131,63.746 31.406,64.028 31.406,64.374 C31.406,64.723 31.131,65.003 30.792,65.003 ZM30.792,50.837 C30.453,50.837 30.178,50.555 30.178,50.209 C30.178,49.862 30.453,49.580 30.792,49.580 C31.131,49.580 31.406,49.862 31.406,50.209 C31.406,50.555 31.131,50.837 30.792,50.837 ZM30.792,36.671 C30.453,36.671 30.178,36.390 30.178,36.043 C30.178,35.696 30.453,35.414 30.792,35.414 C31.131,35.414 31.406,35.696 31.406,36.043 C31.406,36.390 31.131,36.671 30.792,36.671 ZM30.792,22.505 C30.453,22.505 30.178,22.224 30.178,21.877 C30.178,21.529 30.453,21.249 30.792,21.249 C31.131,21.249 31.406,21.529 31.406,21.877 C31.406,22.224 31.131,22.505 30.792,22.505 ZM30.792,8.339 C30.453,8.339 30.178,8.058 30.178,7.711 C30.178,7.364 30.453,7.082 30.792,7.082 C31.131,7.082 31.406,7.364 31.406,7.711 C31.406,8.058 31.131,8.339 30.792,8.339 ZM27.332,142.916 C26.993,142.916 26.718,142.635 26.718,142.288 C26.718,141.941 26.993,141.659 27.332,141.659 C27.671,141.659 27.947,141.941 27.947,142.288 C27.947,142.635 27.671,142.916 27.332,142.916 ZM27.332,128.750 C26.993,128.750 26.718,128.469 26.718,128.122 C26.718,127.774 26.993,127.493 27.332,127.493 C27.671,127.493 27.947,127.774 27.947,128.122 C27.947,128.469 27.671,128.750 27.332,128.750 ZM27.332,114.584 C26.993,114.584 26.718,114.303 26.718,113.955 C26.718,113.609 26.993,113.327 27.332,113.327 C27.671,113.327 27.947,113.609 27.947,113.955 C27.947,114.303 27.671,114.584 27.332,114.584 ZM27.332,100.418 C26.993,100.418 26.718,100.137 26.718,99.790 C26.718,99.443 26.993,99.162 27.332,99.162 C27.671,99.162 27.947,99.443 27.947,99.790 C27.947,100.137 27.671,100.418 27.332,100.418 ZM27.332,86.252 C26.993,86.252 26.718,85.971 26.718,85.624 C26.718,85.277 26.993,84.995 27.332,84.995 C27.671,84.995 27.947,85.277 27.947,85.624 C27.947,85.971 27.671,86.252 27.332,86.252 ZM27.332,72.086 C26.993,72.086 26.718,71.805 26.718,71.458 C26.718,71.111 26.993,70.829 27.332,70.829 C27.671,70.829 27.947,71.111 27.947,71.458 C27.947,71.805 27.671,72.086 27.332,72.086 ZM27.332,57.920 C26.993,57.920 26.718,57.639 26.718,57.292 C26.718,56.944 26.993,56.663 27.332,56.663 C27.671,56.663 27.947,56.944 27.947,57.292 C27.947,57.639 27.671,57.920 27.332,57.920 ZM27.332,43.754 C26.993,43.754 26.718,43.473 26.718,43.125 C26.718,42.779 26.993,42.497 27.332,42.497 C27.671,42.497 27.947,42.779 27.947,43.125 C27.947,43.473 27.671,43.754 27.332,43.754 ZM27.332,29.589 C26.993,29.589 26.718,29.307 26.718,28.960 C26.718,28.613 26.993,28.332 27.332,28.332 C27.671,28.332 27.947,28.613 27.947,28.960 C27.947,29.307 27.671,29.589 27.332,29.589 ZM27.332,15.422 C26.993,15.422 26.718,15.141 26.718,14.794 C26.718,14.447 26.993,14.165 27.332,14.165 C27.671,14.165 27.947,14.447 27.947,14.794 C27.947,15.141 27.671,15.422 27.332,15.422 ZM27.332,1.257 C26.993,1.257 26.718,0.975 26.718,0.628 C26.718,0.280 26.993,-0.001 27.332,-0.001 C27.671,-0.001 27.947,0.280 27.947,0.628 C27.947,0.975 27.671,1.257 27.332,1.257 ZM23.872,149.999 C23.533,149.999 23.258,149.718 23.258,149.371 C23.258,149.023 23.533,148.742 23.872,148.742 C24.212,148.742 24.487,149.023 24.487,149.371 C24.487,149.718 24.212,149.999 23.872,149.999 ZM23.872,135.833 C23.533,135.833 23.258,135.553 23.258,135.204 C23.258,134.858 23.533,134.576 23.872,134.576 C24.212,134.576 24.487,134.858 24.487,135.204 C24.487,135.553 24.212,135.833 23.872,135.833 ZM23.872,121.667 C23.533,121.667 23.258,121.385 23.258,121.039 C23.258,120.692 23.533,120.410 23.872,120.410 C24.212,120.410 24.487,120.692 24.487,121.039 C24.487,121.385 24.212,121.667 23.872,121.667 ZM23.872,107.502 C23.533,107.502 23.258,107.220 23.258,106.873 C23.258,106.526 23.533,106.244 23.872,106.244 C24.212,106.244 24.487,106.526 24.487,106.873 C24.487,107.220 24.212,107.502 23.872,107.502 ZM23.872,93.335 C23.533,93.335 23.258,93.054 23.258,92.707 C23.258,92.359 23.533,92.078 23.872,92.078 C24.212,92.078 24.487,92.359 24.487,92.707 C24.487,93.054 24.212,93.335 23.872,93.335 ZM23.872,79.169 C23.533,79.169 23.258,78.888 23.258,78.541 C23.258,78.193 23.533,77.912 23.872,77.912 C24.212,77.912 24.487,78.193 24.487,78.541 C24.487,78.888 24.212,79.169 23.872,79.169 ZM23.872,65.003 C23.533,65.003 23.258,64.723 23.258,64.374 C23.258,64.028 23.533,63.746 23.872,63.746 C24.212,63.746 24.487,64.028 24.487,64.374 C24.487,64.723 24.212,65.003 23.872,65.003 ZM23.872,50.837 C23.533,50.837 23.258,50.555 23.258,50.209 C23.258,49.862 23.533,49.580 23.872,49.580 C24.212,49.580 24.487,49.862 24.487,50.209 C24.487,50.555 24.212,50.837 23.872,50.837 ZM23.872,36.671 C23.533,36.671 23.258,36.390 23.258,36.043 C23.258,35.696 23.533,35.414 23.872,35.414 C24.212,35.414 24.487,35.696 24.487,36.043 C24.487,36.390 24.212,36.671 23.872,36.671 ZM23.872,22.505 C23.533,22.505 23.258,22.224 23.258,21.877 C23.258,21.529 23.533,21.249 23.872,21.249 C24.212,21.249 24.487,21.529 24.487,21.877 C24.487,22.224 24.212,22.505 23.872,22.505 ZM23.872,8.339 C23.533,8.339 23.258,8.058 23.258,7.711 C23.258,7.364 23.533,7.082 23.872,7.082 C24.212,7.082 24.487,7.364 24.487,7.711 C24.487,8.058 24.212,8.339 23.872,8.339 ZM20.413,142.916 C20.074,142.916 19.799,142.635 19.799,142.288 C19.799,141.941 20.074,141.659 20.413,141.659 C20.752,141.659 21.027,141.941 21.027,142.288 C21.027,142.635 20.752,142.916 20.413,142.916 ZM20.413,128.750 C20.074,128.750 19.799,128.469 19.799,128.122 C19.799,127.774 20.074,127.493 20.413,127.493 C20.752,127.493 21.027,127.774 21.027,128.122 C21.027,128.469 20.752,128.750 20.413,128.750 ZM20.413,114.584 C20.074,114.584 19.799,114.303 19.799,113.955 C19.799,113.609 20.074,113.327 20.413,113.327 C20.752,113.327 21.027,113.609 21.027,113.955 C21.027,114.303 20.752,114.584 20.413,114.584 ZM20.413,100.418 C20.074,100.418 19.799,100.137 19.799,99.790 C19.799,99.443 20.074,99.162 20.413,99.162 C20.752,99.162 21.027,99.443 21.027,99.790 C21.027,100.137 20.752,100.418 20.413,100.418 ZM20.413,86.252 C20.074,86.252 19.799,85.971 19.799,85.624 C19.799,85.277 20.074,84.995 20.413,84.995 C20.752,84.995 21.027,85.277 21.027,85.624 C21.027,85.971 20.752,86.252 20.413,86.252 ZM20.413,72.086 C20.074,72.086 19.799,71.805 19.799,71.458 C19.799,71.111 20.074,70.829 20.413,70.829 C20.752,70.829 21.027,71.111 21.027,71.458 C21.027,71.805 20.752,72.086 20.413,72.086 ZM20.413,57.920 C20.074,57.920 19.799,57.639 19.799,57.292 C19.799,56.944 20.074,56.663 20.413,56.663 C20.752,56.663 21.027,56.944 21.027,57.292 C21.027,57.639 20.752,57.920 20.413,57.920 ZM20.413,43.754 C20.074,43.754 19.799,43.473 19.799,43.125 C19.799,42.779 20.074,42.497 20.413,42.497 C20.752,42.497 21.027,42.779 21.027,43.125 C21.027,43.473 20.752,43.754 20.413,43.754 ZM20.413,29.589 C20.074,29.589 19.799,29.307 19.799,28.960 C19.799,28.613 20.074,28.332 20.413,28.332 C20.752,28.332 21.027,28.613 21.027,28.960 C21.027,29.307 20.752,29.589 20.413,29.589 ZM20.413,15.422 C20.074,15.422 19.799,15.141 19.799,14.794 C19.799,14.447 20.074,14.165 20.413,14.165 C20.752,14.165 21.027,14.447 21.027,14.794 C21.027,15.141 20.752,15.422 20.413,15.422 ZM20.413,1.257 C20.074,1.257 19.799,0.975 19.799,0.628 C19.799,0.280 20.074,-0.001 20.413,-0.001 C20.752,-0.001 21.027,0.280 21.027,0.628 C21.027,0.975 20.752,1.257 20.413,1.257 ZM16.953,149.999 C16.614,149.999 16.339,149.718 16.339,149.371 C16.339,149.023 16.614,148.742 16.953,148.742 C17.292,148.742 17.567,149.023 17.567,149.371 C17.567,149.718 17.292,149.999 16.953,149.999 ZM16.953,135.833 C16.614,135.833 16.339,135.553 16.339,135.204 C16.339,134.858 16.614,134.576 16.953,134.576 C17.292,134.576 17.567,134.858 17.567,135.204 C17.567,135.553 17.292,135.833 16.953,135.833 ZM16.953,121.667 C16.614,121.667 16.339,121.385 16.339,121.039 C16.339,120.692 16.614,120.410 16.953,120.410 C17.292,120.410 17.567,120.692 17.567,121.039 C17.567,121.385 17.292,121.667 16.953,121.667 ZM16.953,107.502 C16.614,107.502 16.339,107.220 16.339,106.873 C16.339,106.526 16.614,106.244 16.953,106.244 C17.292,106.244 17.567,106.526 17.567,106.873 C17.567,107.220 17.292,107.502 16.953,107.502 ZM16.953,93.335 C16.614,93.335 16.339,93.054 16.339,92.707 C16.339,92.359 16.614,92.078 16.953,92.078 C17.292,92.078 17.567,92.359 17.567,92.707 C17.567,93.054 17.292,93.335 16.953,93.335 ZM16.953,79.169 C16.614,79.169 16.339,78.888 16.339,78.541 C16.339,78.193 16.614,77.912 16.953,77.912 C17.292,77.912 17.567,78.193 17.567,78.541 C17.567,78.888 17.292,79.169 16.953,79.169 ZM16.953,65.003 C16.614,65.003 16.339,64.723 16.339,64.374 C16.339,64.028 16.614,63.746 16.953,63.746 C17.292,63.746 17.567,64.028 17.567,64.374 C17.567,64.723 17.292,65.003 16.953,65.003 ZM16.953,50.837 C16.614,50.837 16.339,50.555 16.339,50.209 C16.339,49.862 16.614,49.580 16.953,49.580 C17.292,49.580 17.567,49.862 17.567,50.209 C17.567,50.555 17.292,50.837 16.953,50.837 ZM16.953,36.671 C16.614,36.671 16.339,36.390 16.339,36.043 C16.339,35.696 16.614,35.414 16.953,35.414 C17.292,35.414 17.567,35.696 17.567,36.043 C17.567,36.390 17.292,36.671 16.953,36.671 ZM16.953,22.505 C16.614,22.505 16.339,22.224 16.339,21.877 C16.339,21.529 16.614,21.249 16.953,21.249 C17.292,21.249 17.567,21.529 17.567,21.877 C17.567,22.224 17.292,22.505 16.953,22.505 ZM16.953,8.339 C16.614,8.339 16.339,8.058 16.339,7.711 C16.339,7.364 16.614,7.082 16.953,7.082 C17.292,7.082 17.567,7.364 17.567,7.711 C17.567,8.058 17.292,8.339 16.953,8.339 ZM13.493,142.916 C13.154,142.916 12.879,142.635 12.879,142.288 C12.879,141.941 13.154,141.659 13.493,141.659 C13.832,141.659 14.107,141.941 14.107,142.288 C14.107,142.635 13.832,142.916 13.493,142.916 ZM13.493,128.750 C13.154,128.750 12.879,128.469 12.879,128.122 C12.879,127.774 13.154,127.493 13.493,127.493 C13.832,127.493 14.107,127.774 14.107,128.122 C14.107,128.469 13.832,128.750 13.493,128.750 ZM13.493,114.584 C13.154,114.584 12.879,114.303 12.879,113.955 C12.879,113.609 13.154,113.327 13.493,113.327 C13.832,113.327 14.107,113.609 14.107,113.955 C14.107,114.303 13.832,114.584 13.493,114.584 ZM13.493,100.418 C13.154,100.418 12.879,100.137 12.879,99.790 C12.879,99.443 13.154,99.162 13.493,99.162 C13.832,99.162 14.107,99.443 14.107,99.790 C14.107,100.137 13.832,100.418 13.493,100.418 ZM13.493,86.252 C13.154,86.252 12.879,85.971 12.879,85.624 C12.879,85.277 13.154,84.995 13.493,84.995 C13.832,84.995 14.107,85.277 14.107,85.624 C14.107,85.971 13.832,86.252 13.493,86.252 ZM13.493,72.086 C13.154,72.086 12.879,71.805 12.879,71.458 C12.879,71.111 13.154,70.829 13.493,70.829 C13.832,70.829 14.107,71.111 14.107,71.458 C14.107,71.805 13.832,72.086 13.493,72.086 ZM13.493,57.920 C13.154,57.920 12.879,57.639 12.879,57.292 C12.879,56.944 13.154,56.663 13.493,56.663 C13.832,56.663 14.107,56.944 14.107,57.292 C14.107,57.639 13.832,57.920 13.493,57.920 ZM13.493,43.754 C13.154,43.754 12.879,43.473 12.879,43.125 C12.879,42.779 13.154,42.497 13.493,42.497 C13.832,42.497 14.107,42.779 14.107,43.125 C14.107,43.473 13.832,43.754 13.493,43.754 ZM13.493,29.589 C13.154,29.589 12.879,29.307 12.879,28.960 C12.879,28.613 13.154,28.332 13.493,28.332 C13.832,28.332 14.107,28.613 14.107,28.960 C14.107,29.307 13.832,29.589 13.493,29.589 ZM13.493,15.422 C13.154,15.422 12.879,15.141 12.879,14.794 C12.879,14.447 13.154,14.165 13.493,14.165 C13.832,14.165 14.107,14.447 14.107,14.794 C14.107,15.141 13.832,15.422 13.493,15.422 ZM13.493,1.257 C13.154,1.257 12.879,0.975 12.879,0.628 C12.879,0.280 13.154,-0.001 13.493,-0.001 C13.832,-0.001 14.107,0.280 14.107,0.628 C14.107,0.975 13.832,1.257 13.493,1.257 ZM10.033,149.999 C9.694,149.999 9.419,149.718 9.419,149.371 C9.419,149.023 9.694,148.742 10.033,148.742 C10.372,148.742 10.648,149.023 10.648,149.371 C10.648,149.718 10.372,149.999 10.033,149.999 ZM10.033,135.833 C9.694,135.833 9.419,135.553 9.419,135.204 C9.419,134.858 9.694,134.576 10.033,134.576 C10.372,134.576 10.648,134.858 10.648,135.204 C10.648,135.553 10.372,135.833 10.033,135.833 ZM10.033,121.667 C9.694,121.667 9.419,121.385 9.419,121.039 C9.419,120.692 9.694,120.410 10.033,120.410 C10.372,120.410 10.648,120.692 10.648,121.039 C10.648,121.385 10.372,121.667 10.033,121.667 ZM10.033,107.502 C9.694,107.502 9.419,107.220 9.419,106.873 C9.419,106.526 9.694,106.244 10.033,106.244 C10.372,106.244 10.648,106.526 10.648,106.873 C10.648,107.220 10.372,107.502 10.033,107.502 ZM10.033,93.335 C9.694,93.335 9.419,93.054 9.419,92.707 C9.419,92.359 9.694,92.078 10.033,92.078 C10.372,92.078 10.648,92.359 10.648,92.707 C10.648,93.054 10.372,93.335 10.033,93.335 ZM10.033,79.169 C9.694,79.169 9.419,78.888 9.419,78.541 C9.419,78.193 9.694,77.912 10.033,77.912 C10.372,77.912 10.648,78.193 10.648,78.541 C10.648,78.888 10.372,79.169 10.033,79.169 ZM10.033,65.003 C9.694,65.003 9.419,64.723 9.419,64.374 C9.419,64.028 9.694,63.746 10.033,63.746 C10.372,63.746 10.648,64.028 10.648,64.374 C10.648,64.723 10.372,65.003 10.033,65.003 ZM10.033,50.837 C9.694,50.837 9.419,50.555 9.419,50.209 C9.419,49.862 9.694,49.580 10.033,49.580 C10.372,49.580 10.648,49.862 10.648,50.209 C10.648,50.555 10.372,50.837 10.033,50.837 ZM10.033,36.671 C9.694,36.671 9.419,36.390 9.419,36.043 C9.419,35.696 9.694,35.414 10.033,35.414 C10.372,35.414 10.648,35.696 10.648,36.043 C10.648,36.390 10.372,36.671 10.033,36.671 ZM10.033,22.505 C9.694,22.505 9.419,22.224 9.419,21.877 C9.419,21.529 9.694,21.249 10.033,21.249 C10.372,21.249 10.648,21.529 10.648,21.877 C10.648,22.224 10.372,22.505 10.033,22.505 ZM10.033,8.339 C9.694,8.339 9.419,8.058 9.419,7.711 C9.419,7.364 9.694,7.082 10.033,7.082 C10.372,7.082 10.648,7.364 10.648,7.711 C10.648,8.058 10.372,8.339 10.033,8.339 ZM6.573,142.916 C6.234,142.916 5.959,142.635 5.959,142.288 C5.959,141.941 6.234,141.659 6.573,141.659 C6.913,141.659 7.188,141.941 7.188,142.288 C7.188,142.635 6.913,142.916 6.573,142.916 ZM6.573,128.750 C6.234,128.750 5.959,128.469 5.959,128.122 C5.959,127.774 6.234,127.493 6.573,127.493 C6.913,127.493 7.188,127.774 7.188,128.122 C7.188,128.469 6.913,128.750 6.573,128.750 ZM6.573,114.584 C6.234,114.584 5.959,114.303 5.959,113.955 C5.959,113.609 6.234,113.327 6.573,113.327 C6.913,113.327 7.188,113.609 7.188,113.955 C7.188,114.303 6.913,114.584 6.573,114.584 ZM6.573,100.418 C6.234,100.418 5.959,100.137 5.959,99.790 C5.959,99.443 6.234,99.162 6.573,99.162 C6.913,99.162 7.188,99.443 7.188,99.790 C7.188,100.137 6.913,100.418 6.573,100.418 ZM6.573,86.252 C6.234,86.252 5.959,85.971 5.959,85.624 C5.959,85.277 6.234,84.995 6.573,84.995 C6.913,84.995 7.188,85.277 7.188,85.624 C7.188,85.971 6.913,86.252 6.573,86.252 ZM6.573,72.086 C6.234,72.086 5.959,71.805 5.959,71.458 C5.959,71.111 6.234,70.829 6.573,70.829 C6.913,70.829 7.188,71.111 7.188,71.458 C7.188,71.805 6.913,72.086 6.573,72.086 ZM6.573,57.920 C6.234,57.920 5.959,57.639 5.959,57.292 C5.959,56.944 6.234,56.663 6.573,56.663 C6.913,56.663 7.188,56.944 7.188,57.292 C7.188,57.639 6.913,57.920 6.573,57.920 ZM6.573,43.754 C6.234,43.754 5.959,43.473 5.959,43.125 C5.959,42.779 6.234,42.497 6.573,42.497 C6.913,42.497 7.188,42.779 7.188,43.125 C7.188,43.473 6.913,43.754 6.573,43.754 ZM6.573,29.589 C6.234,29.589 5.959,29.307 5.959,28.960 C5.959,28.613 6.234,28.332 6.573,28.332 C6.913,28.332 7.188,28.613 7.188,28.960 C7.188,29.307 6.913,29.589 6.573,29.589 ZM6.573,15.422 C6.234,15.422 5.959,15.141 5.959,14.794 C5.959,14.447 6.234,14.165 6.573,14.165 C6.913,14.165 7.188,14.447 7.188,14.794 C7.188,15.141 6.913,15.422 6.573,15.422 ZM6.573,1.257 C6.234,1.257 5.959,0.975 5.959,0.628 C5.959,0.280 6.234,-0.001 6.573,-0.001 C6.913,-0.001 7.188,0.280 7.188,0.628 C7.188,0.975 6.913,1.257 6.573,1.257 ZM3.113,149.999 C2.775,149.999 2.500,149.718 2.500,149.371 C2.500,149.023 2.775,148.742 3.113,148.742 C3.453,148.742 3.727,149.023 3.727,149.371 C3.727,149.718 3.453,149.999 3.113,149.999 ZM3.113,135.833 C2.775,135.833 2.500,135.553 2.500,135.204 C2.500,134.858 2.775,134.576 3.113,134.576 C3.453,134.576 3.727,134.858 3.727,135.204 C3.727,135.553 3.453,135.833 3.113,135.833 ZM3.113,121.667 C2.775,121.667 2.500,121.385 2.500,121.039 C2.500,120.692 2.775,120.410 3.113,120.410 C3.453,120.410 3.727,120.692 3.727,121.039 C3.727,121.385 3.453,121.667 3.113,121.667 ZM3.113,107.502 C2.775,107.502 2.500,107.220 2.500,106.873 C2.500,106.526 2.775,106.244 3.113,106.244 C3.453,106.244 3.727,106.526 3.727,106.873 C3.727,107.220 3.453,107.502 3.113,107.502 ZM3.113,93.335 C2.775,93.335 2.500,93.054 2.500,92.707 C2.500,92.359 2.775,92.078 3.113,92.078 C3.453,92.078 3.727,92.359 3.727,92.707 C3.727,93.054 3.453,93.335 3.113,93.335 ZM3.113,79.169 C2.775,79.169 2.500,78.888 2.500,78.541 C2.500,78.193 2.775,77.912 3.113,77.912 C3.453,77.912 3.727,78.193 3.727,78.541 C3.727,78.888 3.453,79.169 3.113,79.169 ZM3.113,65.003 C2.775,65.003 2.500,64.723 2.500,64.374 C2.500,64.028 2.775,63.746 3.113,63.746 C3.453,63.746 3.727,64.028 3.727,64.374 C3.727,64.723 3.453,65.003 3.113,65.003 ZM3.113,50.837 C2.775,50.837 2.500,50.555 2.500,50.209 C2.500,49.862 2.775,49.580 3.113,49.580 C3.453,49.580 3.727,49.862 3.727,50.209 C3.727,50.555 3.453,50.837 3.113,50.837 ZM3.113,36.671 C2.775,36.671 2.500,36.390 2.500,36.043 C2.500,35.696 2.775,35.414 3.113,35.414 C3.453,35.414 3.727,35.696 3.727,36.043 C3.727,36.390 3.453,36.671 3.113,36.671 ZM3.113,22.505 C2.775,22.505 2.500,22.224 2.500,21.877 C2.500,21.529 2.775,21.249 3.113,21.249 C3.453,21.249 3.727,21.529 3.727,21.877 C3.727,22.224 3.453,22.505 3.113,22.505 ZM3.113,8.339 C2.775,8.339 2.500,8.058 2.500,7.711 C2.500,7.364 2.775,7.082 3.113,7.082 C3.453,7.082 3.727,7.364 3.727,7.711 C3.727,8.058 3.453,8.339 3.113,8.339 ZM151.886,141.659 C152.225,141.659 152.500,141.941 152.500,142.288 C152.500,142.635 152.225,142.916 151.886,142.916 C151.547,142.916 151.272,142.635 151.272,142.288 C151.272,141.941 151.547,141.659 151.886,141.659 Z"/>
<path fill-rule="evenodd"  fill="rgb(149, 159, 217)"
 d="M112.779,82.196 C112.470,83.722 111.129,84.818 109.572,84.818 L77.500,84.818 C75.695,84.818 74.227,86.286 74.227,88.091 C74.227,89.895 75.695,91.363 77.500,91.363 C82.914,91.363 87.318,95.767 87.318,101.181 C87.318,106.595 82.914,110.999 77.500,110.999 C57.649,110.999 41.500,94.850 41.500,75.000 C41.500,55.149 57.649,39.000 77.500,39.000 C97.350,39.000 113.500,55.149 113.500,75.000 C113.500,77.420 113.257,79.842 112.779,82.196 ZM77.500,45.545 C61.259,45.545 48.045,58.758 48.045,75.000 C48.045,91.241 61.259,104.454 77.500,104.454 C79.304,104.454 80.773,102.986 80.773,101.181 C80.773,99.377 79.304,97.909 77.500,97.909 C72.086,97.909 67.682,93.505 67.682,88.091 C67.682,82.677 72.086,78.273 77.500,78.273 L106.774,78.273 C106.894,77.188 106.955,76.094 106.955,75.000 C106.955,58.758 93.741,45.545 77.500,45.545 ZM90.899,66.510 C88.188,66.510 85.990,64.312 85.990,61.601 C85.990,58.889 88.188,56.692 90.899,56.692 C93.610,56.692 95.808,58.889 95.808,61.601 C95.808,64.312 93.610,66.510 90.899,66.510 ZM77.500,60.960 C74.789,60.960 72.591,58.762 72.591,56.051 C72.591,53.339 74.789,51.142 77.500,51.142 C80.211,51.142 82.409,53.339 82.409,56.051 C82.409,58.762 80.211,60.960 77.500,60.960 ZM64.101,66.510 C61.390,66.510 59.192,64.312 59.192,61.601 C59.192,58.889 61.390,56.692 64.101,56.692 C66.812,56.692 69.010,58.889 69.010,61.601 C69.010,64.312 66.812,66.510 64.101,66.510 Z"/>
<path fill-rule="evenodd"  stroke="rgb(251, 251, 251)" stroke-width="5px" stroke-linecap="butt" stroke-linejoin="miter" opacity="0.502" fill="rgb(41, 142, 237)"
 d="M2.500,86.000 L66.500,86.000 L66.500,149.999 L2.500,149.999 L2.500,86.000 Z"/>
</svg>