<svg xmlns="http://www.w3.org/2000/svg" width="22" height="25">
    <path fill-rule="evenodd" d="M20.854 19.625l-6.359 4.71a.964.964 0 0 1-.584.196c-.146 0-.292-.032-.438-.098a1.005 1.005 0 0 1-.535-.88V6.502c0-.538.438-.978.973-.978a.98.98 0 0 1 .974.979v15.11l4.817-3.57a.978.978 0 0 1 1.363.212.99.99 0 0 1-.211 1.37zm-13.269.081a.978.978 0 0 1-.973-.978V3.47L1.81 7.089a.96.96 0 0 1-1.362-.195.972.972 0 0 1 .194-1.37L7.001.732A.97.97 0 0 1 8.023.634a.986.986 0 0 1 .535.88v17.214a.978.978 0 0 1-.973.978z"/>
</svg>
