<svg 
 xmlns="http://www.w3.org/2000/svg"
 xmlns:xlink="http://www.w3.org/1999/xlink"
 width="24px" height="24px">
<path fill-rule="evenodd"  fill="rgb(41, 142, 237)"
 d="M23.091,8.352 C22.591,8.352 22.186,7.947 22.186,7.447 L22.186,3.088 L10.828,14.448 C10.651,14.625 10.420,14.714 10.189,14.714 C9.957,14.714 9.726,14.625 9.549,14.448 C9.196,14.095 9.196,13.523 9.549,13.169 L20.908,1.809 L16.549,1.809 C16.050,1.809 15.645,1.404 15.645,0.905 C15.645,0.405 16.050,0.000 16.549,0.000 L23.091,0.000 C23.094,0.000 23.096,0.002 23.099,0.002 C23.214,0.003 23.328,0.025 23.436,0.070 C23.657,0.162 23.834,0.338 23.925,0.559 C23.969,0.666 23.991,0.779 23.992,0.892 C23.993,0.896 23.995,0.900 23.995,0.905 L23.995,7.447 C23.995,7.947 23.590,8.352 23.091,8.352 ZM11.847,4.885 L1.808,4.885 L1.808,22.191 L19.112,22.191 L19.112,12.151 C19.112,11.651 19.516,11.246 20.016,11.246 C20.515,11.246 20.920,11.651 20.920,12.151 L20.920,23.095 C20.920,23.595 20.516,24.000 20.016,24.000 L0.904,24.000 C0.405,24.000 -0.000,23.595 -0.000,23.095 L-0.000,3.980 C-0.000,3.480 0.405,3.076 0.904,3.076 L11.847,3.076 C12.346,3.076 12.751,3.480 12.751,3.980 C12.751,4.480 12.346,4.885 11.847,4.885 Z"/>
</svg>