<svg xmlns="http://www.w3.org/2000/svg" width="25" height="28">
    <path fill-rule="evenodd" d="M25 6.396h-2.225l-1.736 20.603c-.048.566-.502 1.001-1.046 1.001H4.972c-.545 0-.999-.435-1.046-1.001L2.189 6.396H0V4.203h7.318V1.827C7.318.819 8.103 0 9.068 0h6.863c.966 0 1.751.819 1.751 1.827v2.376H25v2.193zm-9.419-4.203H9.419v2.01h6.162v-2.01zM4.298 6.396l1.636 19.41H19.03l1.636-19.41H4.298zM15.057 22.55l.455-12.977 2.099.08-.455 12.977-2.099-.08zM11.449 9.613h2.101V22.59h-2.101V9.613zm-4.061.04l2.1-.08.455 12.976-2.1.081-.455-12.977z"/>
</svg>
