<svg xmlns="http://www.w3.org/2000/svg" width="411" height="401">
    <path fill="#C4C4C6" fill-rule="evenodd" d="M409.318 344.193a1.681 1.681 0 1 1 0-3.36c.928 0 1.682.752 1.682 1.68 0 .928-.754 1.68-1.682 1.68zm0-37.871a1.68 1.68 0 1 1 0-3.36 1.68 1.68 0 0 1 0 3.36zm0-37.87a1.68 1.68 0 1 1 0-3.36 1.68 1.68 0 0 1 0 3.36zm0-37.87a1.681 1.681 0 1 1 0-3.36c.928 0 1.682.752 1.682 1.68 0 .928-.754 1.68-1.682 1.68zm0-37.87a1.681 1.681 0 0 1 0-3.36c.928 0 1.682.752 1.682 1.68 0 .927-.754 1.68-1.682 1.68zm0-37.87a1.68 1.68 0 1 1 0-3.36 1.68 1.68 0 1 1 0 3.36zm0-37.872c-.93 0-1.683-.752-1.683-1.68a1.68 1.68 0 0 1 1.683-1.679c.928 0 1.682.752 1.682 1.679 0 .928-.754 1.68-1.682 1.68zm0-37.869A1.681 1.681 0 1 1 411 77.42c0 .929-.754 1.681-1.682 1.681zm0-37.871a1.682 1.682 0 1 1-.003-3.363 1.682 1.682 0 0 1 .003 3.363zm0-37.87a1.681 1.681 0 0 1 0-3.36c.928 0 1.682.752 1.682 1.68 0 .927-.754 1.68-1.682 1.68zm-9.48 397.639a1.683 1.683 0 0 1-1.684-1.681 1.683 1.683 0 0 1 3.367 0c0 .929-.754 1.681-1.683 1.681zm0-37.871a1.682 1.682 0 0 1-1.684-1.679 1.683 1.683 0 0 1 3.367 0 1.68 1.68 0 0 1-1.683 1.679zm0-37.87a1.683 1.683 0 0 1-1.684-1.68 1.683 1.683 0 0 1 3.367 0c0 .928-.754 1.68-1.683 1.68zm0-37.87a1.683 1.683 0 0 1-1.684-1.68c0-.928.755-1.68 1.684-1.68.929 0 1.683.752 1.683 1.68 0 .927-.754 1.68-1.683 1.68zm0-37.87a1.683 1.683 0 0 1-1.684-1.681c0-.929.755-1.68 1.684-1.68a1.681 1.681 0 1 1 0 3.361zm0-37.872a1.682 1.682 0 0 1-1.684-1.68c0-.927.755-1.679 1.684-1.679.929 0 1.683.752 1.683 1.679 0 .929-.754 1.68-1.683 1.68zm0-37.87a1.682 1.682 0 0 1-1.684-1.68c0-.928.755-1.68 1.684-1.68a1.681 1.681 0 0 1 0 3.36zm0-37.87a1.683 1.683 0 0 1-1.684-1.68 1.683 1.683 0 0 1 3.367 0c0 .928-.754 1.68-1.683 1.68zm0-37.869a1.684 1.684 0 0 1-1.684-1.682c0-.927.755-1.679 1.684-1.679a1.682 1.682 0 1 1 0 3.361zm0-37.871a1.683 1.683 0 0 1-1.684-1.681c0-.928.755-1.68 1.684-1.68a1.682 1.682 0 1 1 0 3.361zm0-37.872a1.682 1.682 0 0 1-1.684-1.679c0-.928.755-1.68 1.684-1.68.929 0 1.683.752 1.683 1.68 0 .927-.754 1.679-1.683 1.679zm-9.481 359.769a1.68 1.68 0 1 1 0-3.359c.93 0 1.684.752 1.684 1.68 0 .928-.754 1.679-1.684 1.679zm0-37.87a1.68 1.68 0 1 1 0-3.36c.93 0 1.684.752 1.684 1.68 0 .928-.754 1.68-1.684 1.68zm0-37.871a1.68 1.68 0 1 1 0-3.36 1.681 1.681 0 0 1 0 3.36zm0-37.87a1.68 1.68 0 1 1 0-3.36c.93 0 1.684.753 1.684 1.68 0 .929-.754 1.68-1.684 1.68zm0-37.87a1.68 1.68 0 1 1 0-3.36c.93 0 1.684.752 1.684 1.68 0 .928-.754 1.68-1.684 1.68zm0-37.87a1.68 1.68 0 0 1 0-3.36c.93 0 1.684.752 1.684 1.68 0 .927-.754 1.68-1.684 1.68zm0-37.87a1.68 1.68 0 1 1 0-3.36 1.68 1.68 0 1 1 0 3.36zm0-37.872a1.68 1.68 0 1 1 0-3.359c.93 0 1.684.752 1.684 1.679 0 .928-.754 1.68-1.684 1.68zm0-37.869a1.68 1.68 0 1 1 0-3.361c.93 0 1.684.752 1.684 1.68 0 .929-.754 1.681-1.684 1.681zm0-37.871a1.681 1.681 0 1 1 1.684-1.68c0 .927-.754 1.68-1.684 1.68zm0-37.87a1.68 1.68 0 0 1 0-3.36c.93 0 1.684.752 1.684 1.68 0 .927-.754 1.68-1.684 1.68zm-9.479 397.639a1.683 1.683 0 0 1-1.683-1.681 1.683 1.683 0 0 1 3.366 0c0 .929-.753 1.681-1.683 1.681zm0-37.871a1.682 1.682 0 0 1-1.683-1.679 1.683 1.683 0 0 1 3.366 0 1.68 1.68 0 0 1-1.683 1.679zm0-37.87a1.682 1.682 0 0 1-1.683-1.68 1.683 1.683 0 0 1 3.366 0c0 .928-.753 1.68-1.683 1.68zm0-37.87a1.683 1.683 0 0 1-1.683-1.68 1.682 1.682 0 0 1 3.366 0c0 .927-.753 1.68-1.683 1.68zm0-37.87a1.682 1.682 0 0 1 0-3.361 1.68 1.68 0 1 1 0 3.361zm0-37.872a1.682 1.682 0 0 1-1.683-1.68c0-.927.755-1.679 1.683-1.679a1.68 1.68 0 0 1 0 3.359zm0-37.87a1.682 1.682 0 0 1-1.683-1.68 1.682 1.682 0 0 1 3.366 0 1.68 1.68 0 0 1-1.683 1.68zm0-37.87a1.682 1.682 0 0 1-1.683-1.68 1.683 1.683 0 0 1 3.366 0c0 .928-.753 1.68-1.683 1.68zm0-37.869a1.684 1.684 0 0 1-1.683-1.682c0-.927.755-1.679 1.683-1.679a1.68 1.68 0 1 1 0 3.361zm0-37.871a1.683 1.683 0 0 1-1.683-1.681 1.682 1.682 0 0 1 3.366 0c0 .928-.753 1.681-1.683 1.681zm0-37.872a1.682 1.682 0 0 1-1.683-1.679 1.682 1.682 0 0 1 3.366 0 1.68 1.68 0 0 1-1.683 1.679zm-9.48 359.769a1.68 1.68 0 1 1 0-3.359 1.68 1.68 0 0 1 0 3.359zm0-37.87a1.68 1.68 0 1 1 1.682-1.68 1.68 1.68 0 0 1-1.682 1.68zm0-37.871a1.68 1.68 0 1 1 0-3.36 1.68 1.68 0 0 1 0 3.36zm0-37.87a1.68 1.68 0 1 1 0-3.36 1.68 1.68 0 0 1 0 3.36zm0-37.87a1.68 1.68 0 1 1 1.682-1.68 1.68 1.68 0 0 1-1.682 1.68zm0-37.87a1.68 1.68 0 0 1 0-3.36 1.68 1.68 0 1 1 0 3.36zm0-37.87a1.68 1.68 0 1 1 0-3.36 1.68 1.68 0 1 1 0 3.36zm0-37.872a1.68 1.68 0 0 1 0-3.359 1.68 1.68 0 1 1 0 3.359zm0-37.869a1.681 1.681 0 1 1-.002-3.362 1.681 1.681 0 0 1 .002 3.362zm0-37.871a1.682 1.682 0 1 1-.001-3.363 1.682 1.682 0 0 1 .001 3.363zm0-37.87a1.68 1.68 0 0 1 0-3.36 1.68 1.68 0 1 1 0 3.36zm-9.48 397.639a1.681 1.681 0 1 1 0-3.361c.928 0 1.683.753 1.683 1.68 0 .929-.755 1.681-1.683 1.681zm0-37.871a1.68 1.68 0 1 1 0-3.36c.928 0 1.683.753 1.683 1.681s-.755 1.679-1.683 1.679zm0-37.87a1.681 1.681 0 1 1 0-3.361c.928 0 1.683.753 1.683 1.681s-.755 1.68-1.683 1.68zm0-37.87a1.681 1.681 0 0 1 0-3.36c.928 0 1.683.752 1.683 1.68 0 .927-.755 1.68-1.683 1.68zm0-37.87a1.68 1.68 0 1 1 0-3.361 1.682 1.682 0 1 1 0 3.361zm0-37.872a1.68 1.68 0 1 1 0-3.359c.928 0 1.683.752 1.683 1.679 0 .929-.755 1.68-1.683 1.68zm0-37.87a1.68 1.68 0 1 1 0-3.36c.928 0 1.683.752 1.683 1.68 0 .929-.755 1.68-1.683 1.68zm0-37.87a1.681 1.681 0 1 1 0-3.361c.928 0 1.683.753 1.683 1.681s-.755 1.68-1.683 1.68zm0-37.869a1.68 1.68 0 0 1 0-3.361c.928 0 1.683.752 1.683 1.679 0 .928-.755 1.682-1.683 1.682zm0-37.871a1.681 1.681 0 0 1 0-3.361c.928 0 1.683.752 1.683 1.68 0 .928-.755 1.681-1.683 1.681zm0-37.872a1.68 1.68 0 0 1-1.683-1.679 1.682 1.682 0 1 1 3.366 0c0 .927-.755 1.679-1.683 1.679zm-9.479 359.769c-.93 0-1.684-.751-1.684-1.679s.754-1.68 1.684-1.68a1.68 1.68 0 0 1 0 3.359zm0-37.87c-.93 0-1.684-.752-1.684-1.68 0-.928.754-1.68 1.684-1.68a1.68 1.68 0 1 1 0 3.36zm0-37.871a1.681 1.681 0 1 1 0-3.36 1.68 1.68 0 0 1 0 3.36zm0-37.87c-.93 0-1.684-.751-1.684-1.68a1.683 1.683 0 0 1 3.366 0 1.68 1.68 0 0 1-1.682 1.68zm0-37.87c-.93 0-1.684-.752-1.684-1.68 0-.928.754-1.68 1.684-1.68a1.68 1.68 0 1 1 0 3.36zm0-37.87c-.93 0-1.684-.753-1.684-1.68 0-.928.754-1.68 1.684-1.68a1.68 1.68 0 1 1 0 3.36zm0-37.87a1.68 1.68 0 0 1 0-3.36 1.68 1.68 0 1 1 0 3.36zm0-37.872c-.93 0-1.684-.752-1.684-1.68 0-.927.754-1.679 1.684-1.679a1.68 1.68 0 1 1 0 3.359zm0-37.869c-.93 0-1.684-.752-1.684-1.681 0-.928.754-1.68 1.684-1.68a1.68 1.68 0 1 1 0 3.361zm0-37.871c-.93 0-1.684-.753-1.684-1.68a1.683 1.683 0 0 1 3.366 0c0 .927-.753 1.68-1.682 1.68zm0-37.87c-.93 0-1.684-.753-1.684-1.68 0-.928.754-1.68 1.684-1.68a1.68 1.68 0 1 1 0 3.36zm-9.481 397.639a1.681 1.681 0 1 1 0-3.361c.929 0 1.684.753 1.684 1.68 0 .929-.755 1.681-1.684 1.681zm0-37.871a1.68 1.68 0 1 1 0-3.36c.929 0 1.684.753 1.684 1.681s-.755 1.679-1.684 1.679zm0-37.87a1.68 1.68 0 1 1 0-3.361c.929 0 1.684.753 1.684 1.681s-.755 1.68-1.684 1.68zm0-37.87a1.68 1.68 0 0 1 0-3.36c.929 0 1.684.752 1.684 1.68 0 .927-.755 1.68-1.684 1.68zm0-37.87a1.682 1.682 0 1 1 0-3.361c.929 0 1.684.751 1.684 1.68 0 .928-.755 1.681-1.684 1.681zm0-37.872a1.68 1.68 0 1 1 0-3.359c.929 0 1.684.752 1.684 1.679 0 .929-.755 1.68-1.684 1.68zm0-37.87a1.68 1.68 0 1 1 0-3.36c.929 0 1.684.752 1.684 1.68 0 .929-.755 1.68-1.684 1.68zm0-37.87a1.68 1.68 0 1 1 0-3.361c.929 0 1.684.753 1.684 1.681s-.755 1.68-1.684 1.68zm0-37.869a1.68 1.68 0 0 1 0-3.361c.929 0 1.684.752 1.684 1.679 0 .928-.755 1.682-1.684 1.682zm0-37.871a1.682 1.682 0 1 1 0-3.361c.929 0 1.684.752 1.684 1.68 0 .928-.755 1.681-1.684 1.681zm0-37.872a1.68 1.68 0 1 1 0-3.359c.929 0 1.684.752 1.684 1.68 0 .927-.755 1.679-1.684 1.679zm-9.479 359.769a1.68 1.68 0 0 1-1.683-1.679 1.682 1.682 0 0 1 3.365 0 1.68 1.68 0 0 1-1.682 1.679zm0-37.87a1.682 1.682 0 0 1-1.683-1.68 1.682 1.682 0 0 1 3.365 0 1.68 1.68 0 0 1-1.682 1.68zm0-37.871a1.68 1.68 0 1 1 0-3.36 1.68 1.68 0 0 1 0 3.36zm0-37.87a1.681 1.681 0 1 1 0-3.36 1.68 1.68 0 0 1 0 3.36zm0-37.87a1.682 1.682 0 0 1-1.683-1.68 1.682 1.682 0 0 1 3.365 0 1.68 1.68 0 0 1-1.682 1.68zm0-37.87a1.682 1.682 0 0 1-1.683-1.68 1.682 1.682 0 0 1 3.365 0c0 .927-.753 1.68-1.682 1.68zm0-37.87a1.68 1.68 0 0 1 0-3.36 1.68 1.68 0 1 1 0 3.36zm0-37.872a1.682 1.682 0 0 1-1.683-1.68c0-.927.754-1.679 1.683-1.679a1.68 1.68 0 1 1 0 3.359zm0-37.869a1.682 1.682 0 1 1 0 0zm0-37.871a1.682 1.682 0 0 1-1.683-1.68 1.683 1.683 0 0 1 3.365 0c0 .927-.753 1.68-1.682 1.68zm0-37.87a1.682 1.682 0 0 1-1.683-1.68 1.682 1.682 0 0 1 3.365 0c0 .927-.753 1.68-1.682 1.68zm-9.48 397.639a1.681 1.681 0 1 1-.002-3.362 1.681 1.681 0 0 1 .002 3.362zm0-37.871a1.68 1.68 0 1 1 0-3.36 1.68 1.68 0 1 1 0 3.36zm0-37.87a1.68 1.68 0 1 1-.002-3.362 1.68 1.68 0 0 1 .002 3.362zm0-37.87a1.68 1.68 0 1 1 0 0zm0-37.87a1.682 1.682 0 1 1 0-3.363 1.682 1.682 0 0 1 0 3.363zm0-37.872a1.68 1.68 0 1 1 0-3.359 1.68 1.68 0 1 1 0 3.359zm0-37.87a1.68 1.68 0 1 1 0-3.36 1.68 1.68 0 1 1 0 3.36zm0-37.87a1.68 1.68 0 1 1-.002-3.362 1.68 1.68 0 0 1 .002 3.362zm0-37.869a1.68 1.68 0 1 1 0 0zm0-37.871a1.682 1.682 0 1 1 0-3.363 1.682 1.682 0 0 1 0 3.363zm0-37.872a1.68 1.68 0 1 1-.003-3.361 1.68 1.68 0 0 1 .003 3.361zm-9.479 359.769a1.68 1.68 0 1 1 0-3.359 1.68 1.68 0 1 1 0 3.359zm0-37.87a1.681 1.681 0 0 1-1.684-1.68c0-.928.753-1.68 1.684-1.68a1.68 1.68 0 1 1 0 3.36zm0-37.871a1.68 1.68 0 1 1 0-3.36 1.68 1.68 0 1 1 0 3.36zm0-37.87a1.68 1.68 0 1 1 0-3.36 1.68 1.68 0 0 1 0 3.36zm0-37.87a1.681 1.681 0 0 1-1.684-1.68c0-.928.753-1.68 1.684-1.68a1.68 1.68 0 1 1 0 3.36zm0-37.87a1.682 1.682 0 0 1-1.684-1.68c0-.928.753-1.68 1.684-1.68a1.68 1.68 0 1 1 0 3.36zm0-37.87a1.68 1.68 0 1 1 0-3.36 1.68 1.68 0 1 1 0 3.36zm0-37.872a1.681 1.681 0 0 1-1.684-1.68c0-.927.753-1.679 1.684-1.679a1.68 1.68 0 1 1 0 3.359zm0-37.869a1.682 1.682 0 1 1-.005-3.363 1.682 1.682 0 0 1 .005 3.363zm0-37.871a1.682 1.682 0 0 1-1.684-1.68 1.682 1.682 0 0 1 3.365 0c0 .927-.753 1.68-1.681 1.68zm0-37.87a1.682 1.682 0 0 1-1.684-1.68c0-.928.753-1.68 1.684-1.68a1.68 1.68 0 1 1 0 3.36zm-9.481 397.639a1.683 1.683 0 0 1-1.684-1.681 1.683 1.683 0 0 1 3.366 0c0 .929-.753 1.681-1.682 1.681zm0-37.871a1.682 1.682 0 0 1-1.684-1.679 1.683 1.683 0 0 1 3.366 0 1.68 1.68 0 0 1-1.682 1.679zm0-37.87a1.683 1.683 0 0 1-1.684-1.68 1.683 1.683 0 0 1 3.366 0 1.68 1.68 0 0 1-1.682 1.68zm0-37.87a1.683 1.683 0 0 1-1.684-1.68 1.683 1.683 0 0 1 3.366 0c0 .927-.753 1.68-1.682 1.68zm0-37.87a1.683 1.683 0 0 1-1.684-1.681c0-.929.755-1.68 1.684-1.68a1.68 1.68 0 1 1 0 3.361zm0-37.872a1.682 1.682 0 0 1-1.684-1.68 1.682 1.682 0 0 1 3.366 0 1.68 1.68 0 0 1-1.682 1.68zm0-37.87a1.682 1.682 0 0 1-1.684-1.68 1.683 1.683 0 0 1 3.366 0 1.68 1.68 0 0 1-1.682 1.68zm0-37.87a1.683 1.683 0 0 1-1.684-1.68 1.683 1.683 0 0 1 3.366 0 1.68 1.68 0 0 1-1.682 1.68zm0-37.869a1.684 1.684 0 0 1-1.684-1.682 1.682 1.682 0 0 1 3.366 0c0 .928-.753 1.682-1.682 1.682zm0-37.871a1.683 1.683 0 0 1-1.684-1.681 1.683 1.683 0 0 1 3.366 0c0 .928-.753 1.681-1.682 1.681zm0-37.872a1.682 1.682 0 0 1-1.684-1.679 1.683 1.683 0 0 1 3.366 0 1.68 1.68 0 0 1-1.682 1.679zm-9.481 359.769a1.68 1.68 0 1 1 0-3.359c.93 0 1.684.752 1.684 1.68 0 .928-.754 1.679-1.684 1.679zm0-37.87a1.68 1.68 0 1 1 0-3.36c.93 0 1.684.752 1.684 1.68 0 .928-.754 1.68-1.684 1.68zm0-37.871a1.68 1.68 0 1 1 0-3.36 1.681 1.681 0 0 1 0 3.36zm0-37.87a1.68 1.68 0 1 1 0-3.36c.93 0 1.684.753 1.684 1.68 0 .929-.754 1.68-1.684 1.68zm0-37.87a1.68 1.68 0 1 1 0-3.36c.93 0 1.684.752 1.684 1.68 0 .928-.754 1.68-1.684 1.68zm0-37.87a1.68 1.68 0 0 1 0-3.36c.93 0 1.684.752 1.684 1.68 0 .927-.754 1.68-1.684 1.68zm0-37.87a1.68 1.68 0 1 1 0-3.36 1.68 1.68 0 1 1 0 3.36zm0-37.872a1.68 1.68 0 1 1 0-3.359c.93 0 1.684.752 1.684 1.679 0 .928-.754 1.68-1.684 1.68zm0-37.869a1.68 1.68 0 1 1 0-3.361c.93 0 1.684.752 1.684 1.68 0 .929-.754 1.681-1.684 1.681zm0-37.871a1.681 1.681 0 1 1 1.684-1.68c0 .927-.754 1.68-1.684 1.68zm0-37.87a1.68 1.68 0 0 1 0-3.36c.93 0 1.684.752 1.684 1.68 0 .927-.754 1.68-1.684 1.68zm-9.479 397.639a1.683 1.683 0 0 1-1.683-1.681 1.683 1.683 0 0 1 3.365 0 1.68 1.68 0 0 1-1.682 1.681zm0-37.871a1.682 1.682 0 0 1-1.683-1.679 1.683 1.683 0 0 1 3.365 0 1.68 1.68 0 0 1-1.682 1.679zm0-37.87a1.682 1.682 0 0 1-1.683-1.68 1.683 1.683 0 0 1 3.365 0 1.68 1.68 0 0 1-1.682 1.68zm0-37.87a1.683 1.683 0 0 1-1.683-1.68 1.682 1.682 0 0 1 3.365 0 1.68 1.68 0 0 1-1.682 1.68zm0-37.87a1.682 1.682 0 0 1 0-3.361 1.68 1.68 0 1 1 0 3.361zm0-37.872a1.682 1.682 0 0 1-1.683-1.68 1.682 1.682 0 0 1 3.365 0 1.68 1.68 0 0 1-1.682 1.68zm0-37.87a1.682 1.682 0 0 1-1.683-1.68 1.682 1.682 0 0 1 3.365 0 1.68 1.68 0 0 1-1.682 1.68zm0-37.87a1.682 1.682 0 0 1-1.683-1.68 1.683 1.683 0 0 1 3.365 0 1.68 1.68 0 0 1-1.682 1.68zm0-37.869a1.684 1.684 0 0 1-1.683-1.682 1.682 1.682 0 0 1 3.365 0c0 .928-.752 1.682-1.682 1.682zm0-37.871a1.683 1.683 0 0 1-1.683-1.681 1.682 1.682 0 0 1 3.365 0c0 .928-.752 1.681-1.682 1.681zm0-37.872a1.682 1.682 0 0 1-1.683-1.679 1.682 1.682 0 0 1 3.365 0 1.68 1.68 0 0 1-1.682 1.679zm-9.48 359.769a1.68 1.68 0 1 1 0-3.359 1.68 1.68 0 0 1 0 3.359zm0-37.87a1.68 1.68 0 1 1 1.682-1.68 1.68 1.68 0 0 1-1.682 1.68zm0-37.871a1.68 1.68 0 1 1 0-3.36 1.68 1.68 0 0 1 0 3.36zm0-37.87a1.68 1.68 0 1 1 0-3.36 1.68 1.68 0 0 1 0 3.36zm0-37.87a1.68 1.68 0 1 1 1.682-1.68 1.68 1.68 0 0 1-1.682 1.68zm0-37.87a1.68 1.68 0 0 1 0-3.36 1.68 1.68 0 1 1 0 3.36zm0-37.87a1.68 1.68 0 1 1 0-3.36 1.68 1.68 0 1 1 0 3.36zm0-37.872a1.68 1.68 0 0 1 0-3.359 1.68 1.68 0 1 1 0 3.359zm0-37.869a1.681 1.681 0 1 1-.002-3.362 1.681 1.681 0 0 1 .002 3.362zm0-37.871a1.682 1.682 0 1 1-.001-3.363 1.682 1.682 0 0 1 .001 3.363zm0-37.87a1.68 1.68 0 0 1 0-3.36 1.68 1.68 0 1 1 0 3.36zm-9.479 397.639a1.682 1.682 0 1 1-.005-3.363 1.682 1.682 0 0 1 .005 3.363zm0-37.871a1.68 1.68 0 1 1 0-3.36 1.68 1.68 0 1 1 0 3.36zm0-37.87a1.681 1.681 0 1 1 1.681-1.68 1.68 1.68 0 0 1-1.681 1.68zm0-37.87a1.682 1.682 0 0 1-1.684-1.68c0-.928.753-1.68 1.684-1.68a1.68 1.68 0 1 1 0 3.36zm0-37.87a1.68 1.68 0 0 1 0-3.361 1.68 1.68 0 1 1 0 3.361zm0-37.872a1.68 1.68 0 1 1 0-3.359 1.68 1.68 0 1 1 0 3.359zm0-37.87a1.68 1.68 0 1 1 0-3.36 1.68 1.68 0 1 1 0 3.36zm0-37.87a1.681 1.681 0 1 1 1.681-1.68 1.68 1.68 0 0 1-1.681 1.68zm0-37.869a1.681 1.681 0 0 1 0-3.361 1.68 1.68 0 1 1 0 3.361zm0-37.871a1.681 1.681 0 0 1 0-3.361 1.68 1.68 0 1 1 0 3.361zm0-37.872a1.681 1.681 0 0 1-1.684-1.679c0-.928.753-1.68 1.684-1.68a1.68 1.68 0 1 1 0 3.359zm-9.48 359.769c-.93 0-1.684-.751-1.684-1.679s.754-1.68 1.684-1.68a1.68 1.68 0 0 1 0 3.359zm0-37.87c-.93 0-1.684-.752-1.684-1.68 0-.928.754-1.68 1.684-1.68a1.68 1.68 0 1 1 0 3.36zm0-37.871a1.681 1.681 0 1 1 0-3.36 1.68 1.68 0 0 1 0 3.36zm0-37.87c-.93 0-1.684-.751-1.684-1.68a1.683 1.683 0 0 1 3.366 0 1.68 1.68 0 0 1-1.682 1.68zm0-37.87c-.93 0-1.684-.752-1.684-1.68 0-.928.754-1.68 1.684-1.68a1.68 1.68 0 1 1 0 3.36zm0-37.87c-.93 0-1.684-.753-1.684-1.68 0-.928.754-1.68 1.684-1.68a1.68 1.68 0 1 1 0 3.36zm0-37.87a1.68 1.68 0 0 1 0-3.36 1.68 1.68 0 1 1 0 3.36zm0-37.872c-.93 0-1.684-.752-1.684-1.68 0-.927.754-1.679 1.684-1.679a1.68 1.68 0 1 1 0 3.359zm0-37.869c-.93 0-1.684-.752-1.684-1.681 0-.928.754-1.68 1.684-1.68a1.68 1.68 0 1 1 0 3.361zm0-37.871c-.93 0-1.684-.753-1.684-1.68a1.683 1.683 0 0 1 3.366 0c0 .927-.753 1.68-1.682 1.68zm0-37.87c-.93 0-1.684-.753-1.684-1.68 0-.928.754-1.68 1.684-1.68a1.68 1.68 0 1 1 0 3.36zm-9.481 397.639a1.681 1.681 0 1 1 0-3.361c.929 0 1.684.753 1.684 1.68 0 .929-.755 1.681-1.684 1.681zm0-37.871a1.68 1.68 0 1 1 0-3.36c.929 0 1.684.753 1.684 1.681s-.755 1.679-1.684 1.679zm0-37.87a1.68 1.68 0 1 1 0-3.361c.929 0 1.684.753 1.684 1.681s-.755 1.68-1.684 1.68zm0-37.87a1.68 1.68 0 0 1 0-3.36c.929 0 1.684.752 1.684 1.68 0 .927-.755 1.68-1.684 1.68zm0-37.87a1.682 1.682 0 1 1 0-3.361c.929 0 1.684.751 1.684 1.68 0 .928-.755 1.681-1.684 1.681zm0-37.872a1.68 1.68 0 1 1 0-3.359c.929 0 1.684.752 1.684 1.679 0 .929-.755 1.68-1.684 1.68zm0-37.87a1.68 1.68 0 1 1 0-3.36c.929 0 1.684.752 1.684 1.68 0 .929-.755 1.68-1.684 1.68zm0-37.87a1.68 1.68 0 1 1 0-3.361c.929 0 1.684.753 1.684 1.681s-.755 1.68-1.684 1.68zm0-37.869a1.68 1.68 0 0 1 0-3.361c.929 0 1.684.752 1.684 1.679 0 .928-.755 1.682-1.684 1.682zm0-37.871a1.682 1.682 0 1 1 0-3.361c.929 0 1.684.752 1.684 1.68 0 .928-.755 1.681-1.684 1.681zm0-37.872a1.68 1.68 0 1 1 0-3.359c.929 0 1.684.752 1.684 1.68 0 .927-.755 1.679-1.684 1.679zm-9.48 359.769a1.68 1.68 0 1 1 0-3.359 1.68 1.68 0 0 1 0 3.359zm0-37.87a1.682 1.682 0 0 1-1.682-1.68c0-.928.754-1.68 1.682-1.68a1.681 1.681 0 1 1 0 3.36zm0-37.871a1.68 1.68 0 1 1 0-3.36 1.68 1.68 0 0 1 0 3.36zm0-37.87a1.68 1.68 0 1 1 0-3.36 1.68 1.68 0 0 1 0 3.36zm0-37.87a1.682 1.682 0 0 1-1.682-1.68c0-.928.754-1.68 1.682-1.68a1.681 1.681 0 1 1 0 3.36zm0-37.87a1.682 1.682 0 0 1-1.682-1.68c0-.928.754-1.68 1.682-1.68a1.681 1.681 0 1 1 0 3.36zm0-37.87a1.68 1.68 0 0 1 0-3.36 1.68 1.68 0 1 1 0 3.36zm0-37.872a1.682 1.682 0 0 1-1.682-1.68c0-.927.754-1.679 1.682-1.679.93 0 1.683.752 1.683 1.679 0 .928-.753 1.68-1.683 1.68zm0-37.869a1.682 1.682 0 1 1 0-3.363 1.682 1.682 0 0 1 0 3.363zm0-37.871a1.682 1.682 0 0 1-1.682-1.68 1.682 1.682 0 0 1 3.365 0c0 .927-.753 1.68-1.683 1.68zm0-37.87a1.682 1.682 0 0 1-1.682-1.68c0-.928.754-1.68 1.682-1.68a1.681 1.681 0 1 1 0 3.36zM229.2 400.999a1.681 1.681 0 1 1-.003-3.363A1.681 1.681 0 0 1 229.2 401zm0-37.871a1.68 1.68 0 1 1 0-3.36 1.68 1.68 0 1 1 0 3.36zm0-37.87a1.681 1.681 0 1 1-.004-3.362 1.681 1.681 0 0 1 .004 3.362zm0-37.87a1.681 1.681 0 1 1 0 0zm0-37.87a1.68 1.68 0 1 1 0-3.361 1.68 1.68 0 1 1 0 3.361zm0-37.872a1.68 1.68 0 1 1 0-3.359 1.68 1.68 0 1 1 0 3.359zm0-37.87a1.68 1.68 0 1 1 0-3.36 1.68 1.68 0 1 1 0 3.36zm0-37.87a1.681 1.681 0 1 1-.004-3.362 1.681 1.681 0 0 1 .004 3.362zm0-37.869a1.68 1.68 0 0 1 0-3.361 1.68 1.68 0 1 1 0 3.361zm0-37.871a1.681 1.681 0 1 1 0 0zm0-37.872a1.68 1.68 0 0 1-1.683-1.679 1.681 1.681 0 0 1 3.364 0 1.68 1.68 0 0 1-1.681 1.679zm-9.479 359.769a1.68 1.68 0 1 1 0-3.359 1.68 1.68 0 1 1 0 3.359zm0-37.87a1.681 1.681 0 0 1-1.684-1.68c0-.928.753-1.68 1.684-1.68a1.68 1.68 0 1 1 0 3.36zm0-37.871a1.68 1.68 0 1 1 0-3.36 1.68 1.68 0 1 1 0 3.36zm0-37.87a1.68 1.68 0 1 1 0-3.36 1.68 1.68 0 0 1 0 3.36zm0-37.87a1.681 1.681 0 0 1-1.684-1.68c0-.928.753-1.68 1.684-1.68a1.68 1.68 0 1 1 0 3.36zm0-37.87a1.682 1.682 0 0 1-1.684-1.68c0-.928.753-1.68 1.684-1.68a1.68 1.68 0 1 1 0 3.36zm0-37.87a1.68 1.68 0 1 1 0-3.36 1.68 1.68 0 1 1 0 3.36zm0-37.872a1.681 1.681 0 0 1-1.684-1.68c0-.927.753-1.679 1.684-1.679a1.68 1.68 0 1 1 0 3.359zm0-37.869a1.682 1.682 0 1 1-.005-3.363 1.682 1.682 0 0 1 .005 3.363zm0-37.871a1.682 1.682 0 0 1-1.684-1.68 1.682 1.682 0 0 1 3.365 0c0 .927-.753 1.68-1.681 1.68zm0-37.87a1.682 1.682 0 0 1-1.684-1.68c0-.928.753-1.68 1.684-1.68a1.68 1.68 0 1 1 0 3.36zm-9.481 397.639a1.681 1.681 0 1 1 1.682-1.681c0 .929-.753 1.681-1.682 1.681zm0-37.871a1.68 1.68 0 1 1 0-3.36 1.68 1.68 0 0 1 0 3.36zm0-37.87a1.681 1.681 0 1 1 0-3.361 1.682 1.682 0 1 1 0 3.361zm0-37.87a1.681 1.681 0 0 1 0-3.36 1.68 1.68 0 1 1 0 3.36zm0-37.87a1.68 1.68 0 1 1 0-3.361 1.68 1.68 0 1 1 0 3.361zm0-37.872a1.68 1.68 0 1 1 0-3.359 1.68 1.68 0 1 1 0 3.359zm0-37.87a1.68 1.68 0 1 1 0-3.36 1.68 1.68 0 1 1 0 3.36zm0-37.87a1.681 1.681 0 1 1 0-3.361 1.682 1.682 0 1 1 0 3.361zm0-37.869a1.68 1.68 0 0 1 0-3.361 1.68 1.68 0 1 1 0 3.361zm0-37.871a1.681 1.681 0 0 1 0-3.361 1.68 1.68 0 1 1 0 3.361zm0-37.872a1.68 1.68 0 0 1-1.683-1.679c0-.928.753-1.68 1.683-1.68a1.68 1.68 0 0 1 0 3.359zm-9.481 359.769a1.68 1.68 0 1 1 0-3.359c.93 0 1.684.752 1.684 1.68 0 .928-.754 1.679-1.684 1.679zm0-37.87a1.68 1.68 0 1 1 0-3.36c.93 0 1.684.752 1.684 1.68 0 .928-.754 1.68-1.684 1.68zm0-37.871a1.68 1.68 0 1 1 0-3.36 1.681 1.681 0 0 1 0 3.36zm0-37.87a1.68 1.68 0 1 1 0-3.36c.93 0 1.684.753 1.684 1.68 0 .929-.754 1.68-1.684 1.68zm0-37.87a1.68 1.68 0 1 1 0-3.36c.93 0 1.684.752 1.684 1.68 0 .928-.754 1.68-1.684 1.68zm0-37.87a1.68 1.68 0 0 1 0-3.36c.93 0 1.684.752 1.684 1.68 0 .927-.754 1.68-1.684 1.68zm0-37.87a1.68 1.68 0 1 1 0-3.36 1.68 1.68 0 1 1 0 3.36zm0-37.872a1.68 1.68 0 1 1 0-3.359c.93 0 1.684.752 1.684 1.679 0 .928-.754 1.68-1.684 1.68zm0-37.869a1.68 1.68 0 1 1 0-3.361c.93 0 1.684.752 1.684 1.68 0 .929-.754 1.681-1.684 1.681zm0-37.871a1.681 1.681 0 1 1 1.684-1.68c0 .927-.754 1.68-1.684 1.68zm0-37.87a1.68 1.68 0 0 1 0-3.36c.93 0 1.684.752 1.684 1.68 0 .927-.754 1.68-1.684 1.68zm-9.48 397.639a1.682 1.682 0 1 1 0-3.363 1.682 1.682 0 0 1 0 3.363zm0-37.871a1.68 1.68 0 1 1 0-3.36 1.68 1.68 0 0 1 0 3.36zm0-37.87a1.682 1.682 0 1 1 1.683-1.68c0 .928-.753 1.68-1.683 1.68zm0-37.87a1.682 1.682 0 0 1-1.682-1.68c0-.928.754-1.68 1.682-1.68a1.681 1.681 0 1 1 0 3.36zm0-37.87a1.68 1.68 0 0 1 0-3.361 1.68 1.68 0 1 1 0 3.361zm0-37.872a1.68 1.68 0 0 1-1.682-1.68c0-.927.754-1.679 1.682-1.679a1.68 1.68 0 0 1 0 3.359zm0-37.87a1.68 1.68 0 1 1 0-3.36 1.681 1.681 0 1 1 0 3.36zm0-37.87a1.682 1.682 0 1 1 1.683-1.68c0 .928-.753 1.68-1.683 1.68zm0-37.869a1.681 1.681 0 0 1 0-3.361 1.68 1.68 0 1 1 0 3.361zm0-37.871a1.682 1.682 0 0 1 0-3.361 1.681 1.681 0 1 1 0 3.361zm0-37.872a1.681 1.681 0 0 1-1.682-1.679c0-.928.754-1.68 1.682-1.68.93 0 1.683.752 1.683 1.68a1.68 1.68 0 0 1-1.683 1.679zM181.8 382.063a1.68 1.68 0 1 1 0-3.359 1.68 1.68 0 0 1 0 3.359zm0-37.87a1.68 1.68 0 1 1 1.682-1.68 1.68 1.68 0 0 1-1.682 1.68zm0-37.871a1.68 1.68 0 1 1 0-3.36 1.68 1.68 0 0 1 0 3.36zm0-37.87a1.68 1.68 0 1 1 0-3.36 1.68 1.68 0 0 1 0 3.36zm0-37.87a1.68 1.68 0 1 1 1.682-1.68 1.68 1.68 0 0 1-1.682 1.68zm0-37.87a1.68 1.68 0 0 1 0-3.36 1.68 1.68 0 1 1 0 3.36zm0-37.87a1.68 1.68 0 1 1 0-3.36 1.68 1.68 0 1 1 0 3.36zm0-37.872a1.68 1.68 0 0 1 0-3.359 1.68 1.68 0 1 1 0 3.359zm0-37.869a1.681 1.681 0 1 1-.002-3.362 1.681 1.681 0 0 1 .002 3.362zm0-37.871a1.682 1.682 0 1 1-.001-3.363 1.682 1.682 0 0 1 .001 3.363zm0-37.87a1.68 1.68 0 0 1 0-3.36 1.68 1.68 0 1 1 0 3.36zm-9.479 397.639a1.682 1.682 0 1 1-.005-3.363 1.682 1.682 0 0 1 .005 3.363zm0-37.871a1.68 1.68 0 1 1 0-3.36 1.68 1.68 0 1 1 0 3.36zm0-37.87a1.681 1.681 0 1 1 1.681-1.68 1.68 1.68 0 0 1-1.681 1.68zm0-37.87a1.682 1.682 0 0 1-1.684-1.68c0-.928.753-1.68 1.684-1.68a1.68 1.68 0 1 1 0 3.36zm0-37.87a1.68 1.68 0 0 1 0-3.361 1.68 1.68 0 1 1 0 3.361zm0-37.872a1.68 1.68 0 1 1 0-3.359 1.68 1.68 0 1 1 0 3.359zm0-37.87a1.68 1.68 0 1 1 0-3.36 1.68 1.68 0 1 1 0 3.36zm0-37.87a1.681 1.681 0 1 1 1.681-1.68 1.68 1.68 0 0 1-1.681 1.68zm0-37.869a1.681 1.681 0 0 1 0-3.361 1.68 1.68 0 1 1 0 3.361zm0-37.871a1.681 1.681 0 0 1 0-3.361 1.68 1.68 0 1 1 0 3.361zm0-37.872a1.681 1.681 0 0 1-1.684-1.679c0-.928.753-1.68 1.684-1.68a1.68 1.68 0 1 1 0 3.359zm-9.481 359.769a1.68 1.68 0 1 1 0-3.359 1.68 1.68 0 0 1 0 3.359zm0-37.87a1.681 1.681 0 1 1 0-3.36 1.681 1.681 0 1 1 0 3.36zm0-37.871a1.68 1.68 0 1 1 0-3.36 1.68 1.68 0 0 1 0 3.36zm0-37.87a1.68 1.68 0 1 1 0-3.36 1.68 1.68 0 0 1 0 3.36zm0-37.87a1.681 1.681 0 1 1 0-3.36 1.681 1.681 0 1 1 0 3.36zm0-37.87a1.681 1.681 0 0 1 0-3.36 1.681 1.681 0 1 1 0 3.36zm0-37.87a1.68 1.68 0 1 1 0-3.36 1.68 1.68 0 1 1 0 3.36zm0-37.872c-.93 0-1.683-.752-1.683-1.68a1.68 1.68 0 0 1 1.683-1.679c.93 0 1.683.752 1.683 1.679 0 .928-.753 1.68-1.683 1.68zm0-37.869a1.681 1.681 0 1 1 0-3.361 1.681 1.681 0 1 1 0 3.361zm0-37.871a1.682 1.682 0 1 1 0-3.361 1.682 1.682 0 0 1 0 3.361zm0-37.87a1.681 1.681 0 0 1 0-3.36 1.681 1.681 0 1 1 0 3.36zm-9.481 397.639a1.68 1.68 0 1 1 0-3.361 1.682 1.682 0 0 1 0 3.361zm0-37.871a1.68 1.68 0 1 1 0-3.36 1.68 1.68 0 0 1 0 3.36zm0-37.87a1.68 1.68 0 1 1 0-3.361 1.681 1.681 0 0 1 0 3.361zm0-37.87a1.68 1.68 0 0 1 0-3.36c.931 0 1.684.752 1.684 1.68 0 .927-.753 1.68-1.684 1.68zm0-37.87a1.682 1.682 0 1 1 .001-3.363 1.682 1.682 0 0 1-.001 3.363zm0-37.872a1.68 1.68 0 1 1 0-3.359 1.68 1.68 0 0 1 0 3.359zm0-37.87a1.68 1.68 0 1 1 0-3.36 1.68 1.68 0 0 1 0 3.36zm0-37.87a1.68 1.68 0 1 1 0-3.361 1.681 1.681 0 0 1 0 3.361zm0-37.869a1.68 1.68 0 1 1 0-3.361 1.681 1.681 0 1 1 0 3.361zm0-37.871a1.682 1.682 0 1 1 .001-3.363 1.682 1.682 0 0 1-.001 3.363zm0-37.872a1.68 1.68 0 1 1 0-3.359c.931 0 1.684.752 1.684 1.68 0 .927-.753 1.679-1.684 1.679zm-9.479 359.769a1.68 1.68 0 1 1 0-3.359 1.68 1.68 0 0 1 0 3.359zm0-37.87a1.68 1.68 0 1 1 1.682-1.68 1.68 1.68 0 0 1-1.682 1.68zm0-37.871a1.68 1.68 0 1 1 0-3.36 1.68 1.68 0 0 1 0 3.36zm0-37.87a1.68 1.68 0 1 1 0-3.36 1.68 1.68 0 0 1 0 3.36zm0-37.87a1.68 1.68 0 1 1 1.682-1.68 1.68 1.68 0 0 1-1.682 1.68zm0-37.87a1.68 1.68 0 0 1 0-3.36 1.68 1.68 0 1 1 0 3.36zm0-37.87a1.68 1.68 0 1 1 0-3.36 1.68 1.68 0 1 1 0 3.36zm0-37.872a1.68 1.68 0 0 1 0-3.359 1.68 1.68 0 1 1 0 3.359zm0-37.869a1.681 1.681 0 1 1-.002-3.362 1.681 1.681 0 0 1 .002 3.362zm0-37.871a1.682 1.682 0 1 1-.001-3.363 1.682 1.682 0 0 1 .001 3.363zm0-37.87a1.68 1.68 0 0 1 0-3.36 1.68 1.68 0 1 1 0 3.36zm-9.479 397.639a1.681 1.681 0 1 1 1.682-1.681c0 .929-.754 1.681-1.682 1.681zm0-37.871a1.68 1.68 0 1 1 0-3.36 1.68 1.68 0 0 1 0 3.36zm0-37.87a1.681 1.681 0 1 1 0-3.361 1.682 1.682 0 0 1 0 3.361zm0-37.87a1.681 1.681 0 0 1 0-3.36c.928 0 1.682.752 1.682 1.68 0 .927-.754 1.68-1.682 1.68zm0-37.87a1.68 1.68 0 1 1 0-3.361 1.68 1.68 0 1 1 0 3.361zm0-37.872a1.68 1.68 0 1 1 0-3.359c.928 0 1.682.752 1.682 1.679a1.68 1.68 0 0 1-1.682 1.68zm0-37.87a1.68 1.68 0 1 1 0-3.36 1.68 1.68 0 0 1 0 3.36zm0-37.87a1.681 1.681 0 1 1 0-3.361 1.682 1.682 0 0 1 0 3.361zm0-37.869a1.68 1.68 0 0 1 0-3.361 1.681 1.681 0 1 1 0 3.361zm0-37.871a1.681 1.681 0 0 1 0-3.361 1.682 1.682 0 1 1 0 3.361zm0-37.872a1.68 1.68 0 0 1-1.683-1.679c0-.928.753-1.68 1.683-1.68.928 0 1.682.752 1.682 1.68 0 .927-.754 1.679-1.682 1.679zm-9.48 359.769a1.68 1.68 0 1 1 0-3.359 1.68 1.68 0 1 1 0 3.359zm0-37.87a1.681 1.681 0 0 1-1.684-1.68c0-.928.753-1.68 1.684-1.68a1.68 1.68 0 1 1 0 3.36zm0-37.871a1.68 1.68 0 1 1 0-3.36 1.68 1.68 0 1 1 0 3.36zm0-37.87a1.68 1.68 0 1 1 0-3.36 1.68 1.68 0 0 1 0 3.36zm0-37.87a1.681 1.681 0 0 1-1.684-1.68c0-.928.753-1.68 1.684-1.68a1.68 1.68 0 1 1 0 3.36zm0-37.87a1.682 1.682 0 0 1-1.684-1.68c0-.928.753-1.68 1.684-1.68a1.68 1.68 0 1 1 0 3.36zm0-37.87a1.68 1.68 0 1 1 0-3.36 1.68 1.68 0 1 1 0 3.36zm0-37.872a1.681 1.681 0 0 1-1.684-1.68c0-.927.753-1.679 1.684-1.679a1.68 1.68 0 1 1 0 3.359zm0-37.869a1.682 1.682 0 1 1-.005-3.363 1.682 1.682 0 0 1 .005 3.363zm0-37.871a1.682 1.682 0 0 1-1.684-1.68 1.682 1.682 0 0 1 3.365 0c0 .927-.753 1.68-1.681 1.68zm0-37.87a1.682 1.682 0 0 1-1.684-1.68c0-.928.753-1.68 1.684-1.68a1.68 1.68 0 1 1 0 3.36zm-9.481 397.639a1.681 1.681 0 1 1 0-3.361 1.682 1.682 0 1 1 0 3.361zm0-37.871a1.68 1.68 0 1 1 0-3.36 1.68 1.68 0 0 1 0 3.36zm0-37.87a1.68 1.68 0 1 1 0-3.361 1.681 1.681 0 0 1 0 3.361zm0-37.87a1.68 1.68 0 0 1 0-3.36 1.681 1.681 0 1 1 0 3.36zm0-37.87a1.682 1.682 0 1 1 0-3.363 1.682 1.682 0 0 1 0 3.363zm0-37.872a1.68 1.68 0 1 1 0-3.359 1.68 1.68 0 0 1 0 3.359zm0-37.87a1.68 1.68 0 1 1 0-3.36 1.681 1.681 0 1 1 0 3.36zm0-37.87a1.68 1.68 0 1 1 0-3.361 1.681 1.681 0 0 1 0 3.361zm0-37.869a1.68 1.68 0 0 1 0-3.361 1.68 1.68 0 1 1 0 3.361zm0-37.871a1.682 1.682 0 1 1 0-3.363 1.682 1.682 0 0 1 0 3.363zm0-37.872a1.68 1.68 0 1 1 0-3.359c.93 0 1.683.752 1.683 1.68a1.68 1.68 0 0 1-1.683 1.679zm-9.48 359.769a1.68 1.68 0 1 1 0-3.359 1.68 1.68 0 0 1 0 3.359zm0-37.87a1.68 1.68 0 1 1 0-3.36 1.681 1.681 0 1 1 0 3.36zm0-37.871a1.68 1.68 0 1 1 0-3.36 1.68 1.68 0 0 1 0 3.36zm0-37.87a1.68 1.68 0 1 1 0-3.36 1.68 1.68 0 0 1 0 3.36zm0-37.87a1.68 1.68 0 1 1 0-3.36 1.681 1.681 0 1 1 0 3.36zm0-37.87a1.68 1.68 0 0 1 0-3.36 1.681 1.681 0 1 1 0 3.36zm0-37.87a1.68 1.68 0 1 1 0-3.36 1.68 1.68 0 1 1 0 3.36zm0-37.872a1.68 1.68 0 0 1 0-3.359c.93 0 1.683.752 1.683 1.679 0 .928-.753 1.68-1.683 1.68zm0-37.869a1.681 1.681 0 1 1 0-3.361 1.681 1.681 0 1 1 0 3.361zm0-37.871a1.682 1.682 0 1 1-.001-3.363 1.682 1.682 0 0 1 .001 3.363zm0-37.87a1.68 1.68 0 0 1 0-3.36 1.681 1.681 0 1 1 0 3.36zm-9.48 397.639a1.682 1.682 0 1 1 0-3.363 1.682 1.682 0 0 1 0 3.363zm0-37.871a1.68 1.68 0 1 1 0-3.36 1.68 1.68 0 0 1 0 3.36zm0-37.87a1.682 1.682 0 1 1 1.683-1.68c0 .928-.753 1.68-1.683 1.68zm0-37.87a1.682 1.682 0 0 1-1.682-1.68c0-.928.754-1.68 1.682-1.68a1.681 1.681 0 1 1 0 3.36zm0-37.87a1.68 1.68 0 0 1 0-3.361 1.68 1.68 0 1 1 0 3.361zm0-37.872a1.68 1.68 0 0 1-1.682-1.68c0-.927.754-1.679 1.682-1.679a1.68 1.68 0 0 1 0 3.359zm0-37.87a1.68 1.68 0 1 1 0-3.36 1.681 1.681 0 1 1 0 3.36zm0-37.87a1.682 1.682 0 1 1 1.683-1.68c0 .928-.753 1.68-1.683 1.68zm0-37.869a1.681 1.681 0 0 1 0-3.361 1.68 1.68 0 1 1 0 3.361zm0-37.871a1.682 1.682 0 0 1 0-3.361 1.681 1.681 0 1 1 0 3.361zm0-37.872a1.681 1.681 0 0 1-1.682-1.679c0-.928.754-1.68 1.682-1.68.93 0 1.683.752 1.683 1.68a1.68 1.68 0 0 1-1.683 1.679zm-9.479 359.769a1.68 1.68 0 1 1 0-3.359 1.68 1.68 0 0 1 0 3.359zm0-37.87a1.681 1.681 0 1 1 0-3.36c.928 0 1.682.752 1.682 1.68 0 .928-.754 1.68-1.682 1.68zm0-37.871a1.68 1.68 0 1 1 0-3.36 1.68 1.68 0 0 1 0 3.36zm0-37.87a1.68 1.68 0 1 1 0-3.36 1.68 1.68 0 0 1 0 3.36zm0-37.87a1.681 1.681 0 1 1 0-3.36c.928 0 1.682.752 1.682 1.68 0 .928-.754 1.68-1.682 1.68zm0-37.87a1.681 1.681 0 0 1 0-3.36c.928 0 1.682.752 1.682 1.68 0 .927-.754 1.68-1.682 1.68zm0-37.87a1.68 1.68 0 1 1 0-3.36 1.68 1.68 0 1 1 0 3.36zm0-37.872c-.93 0-1.683-.752-1.683-1.68a1.68 1.68 0 0 1 1.683-1.679c.928 0 1.682.752 1.682 1.679 0 .928-.754 1.68-1.682 1.68zm0-37.869a1.681 1.681 0 1 1 1.682-1.681c0 .929-.754 1.681-1.682 1.681zm0-37.871a1.682 1.682 0 1 1-.003-3.363 1.682 1.682 0 0 1 .003 3.363zm0-37.87a1.681 1.681 0 0 1 0-3.36c.928 0 1.682.752 1.682 1.68 0 .927-.754 1.68-1.682 1.68zm-9.48 397.639a1.683 1.683 0 0 1-1.684-1.681 1.683 1.683 0 0 1 3.366 0c0 .929-.753 1.681-1.682 1.681zm0-37.871a1.682 1.682 0 0 1-1.684-1.679 1.683 1.683 0 0 1 3.366 0 1.68 1.68 0 0 1-1.682 1.679zm0-37.87a1.683 1.683 0 0 1-1.684-1.68 1.683 1.683 0 0 1 3.366 0 1.68 1.68 0 0 1-1.682 1.68zm0-37.87a1.683 1.683 0 0 1-1.684-1.68 1.683 1.683 0 0 1 3.366 0c0 .927-.753 1.68-1.682 1.68zm0-37.87a1.683 1.683 0 0 1-1.684-1.681c0-.929.755-1.68 1.684-1.68a1.68 1.68 0 1 1 0 3.361zm0-37.872a1.682 1.682 0 0 1-1.684-1.68 1.682 1.682 0 0 1 3.366 0 1.68 1.68 0 0 1-1.682 1.68zm0-37.87a1.682 1.682 0 0 1-1.684-1.68 1.683 1.683 0 0 1 3.366 0 1.68 1.68 0 0 1-1.682 1.68zm0-37.87a1.683 1.683 0 0 1-1.684-1.68 1.683 1.683 0 0 1 3.366 0 1.68 1.68 0 0 1-1.682 1.68zm0-37.869a1.684 1.684 0 0 1-1.684-1.682 1.682 1.682 0 0 1 3.366 0c0 .928-.753 1.682-1.682 1.682zm0-37.871a1.683 1.683 0 0 1-1.684-1.681 1.683 1.683 0 0 1 3.366 0c0 .928-.753 1.681-1.682 1.681zm0-37.872a1.682 1.682 0 0 1-1.684-1.679 1.683 1.683 0 0 1 3.366 0 1.68 1.68 0 0 1-1.682 1.679zm-9.48 359.769a1.68 1.68 0 1 1 0-3.359c.929 0 1.683.752 1.683 1.68a1.68 1.68 0 0 1-1.683 1.679zm0-37.87a1.681 1.681 0 1 1 0-3.36c.929 0 1.683.752 1.683 1.68 0 .928-.754 1.68-1.683 1.68zm0-37.871a1.68 1.68 0 1 1 0-3.36 1.68 1.68 0 0 1 0 3.36zm0-37.87a1.68 1.68 0 1 1 0-3.36 1.681 1.681 0 0 1 0 3.36zm0-37.87a1.681 1.681 0 1 1 0-3.36c.929 0 1.683.752 1.683 1.68 0 .928-.754 1.68-1.683 1.68zm0-37.87a1.681 1.681 0 0 1 0-3.36c.929 0 1.683.752 1.683 1.68 0 .927-.754 1.68-1.683 1.68zm0-37.87a1.68 1.68 0 1 1 0-3.36 1.68 1.68 0 1 1 0 3.36zm0-37.872c-.93 0-1.683-.752-1.683-1.68a1.68 1.68 0 0 1 1.683-1.679c.929 0 1.683.752 1.683 1.679 0 .928-.754 1.68-1.683 1.68zm0-37.869a1.681 1.681 0 1 1 0-3.361 1.682 1.682 0 1 1 0 3.361zm0-37.871a1.682 1.682 0 1 1 0-3.361c.929 0 1.683.753 1.683 1.681 0 .927-.754 1.68-1.683 1.68zm0-37.87a1.681 1.681 0 0 1 0-3.36c.929 0 1.683.752 1.683 1.68 0 .927-.754 1.68-1.683 1.68zM58.56 400.999a1.682 1.682 0 1 1 0-3.361 1.682 1.682 0 0 1 0 3.361zm0-37.871a1.68 1.68 0 1 1 0-3.36 1.68 1.68 0 0 1 0 3.36zm0-37.87a1.682 1.682 0 1 1 0-3.361 1.681 1.681 0 0 1 0 3.361zm0-37.87a1.682 1.682 0 0 1-1.682-1.68c0-.928.754-1.68 1.682-1.68.931 0 1.684.752 1.684 1.68 0 .927-.753 1.68-1.684 1.68zm0-37.87a1.68 1.68 0 0 1 0-3.361 1.68 1.68 0 1 1 0 3.361zm0-37.872a1.68 1.68 0 0 1-1.682-1.68c0-.927.754-1.679 1.682-1.679a1.68 1.68 0 0 1 0 3.359zm0-37.87a1.68 1.68 0 1 1 0-3.36 1.68 1.68 0 0 1 0 3.36zm0-37.87a1.682 1.682 0 1 1 0-3.361 1.681 1.681 0 0 1 0 3.361zm0-37.869a1.681 1.681 0 0 1 0-3.361 1.681 1.681 0 1 1 0 3.361zm0-37.871a1.682 1.682 0 0 1 0-3.361 1.681 1.681 0 1 1 0 3.361zm0-37.872a1.681 1.681 0 0 1-1.682-1.679c0-.928.754-1.68 1.682-1.68.931 0 1.684.752 1.684 1.68 0 .927-.753 1.679-1.684 1.679zm-9.479 359.769a1.68 1.68 0 1 1 0-3.359 1.68 1.68 0 0 1 0 3.359zm0-37.87a1.68 1.68 0 1 1 1.682-1.68 1.68 1.68 0 0 1-1.682 1.68zm0-37.871a1.68 1.68 0 1 1 0-3.36 1.68 1.68 0 0 1 0 3.36zm0-37.87a1.68 1.68 0 1 1 0-3.36 1.68 1.68 0 0 1 0 3.36zm0-37.87a1.68 1.68 0 1 1 1.682-1.68 1.68 1.68 0 0 1-1.682 1.68zm0-37.87a1.68 1.68 0 0 1 0-3.36 1.68 1.68 0 1 1 0 3.36zm0-37.87a1.68 1.68 0 1 1 0-3.36 1.68 1.68 0 1 1 0 3.36zm0-37.872a1.68 1.68 0 0 1 0-3.359 1.68 1.68 0 1 1 0 3.359zm0-37.869a1.681 1.681 0 1 1-.002-3.362 1.681 1.681 0 0 1 .002 3.362zm0-37.871a1.682 1.682 0 1 1-.001-3.363 1.682 1.682 0 0 1 .001 3.363zm0-37.87a1.68 1.68 0 0 1 0-3.36 1.68 1.68 0 1 1 0 3.36zm-9.48 397.639a1.681 1.681 0 1 1 0-3.361c.928 0 1.683.753 1.683 1.68 0 .929-.755 1.681-1.683 1.681zm0-37.871a1.68 1.68 0 1 1 0-3.36c.928 0 1.683.753 1.683 1.681s-.755 1.679-1.683 1.679zm0-37.87a1.68 1.68 0 1 1 0-3.361c.928 0 1.683.753 1.683 1.681s-.755 1.68-1.683 1.68zm0-37.87a1.68 1.68 0 0 1 0-3.36c.928 0 1.683.752 1.683 1.68 0 .927-.755 1.68-1.683 1.68zm0-37.87a1.682 1.682 0 1 1 0-3.363 1.682 1.682 0 0 1 0 3.363zm0-37.872a1.68 1.68 0 1 1 0-3.359c.928 0 1.683.752 1.683 1.679 0 .929-.755 1.68-1.683 1.68zm0-37.87a1.68 1.68 0 1 1 0-3.36c.928 0 1.683.752 1.683 1.68 0 .929-.755 1.68-1.683 1.68zm0-37.87a1.68 1.68 0 1 1 0-3.361c.928 0 1.683.753 1.683 1.681s-.755 1.68-1.683 1.68zm0-37.869a1.68 1.68 0 0 1 0-3.361c.928 0 1.683.752 1.683 1.679 0 .928-.755 1.682-1.683 1.682zm0-37.871a1.682 1.682 0 1 1 0-3.363 1.682 1.682 0 0 1 0 3.363zm0-37.872a1.68 1.68 0 1 1 0-3.359c.928 0 1.683.752 1.683 1.68 0 .927-.755 1.679-1.683 1.679zm-9.479 359.769a1.682 1.682 0 0 1-1.684-1.679 1.683 1.683 0 0 1 3.365 0 1.68 1.68 0 0 1-1.681 1.679zm0-37.87a1.683 1.683 0 0 1-1.684-1.68 1.683 1.683 0 0 1 3.365 0 1.68 1.68 0 0 1-1.681 1.68zm0-37.871a1.682 1.682 0 0 1-1.684-1.679 1.683 1.683 0 0 1 3.365 0 1.68 1.68 0 0 1-1.681 1.679zm0-37.87a1.682 1.682 0 0 1-1.684-1.68 1.683 1.683 0 0 1 3.365 0 1.68 1.68 0 0 1-1.681 1.68zm0-37.87a1.683 1.683 0 0 1-1.684-1.68 1.683 1.683 0 0 1 3.365 0 1.68 1.68 0 0 1-1.681 1.68zm0-37.87a1.683 1.683 0 0 1-1.684-1.68 1.683 1.683 0 0 1 3.365 0c0 .927-.753 1.68-1.681 1.68zm0-37.87a1.681 1.681 0 0 1 0-3.36 1.68 1.68 0 1 1 0 3.36zm0-37.872a1.683 1.683 0 0 1-1.684-1.68 1.682 1.682 0 0 1 3.365 0 1.68 1.68 0 0 1-1.681 1.68zm0-37.869a1.683 1.683 0 0 1-1.684-1.681 1.683 1.683 0 0 1 3.365 0 1.68 1.68 0 0 1-1.681 1.681zm0-37.871a1.683 1.683 0 0 1-1.684-1.68 1.683 1.683 0 0 1 3.365 0c0 .927-.753 1.68-1.681 1.68zm0-37.87a1.683 1.683 0 0 1-1.684-1.68 1.683 1.683 0 0 1 3.365 0c0 .927-.753 1.68-1.681 1.68zm-9.481 397.639a1.681 1.681 0 1 1 0-3.361c.929 0 1.684.753 1.684 1.68 0 .929-.755 1.681-1.684 1.681zm0-37.871a1.68 1.68 0 1 1 0-3.36c.929 0 1.684.753 1.684 1.681s-.755 1.679-1.684 1.679zm0-37.87a1.68 1.68 0 1 1 0-3.361c.929 0 1.684.753 1.684 1.681s-.755 1.68-1.684 1.68zm0-37.87a1.68 1.68 0 0 1 0-3.36c.929 0 1.684.752 1.684 1.68 0 .927-.755 1.68-1.684 1.68zm0-37.87a1.682 1.682 0 1 1 0-3.361c.929 0 1.684.751 1.684 1.68 0 .928-.755 1.681-1.684 1.681zm0-37.872a1.68 1.68 0 1 1 0-3.359c.929 0 1.684.752 1.684 1.679 0 .929-.755 1.68-1.684 1.68zm0-37.87a1.68 1.68 0 1 1 0-3.36c.929 0 1.684.752 1.684 1.68 0 .929-.755 1.68-1.684 1.68zm0-37.87a1.68 1.68 0 1 1 0-3.361c.929 0 1.684.753 1.684 1.681s-.755 1.68-1.684 1.68zm0-37.869a1.68 1.68 0 0 1 0-3.361c.929 0 1.684.752 1.684 1.679 0 .928-.755 1.682-1.684 1.682zm0-37.871a1.682 1.682 0 1 1 0-3.361c.929 0 1.684.752 1.684 1.68 0 .928-.755 1.681-1.684 1.681zm0-37.872a1.68 1.68 0 1 1 0-3.359c.929 0 1.684.752 1.684 1.68 0 .927-.755 1.679-1.684 1.679zM11.16 382.063a1.68 1.68 0 1 1 0-3.359 1.68 1.68 0 0 1 0 3.359zm0-37.87a1.68 1.68 0 1 1 0-3.36c.931 0 1.684.752 1.684 1.68 0 .928-.753 1.68-1.684 1.68zm0-37.871a1.68 1.68 0 1 1 0-3.36 1.68 1.68 0 0 1 0 3.36zm0-37.87a1.68 1.68 0 1 1 0-3.36 1.68 1.68 0 0 1 0 3.36zm0-37.87a1.68 1.68 0 1 1 0-3.36c.931 0 1.684.752 1.684 1.68 0 .928-.753 1.68-1.684 1.68zm0-37.87a1.68 1.68 0 0 1 0-3.36c.931 0 1.684.752 1.684 1.68 0 .927-.753 1.68-1.684 1.68zm0-37.87a1.68 1.68 0 1 1 0-3.36 1.68 1.68 0 1 1 0 3.36zm0-37.872a1.68 1.68 0 1 1 0-3.359c.931 0 1.684.752 1.684 1.679 0 .928-.753 1.68-1.684 1.68zm0-37.869a1.68 1.68 0 1 1 0-3.361 1.681 1.681 0 1 1 0 3.361zm0-37.871a1.681 1.681 0 1 1 1.684-1.68c0 .927-.753 1.68-1.684 1.68zm0-37.87a1.68 1.68 0 0 1 0-3.36c.931 0 1.684.752 1.684 1.68 0 .927-.753 1.68-1.684 1.68zM1.681 400.999a1.68 1.68 0 1 1 0-3.362 1.68 1.68 0 0 1 0 3.362zm0-37.871a1.68 1.68 0 1 1 0-3.36 1.681 1.681 0 1 1 0 3.36zm0-37.87a1.68 1.68 0 1 1 0-3.361 1.68 1.68 0 0 1 0 3.361zm0-37.87a1.68 1.68 0 1 1 0 0zm0-37.87a1.682 1.682 0 1 1 .001-3.363 1.682 1.682 0 0 1-.001 3.363zm0-37.872a1.68 1.68 0 1 1 0-3.359 1.68 1.68 0 1 1 0 3.359zm0-37.87a1.68 1.68 0 1 1 0-3.36 1.68 1.68 0 1 1 0 3.36zm0-37.87a1.68 1.68 0 1 1 0-3.361 1.68 1.68 0 0 1 0 3.361zm0-37.869a1.68 1.68 0 1 1 0-3.361 1.68 1.68 0 1 1 0 3.361zm0-37.871a1.682 1.682 0 1 1 .001-3.363 1.682 1.682 0 0 1-.001 3.363zm0-37.872a1.68 1.68 0 1 1 1.682-1.679 1.68 1.68 0 0 1-1.682 1.679zm407.637 356.41a1.68 1.68 0 0 1 0 3.359 1.68 1.68 0 1 1 0-3.359z" opacity=".639"/>
</svg>
